<svg xmlns="http://www.w3.org/2000/svg" xmlns:cc="http://web.resource.org/cc/" xmlns:svg="http://www.w3.org/2000/svg" id="svg2" width="48" height="48" version="1.0"><metadata id="metadata7"/><path style="fill:none;fill-opacity:.75;fill-rule:evenodd;stroke:#000;stroke-width:.25pt;stroke-linecap:butt;stroke-linejoin:miter;stroke-opacity:1" id="path2230" d="M 6.0102691,-12.782468 L 6.0102691,-12.782468 z"/><path style="fill:none;fill-opacity:.75;fill-rule:evenodd;stroke:#000;stroke-width:.25pt;stroke-linecap:butt;stroke-linejoin:miter;stroke-opacity:1" id="path2189" d="M 42.122911,-12.82577 L 42.122911,-12.82577 z"/><g id="g2203" transform="matrix(0.7046847,0,0,0.9509495,1.3492011,1.7778516)"><g style="stroke:#204a87;stroke-width:1.37722933" id="g2191" transform="matrix(1,0,0,0.7694265,-1.433433,10.152049)"><path style="fill:none;fill-opacity:.75;fill-rule:evenodd;stroke:#204a87;stroke-width:6.96322298;stroke-linecap:round;stroke-linejoin:miter;stroke-miterlimit:4;stroke-dasharray:none;stroke-opacity:1" id="path2193" d="M 20.066613,4.004765 C -2.3649478,8.6624024 22.01761,19.009311 5.933433,23.892154"/><path id="path2195" d="M 20.066613,43.995235 C -2.3649478,39.337597 22.01761,28.990689 5.933433,24.107846" style="fill:none;fill-opacity:.75;fill-rule:evenodd;stroke:#204a87;stroke-width:6.96322298;stroke-linecap:round;stroke-linejoin:miter;stroke-miterlimit:4;stroke-dasharray:none;stroke-opacity:1"/></g><g id="g2197" transform="matrix(-1,0,0,0.7867469,48.13318,9.7363609)"><path id="path2199" d="M 29.5,4.4449623 C 51.931561,9.0000613 27.549003,19.119182 43.63318,23.894528" style="fill:none;fill-opacity:.75;fill-rule:evenodd;stroke:#3465a4;stroke-width:4.13168907;stroke-linecap:round;stroke-linejoin:miter;stroke-miterlimit:4;stroke-dasharray:none;stroke-opacity:1"/><path style="fill:none;fill-opacity:.75;fill-rule:evenodd;stroke:#3465a4;stroke-width:4.13168907;stroke-linecap:round;stroke-linejoin:miter;stroke-miterlimit:4;stroke-dasharray:none;stroke-opacity:1" id="path2201" d="M 29.5,43.555038 C 51.931561,38.999938 27.549003,28.880819 43.63318,24.105472"/></g></g><g id="g2219" transform="matrix(-0.7046847,0,0,0.9509495,46.630517,1.7930599)"><g id="g2221" transform="matrix(1,0,0,0.7694265,-1.433433,10.152049)" style="stroke:#204a87;stroke-width:1.37722933"><path id="path2223" d="M 20.066613,4.004765 C -2.3649478,8.6624024 22.01761,19.009311 5.933433,23.892154" style="fill:none;fill-opacity:.75;fill-rule:evenodd;stroke:#204a87;stroke-width:6.96322298;stroke-linecap:round;stroke-linejoin:miter;stroke-miterlimit:4;stroke-dasharray:none;stroke-opacity:1"/><path style="fill:none;fill-opacity:.75;fill-rule:evenodd;stroke:#204a87;stroke-width:6.96322298;stroke-linecap:round;stroke-linejoin:miter;stroke-miterlimit:4;stroke-dasharray:none;stroke-opacity:1" id="path2225" d="M 20.066613,43.995235 C -2.3649478,39.337597 22.01761,28.990689 5.933433,24.107846"/></g><g id="g2227" transform="matrix(-1,0,0,0.7867469,48.13318,9.7363609)"><path style="fill:none;fill-opacity:.75;fill-rule:evenodd;stroke:#3465a4;stroke-width:4.13168907;stroke-linecap:round;stroke-linejoin:miter;stroke-miterlimit:4;stroke-dasharray:none;stroke-opacity:1" id="path2229" d="M 29.5,4.4449623 C 51.931561,9.0000613 27.549003,19.119182 43.63318,23.894528"/><path id="path2231" d="M 29.5,43.555038 C 51.931561,38.999938 27.549003,28.880819 43.63318,24.105472" style="fill:none;fill-opacity:.75;fill-rule:evenodd;stroke:#3465a4;stroke-width:4.13168907;stroke-linecap:round;stroke-linejoin:miter;stroke-miterlimit:4;stroke-dasharray:none;stroke-opacity:1"/></g></g><path style="fill:none;fill-opacity:.75;fill-rule:evenodd;stroke:#8f5902;stroke-width:5;stroke-linecap:round;stroke-linejoin:miter;stroke-miterlimit:4;stroke-dasharray:none;stroke-opacity:1" id="path2233" d="M 7.5991117,6.625 C 28.148931,5.1620599 23.154139,17.724976 24.205806,24.133344"/><path style="fill:#edd400;fill-opacity:1;fill-rule:evenodd;stroke:#8f5902;stroke-width:1.0000001pt;stroke-linecap:butt;stroke-linejoin:miter;stroke-opacity:1" id="path2190" d="M 18.625,22.467144 L 23.943121,33.375 L 29.363514,22.423858 L 18.625,22.467144 z"/><path id="path5131" d="M 7.5991117,6.625 C 28.148931,5.1620599 23.154139,17.724976 24.205806,24.133344" style="fill:none;fill-opacity:.75;fill-rule:evenodd;stroke:#edd400;stroke-width:3;stroke-linecap:round;stroke-linejoin:miter;stroke-miterlimit:4;stroke-dasharray:none;stroke-opacity:1"/></svg>