<svg xmlns="http://www.w3.org/2000/svg" xmlns:cc="http://web.resource.org/cc/" xmlns:svg="http://www.w3.org/2000/svg" xmlns:xlink="http://www.w3.org/1999/xlink" id="svg79606" width="24" height="24" version="1.0"><defs id="defs79608"><linearGradient id="linearGradient5783"><stop style="stop-color:#d3d7cf;stop-opacity:1" id="stop5785" offset="0"/><stop id="stop5791" offset=".5" style="stop-color:#f5f5f5;stop-opacity:1"/><stop style="stop-color:#bebebe;stop-opacity:1" id="stop5787" offset="1"/></linearGradient><linearGradient id="linearGradient3142" x1="17.964" x2="17.964" y1="4.125" y2="16.813" gradientUnits="userSpaceOnUse" xlink:href="#linearGradient5783"/></defs><metadata id="metadata79611"/><g id="layer1"><path style="fill:none;stroke:#555753;stroke-width:3;stroke-linecap:round;stroke-linejoin:round;stroke-miterlimit:4;stroke-dasharray:none" id="path7057" d="M 5.5030051,6.9824277 L 5.510376,18.005844 C 5.7552424,20.772381 7.8055119,21.532263 10.607916,21.511428 L 12.370667,21.498966 C 15.173804,21.477831 17.332483,20.88223 17.464003,17.916518 L 17.454656,6.001028 C 17.453179,4.0512853 15.530745,2.4712697 13.183233,2.4885073 C 10.835572,2.5058051 9.4970065,4.2921065 9.4992207,6.2415491 L 9.4992207,14.509066 C 9.5332402,15.787703 9.280004,17.731292 11.48817,17.86616 C 13.71817,17.677363 13.567861,15.744017 13.538231,14.288969 L 13.53486,10.272376"/><path id="path2164" d="M 5.5030051,6.9824277 L 5.510376,18.005844 C 5.7552424,20.772381 7.8055119,21.532263 10.607916,21.511428 L 12.370667,21.498966 C 15.173804,21.477831 17.332483,20.88223 17.464003,17.916518 L 17.454656,6.001028 C 17.453179,4.0512853 15.530745,2.4712697 13.183233,2.4885073 C 10.835572,2.5058051 9.4970065,4.2921065 9.4992207,6.2415491 L 9.4992207,14.509066 C 9.5332402,15.787703 9.280004,17.731292 11.48817,17.86616 C 13.71817,17.677363 13.567861,15.744017 13.538231,14.288969 L 13.53486,10.272376" style="fill:none;stroke:url(#linearGradient3142);stroke-width:1;stroke-linecap:round;stroke-linejoin:round;stroke-miterlimit:4;stroke-dasharray:none;fill-opacity:1"/></g></svg>