<svg xmlns="http://www.w3.org/2000/svg" xmlns:cc="http://web.resource.org/cc/" xmlns:svg="http://www.w3.org/2000/svg" xmlns:xlink="http://www.w3.org/1999/xlink" id="svg2164" width="16" height="16" version="1.0"><defs id="defs2166"><linearGradient id="linearGradient3129"><stop style="stop-color:#fffeff;stop-opacity:.90384614" id="stop3131" offset="0"/><stop style="stop-color:#fffeff;stop-opacity:0" id="stop3133" offset="1"/></linearGradient><radialGradient id="radialGradient3135" cx="24.087" cy="1.558" r="22.277" fx="24.087" fy="1.558" gradientTransform="matrix(-0.3533973,1.0834307e-3,-6.3575654e-4,-0.2736685,16.541876,5.7614351)" gradientUnits="userSpaceOnUse" xlink:href="#linearGradient3129"/><radialGradient id="radialGradient3160" cx="14.922" cy="1.087" r="1" fx="14.922" fy="1.087" gradientTransform="matrix(-1.1630174,-1.9012503e-2,3.3005326e-7,-2.2317035,25.340537,4.795445)" gradientUnits="userSpaceOnUse" xlink:href="#linearGradient3129"/></defs><metadata id="metadata2169"/><g id="layer2"><path style="opacity:1;fill:#8ae234;fill-opacity:1;fill-rule:nonzero;stroke:#396c08;stroke-width:1.00000012;stroke-linecap:square;stroke-linejoin:miter;stroke-miterlimit:4;stroke-dasharray:none;stroke-dashoffset:0;stroke-opacity:1" id="rect2165" d="M 7 1.5 L 7 7 L 1.5 7 L 1.5 9 L 7 9 L 7 14.5 L 9 14.5 L 9 9 L 14.5 9 L 14.5 7 L 9 7 L 9 1.5 L 7 1.5 z"/><rect id="rect3151" width="1" height="2" x="7.486" y="2" rx="0" ry="2.21" style="opacity:1;fill:url(#radialGradient3160);fill-opacity:1;fill-rule:nonzero;stroke:#396c08;stroke-width:0;stroke-linecap:square;stroke-linejoin:miter;stroke-miterlimit:4;stroke-dasharray:none;stroke-dashoffset:0;stroke-opacity:1"/></g><g id="layer1"><path style="opacity:1;fill:#8ae234;fill-opacity:1;fill-rule:nonzero;stroke:#396c08;stroke-width:5.276999;stroke-linecap:round;stroke-linejoin:round;stroke-miterlimit:4;stroke-dasharray:none;stroke-dashoffset:0;stroke-opacity:1" id="path1650" d="M 46.138718 23.42804 A 22.008699 21.213203 0 1 1 2.1213188,23.42804 A 22.008699 21.213203 0 1 1 46.138718 23.42804 z" transform="matrix(0.1821384,0,0,0.1889686,3.6049961,3.5728351)"/><path style="opacity:1;fill:none;fill-opacity:1;fill-rule:nonzero;stroke:#f0f3ec;stroke-width:6.59053278;stroke-linecap:round;stroke-linejoin:round;stroke-miterlimit:4;stroke-dasharray:none;stroke-dashoffset:0;stroke-opacity:.54986524" id="path3392" d="M 46.138718 23.42804 A 22.008699 21.213203 0 1 1 2.1213188,23.42804 A 22.008699 21.213203 0 1 1 46.138718 23.42804 z" transform="matrix(0.1379844,0,0,0.1431588,4.6704336,4.6460691)"/><path style="fill:url(#radialGradient3135);fill-opacity:1;fill-rule:nonzero;stroke:none;stroke-width:1;stroke-linecap:round;stroke-linejoin:round;stroke-miterlimit:4;stroke-dashoffset:0;stroke-opacity:1" id="path3068" d="M 11.540825,8.0004654 C 8.9958177,8.8625163 7.188361,8.7280557 4.5013336,7.9598585 C 4.6317776,5.6682634 6.5621718,4.5695957 7.9443017,4.5219282 C 9.3844481,4.4722598 11.517967,5.7525556 11.540825,8.0004654 z"/><rect style="opacity:1;fill:#8ae234;fill-opacity:1;fill-rule:nonzero;stroke:#396c08;stroke-width:0;stroke-linecap:square;stroke-linejoin:miter;stroke-miterlimit:4;stroke-dasharray:none;stroke-dashoffset:0;stroke-opacity:1" id="rect2168" width="1" height="1" x="3.516" y="7.5" rx="0" ry="2.21"/><rect id="rect3144" width="1" height="1" x="11.5" y="7.5" rx="0" ry="2.21" style="opacity:1;fill:#8ae234;fill-opacity:1;fill-rule:nonzero;stroke:#396c08;stroke-width:0;stroke-linecap:square;stroke-linejoin:miter;stroke-miterlimit:4;stroke-dasharray:none;stroke-dashoffset:0;stroke-opacity:1"/><rect id="rect3146" width="1" height="1" x="7.484" y="11.484" rx="0" ry="2.21" style="opacity:1;fill:#8ae234;fill-opacity:1;fill-rule:nonzero;stroke:#396c08;stroke-width:0;stroke-linecap:square;stroke-linejoin:miter;stroke-miterlimit:4;stroke-dasharray:none;stroke-dashoffset:0;stroke-opacity:1"/><rect id="rect3148" width="1" height="1" x="7.484" y="3.5" rx="0" ry="2.21" style="opacity:1;fill:#cffda0;fill-opacity:.92183286;fill-rule:nonzero;stroke:#396c08;stroke-width:0;stroke-linecap:square;stroke-linejoin:miter;stroke-miterlimit:4;stroke-dasharray:none;stroke-dashoffset:0;stroke-opacity:1"/></g></svg>