<svg xmlns="http://www.w3.org/2000/svg" xmlns:cc="http://web.resource.org/cc/" xmlns:svg="http://www.w3.org/2000/svg" xmlns:xlink="http://www.w3.org/1999/xlink" id="svg2" width="48" height="48" version="1.0"><metadata id="metadata7"/><defs id="defs5"><linearGradient id="linearGradient4477"><stop style="stop-color:#000;stop-opacity:1" id="stop4479" offset="0"/><stop style="stop-color:#000;stop-opacity:0" id="stop4481" offset="1"/></linearGradient><radialGradient id="radialGradient2365" cx="24.13" cy="37.968" r="16.529" fx="24.13" fy="37.968" gradientTransform="matrix(1,0,0,0.4426048,0,21.163147)" gradientUnits="userSpaceOnUse" xlink:href="#linearGradient4477"/><linearGradient id="linearGradient5985"><stop id="stop5987" offset="0" style="stop-color:#dce0d9;stop-opacity:1"/><stop id="stop5989" offset="1" style="stop-color:#888a85;stop-opacity:1"/></linearGradient><linearGradient id="linearGradient11070" x1="14.442" x2="13.06" y1="30.466" y2="35.623" gradientTransform="matrix(0.3380658,0,0,-5.5275696e-2,6.3688892,11.105441)" gradientUnits="userSpaceOnUse" xlink:href="#linearGradient2102"/><linearGradient id="linearGradient11066" x1="14.442" x2="13.06" y1="30.466" y2="35.623" gradientTransform="matrix(0.3380658,0,0,-8.8449194e-2,4.2863941,11.82435)" gradientUnits="userSpaceOnUse" xlink:href="#linearGradient2102"/><linearGradient id="linearGradient2102"><stop style="stop-color:#000;stop-opacity:1" id="stop2104" offset="0"/><stop style="stop-color:#000;stop-opacity:.83974361" id="stop2106" offset="1"/></linearGradient><linearGradient id="linearGradient2116" x1="14.442" x2="13.06" y1="30.466" y2="35.623" gradientTransform="matrix(0.3380658,0,0,-6.374823e-2,2.1132664,11.539546)" gradientUnits="userSpaceOnUse" xlink:href="#linearGradient2102"/><linearGradient id="linearGradient3068"><stop style="stop-color:#ccc;stop-opacity:1" id="stop3070" offset="0"/><stop id="stop3076" offset=".346" style="stop-color:#fff;stop-opacity:1"/><stop style="stop-color:#fff;stop-opacity:1" id="stop3078" offset=".725"/><stop style="stop-color:#cecece;stop-opacity:1" id="stop3072" offset="1"/></linearGradient><linearGradient id="linearGradient10077" x1="8.314" x2="19.89" y1="9.615" y2="9.615" gradientTransform="matrix(1.0574682,0,0,1,-5.2485661,-7.75347e-2)" gradientUnits="userSpaceOnUse" xlink:href="#linearGradient3068"/><linearGradient id="linearGradient2319"><stop style="stop-color:#f2d565;stop-opacity:1" id="stop2321" offset="0"/><stop style="stop-color:#f2d565;stop-opacity:0" id="stop2323" offset="1"/></linearGradient><linearGradient id="linearGradient9081" x1="46.118" x2="47.253" y1="1.023" y2="78.606" gradientUnits="userSpaceOnUse" xlink:href="#linearGradient2319"/><linearGradient id="linearGradient2291"><stop style="stop-color:#ffa107;stop-opacity:1" id="stop2293" offset="0"/><stop style="stop-color:#6b511c;stop-opacity:1" id="stop2295" offset="1"/></linearGradient><radialGradient id="radialGradient11074" cx="46.612" cy="39.193" r="19.688" fx="46.612" fy="39.193" gradientTransform="matrix(-1,0,0,-0.5830455,93.223137,57.284708)" gradientUnits="userSpaceOnUse" xlink:href="#linearGradient2291"/><linearGradient id="linearGradient8650"><stop id="stop8652" offset="0" style="stop-color:#fff;stop-opacity:1"/><stop id="stop8654" offset="1" style="stop-color:#fff;stop-opacity:0"/></linearGradient><radialGradient id="radialGradient2346" cx="27.524" cy="-4.831" r="17.171" fx="27.524" fy="-4.831" gradientTransform="matrix(0.6527956,-0.134968,-0.6544091,-1.0088161,-12.066844,13.91704)" gradientUnits="userSpaceOnUse" xlink:href="#linearGradient8650"/><radialGradient id="radialGradient2412" cx="25.003" cy="14.861" r="17.171" fx="25.003" fy="14.861" gradientTransform="matrix(0.402672,-0.3668821,-0.7248088,-0.4910705,-22.379852,16.8144)" gradientUnits="userSpaceOnUse" xlink:href="#linearGradient8650"/><radialGradient id="radialGradient4178" cx="29.914" cy="20.399" r="15.621" fx="29.914" fy="20.399" gradientTransform="matrix(0.8728977,2.3000389e-2,-2.4005818e-2,0.9110552,6.0631719,8.9129803)" gradientUnits="userSpaceOnUse" xlink:href="#linearGradient2291"/><linearGradient id="linearGradient6142" x1="30.282" x2="29.719" y1="10.476" y2="44.476" gradientTransform="matrix(0.8732007,0,0,0.8429766,5.5644235,8.8253972)" gradientUnits="userSpaceOnUse" xlink:href="#linearGradient2319"/><radialGradient id="radialGradient13671" cx="24.13" cy="37.968" r="16.529" fx="24.13" fy="37.968" gradientTransform="matrix(1,0,0,0.4426048,0,21.163147)" gradientUnits="userSpaceOnUse" xlink:href="#linearGradient4477"/><radialGradient id="radialGradient3207" cx="44.002" cy="14.296" r="44.144" fx="44.002" fy="14.296" gradientTransform="matrix(0.4424569,0.1287858,-5.8382208e-2,0.2226935,-4.8223264,-4.5435479)" gradientUnits="userSpaceOnUse" spreadMethod="pad" xlink:href="#linearGradient5985"/></defs><path style="fill:none;fill-opacity:.75;fill-rule:evenodd;stroke:#000;stroke-width:.25pt;stroke-linecap:butt;stroke-linejoin:miter;stroke-opacity:1" id="path2230" d="M -6.84375,-38.732787 L -6.84375,-38.732787 z"/><g id="layer2"><path style="fill:none;fill-opacity:.75;fill-rule:evenodd;stroke:#2e3436;stroke-width:2;stroke-linecap:round;stroke-linejoin:miter;stroke-miterlimit:4;stroke-dasharray:none;stroke-opacity:1" id="path3173" d="M 25.004282,42.161678 C 25.004282,44.032033 25.004282,44.032033 25.004282,44.032033"/><path id="path4144" d="M 28.00845,43.104136 C 28.00845,44.974492 28.00845,44.974492 28.00845,44.974492" style="fill:none;fill-opacity:.75;fill-rule:evenodd;stroke:#2e3436;stroke-width:2;stroke-linecap:round;stroke-linejoin:miter;stroke-miterlimit:4;stroke-dasharray:none;stroke-opacity:1"/><path style="fill:none;fill-opacity:.75;fill-rule:evenodd;stroke:#2e3436;stroke-width:2;stroke-linecap:round;stroke-linejoin:miter;stroke-miterlimit:4;stroke-dasharray:none;stroke-opacity:1" id="path4146" d="M 33.972722,43.148331 C 33.972722,45.018687 33.972722,45.018687 33.972722,45.018687"/><path id="path4148" d="M 37.054899,42.205872 C 37.054899,44.076227 37.054899,44.076227 37.054899,44.076227" style="fill:none;fill-opacity:.75;fill-rule:evenodd;stroke:#2e3436;stroke-width:2;stroke-linecap:round;stroke-linejoin:miter;stroke-miterlimit:4;stroke-dasharray:none;stroke-opacity:1"/><path id="path9067" d="M 39.573715,19.520663 C 37.05131,20.18802 34.74931,20.750003 34.54115,24.683894" style="fill:none;fill-opacity:.75;fill-rule:evenodd;stroke:#000;stroke-width:1;stroke-linecap:square;stroke-linejoin:miter;stroke-miterlimit:4;stroke-dasharray:none;stroke-opacity:1"/><path style="fill:none;fill-opacity:.75;fill-rule:evenodd;stroke:#000;stroke-width:1.00000012;stroke-linecap:butt;stroke-linejoin:miter;stroke-miterlimit:4;stroke-dasharray:none;stroke-opacity:1" id="path6144" d="M 23.733639,19.520663 C 26.118115,20.18802 28.294237,20.750003 28.491015,24.683894"/><path style="fill:#888a85;fill-opacity:1;fill-rule:nonzero;stroke:#2e3436;stroke-width:.99951172;stroke-linecap:square;stroke-linejoin:miter;stroke-miterlimit:4;stroke-dasharray:none;stroke-dashoffset:0;stroke-opacity:1" id="path7115" d="M 15.5625 12.28125 A 1.03125 0.96875 0 1 1 13.5,12.28125 A 1.03125 0.96875 0 1 1 15.5625 12.28125 z" transform="matrix(0.9696969,0,0,1.032258,9.4090919,6.8225815)"/><path style="fill:url(#radialGradient4178);fill-opacity:1;fill-rule:evenodd;stroke:#8f5902;stroke-width:1;stroke-linecap:butt;stroke-linejoin:miter;stroke-miterlimit:4;stroke-dasharray:none;stroke-opacity:1" id="path2231" d="M 22.207062,40.738166 C 16.123326,20.12052 27.53532,25.308935 32.296413,25.345132 C 36.567274,25.377602 46.517884,19.885886 39.784152,40.500176 C 34.439859,43.449947 27.901541,43.780082 22.207062,40.738166 z"/><path style="fill:#fffffb;fill-opacity:1;stroke:#555753;stroke-width:1;stroke-linecap:round;stroke-linejoin:round;stroke-miterlimit:4;stroke-dasharray:none;stroke-opacity:1" id="path7129" d="M 30.773573,31.07438 C 30.773573,32.47843 31.698311,32.829275 26.715183,33.007492 C 24.890544,33.007492 23.203,30.460641 23.203,29.05659 C 23.203,27.65254 27.085633,28.457067 28.910272,28.457067 C 30.73491,28.457067 30.773573,29.670328 30.773573,31.07438 z"/><path id="path3214" d="M 13.875 6.421875 A 0.71875 0.703125 0 1 1 12.4375,6.421875 A 0.71875 0.703125 0 1 1 13.875 6.421875 z" transform="matrix(-1.5186098,0,0,1.1989,45.210808,21.982942)" style="fill:#2e3436;fill-opacity:.92183287;fill-rule:nonzero;stroke:#5c3566;stroke-width:0;stroke-linecap:square;stroke-linejoin:miter;stroke-miterlimit:4;stroke-dasharray:none;stroke-dashoffset:0;stroke-opacity:1"/><path id="path4188" d="M 31.858755,31.07438 C 31.858755,32.47843 30.934017,32.829275 35.917145,33.007492 C 37.741784,33.007492 39.429327,30.460641 39.429327,29.05659 C 39.429327,27.65254 35.546695,28.457067 33.722056,28.457067 C 31.897418,28.457067 31.858755,29.670328 31.858755,31.07438 z" style="fill:#fffffb;fill-opacity:1;stroke:#555753;stroke-width:1;stroke-linecap:round;stroke-linejoin:round;stroke-miterlimit:4;stroke-dasharray:none;stroke-opacity:1"/><path id="path4196" d="M 23.057737,39.997662 C 17.799792,21.586978 27.260768,26.247147 32.293237,26.174289 C 36.268686,26.116734 45.123289,21.280962 38.854798,39.797474 C 33.879749,42.447066 28.358779,42.730022 23.057737,39.997662 z" style="fill:none;fill-opacity:1;fill-rule:evenodd;stroke:url(#linearGradient6142);stroke-width:.99999994;stroke-linecap:butt;stroke-linejoin:miter;stroke-miterlimit:4;stroke-dasharray:none;stroke-opacity:1"/><path style="fill:#2e3436;fill-opacity:.92183287;fill-rule:nonzero;stroke:#5c3566;stroke-width:0;stroke-linecap:square;stroke-linejoin:miter;stroke-miterlimit:4;stroke-dasharray:none;stroke-dashoffset:0;stroke-opacity:1" id="path9059" d="M 13.875 6.421875 A 0.71875 0.703125 0 1 1 12.4375,6.421875 A 0.71875 0.703125 0 1 1 13.875 6.421875 z" transform="matrix(-1.5186098,0,0,1.1989,54.390097,22.159719)"/><path id="path13677" d="M 15.5625 12.28125 A 1.03125 0.96875 0 1 1 13.5,12.28125 A 1.03125 0.96875 0 1 1 15.5625 12.28125 z" transform="matrix(0.9696969,0,0,1.032258,25.409092,6.8225815)" style="fill:#888a85;fill-opacity:1;fill-rule:nonzero;stroke:#2e3436;stroke-width:.99951172;stroke-linecap:square;stroke-linejoin:miter;stroke-miterlimit:4;stroke-dasharray:none;stroke-dashoffset:0;stroke-opacity:1"/><path style="opacity:.9;fill:#fff;fill-opacity:1;fill-rule:nonzero;stroke:#a40000;stroke-width:1.11797142;stroke-linecap:square;stroke-linejoin:miter;stroke-miterlimit:4;stroke-dasharray:none;stroke-dashoffset:0;stroke-opacity:1" id="path2227" d="M 34.9375 38.125 A 3.03125 2.875 0 1 1 28.875,38.125 A 3.03125 2.875 0 1 1 34.9375 38.125 z" transform="matrix(0.7216495,0,0,1.1086957,8.2248711,-5.6440216)"/></g><g id="layer1"><path id="path4475" d="M 40.65864 37.967922 A 16.528622 3.9332814 0 1 1 7.6013966,37.967922 A 16.528622 3.9332814 0 1 1 40.65864 37.967922 z" transform="matrix(0.8772661,0,0,0.7021717,11.363723,17.602247)" style="opacity:.17112301;color:#000;fill:url(#radialGradient2365);fill-opacity:1;fill-rule:evenodd;stroke:none;stroke-width:1;stroke-linecap:round;stroke-linejoin:miter;marker:none;marker-start:none;marker-mid:none;marker-end:none;stroke-miterlimit:10;stroke-dasharray:none;stroke-dashoffset:0;stroke-opacity:1;visibility:visible;display:inline;overflow:visible"/><path style="fill:#c17d11;fill-opacity:1;fill-rule:nonzero;stroke:#8f5902;stroke-width:1.00000155;stroke-linecap:square;stroke-linejoin:round;stroke-miterlimit:4;stroke-dasharray:none;stroke-dashoffset:0;stroke-opacity:1;overflow:visible" id="rect1291" d="M 14.71504,2.1914871 L 10.651253,15.596121 C 6.6932666,24.842522 5.4569567,28.265214 2.1090528,38.119209 L 0.50000077,40.08201 L 6.6888702,42.649048 L 6.734354,39.93581 C 9.5252779,31.07545 11.588621,26.508281 14.088512,17.187939 L 19.157722,3.7618866 L 14.71504,2.1914871 z"/><path style="opacity:.65667575;fill:#f6f4f2;fill-opacity:.53697749;fill-rule:nonzero;stroke:none;stroke-width:5;stroke-linecap:square;stroke-linejoin:round;stroke-miterlimit:4;stroke-dashoffset:0;stroke-opacity:1;overflow:visible" id="path4332" d="M 16.532814,3.4905752 L 3.4526621,40.814325 L 1.3214589,39.793603 L 2.5080309,38.402633 C 2.5080309,38.402633 7.4514234,23.464305 10.926928,16.127696 L 14.889568,2.8932974 L 16.532814,3.4905752 z"/><path style="opacity:.17112301;color:#000;fill:url(#radialGradient13671);fill-opacity:1;fill-rule:evenodd;stroke:none;stroke-width:1;stroke-linecap:round;stroke-linejoin:miter;marker:none;marker-start:none;marker-mid:none;marker-end:none;stroke-miterlimit:10;stroke-dasharray:none;stroke-dashoffset:0;stroke-opacity:1;visibility:visible;display:inline;overflow:visible" id="path13669" d="M 40.65864 37.967922 A 16.528622 3.9332814 0 1 1 7.6013966,37.967922 A 16.528622 3.9332814 0 1 1 40.65864 37.967922 z" transform="matrix(0.6503869,0,0,0.7021717,-4.9438484,17.34)"/><g id="g3202" transform="matrix(1.000984,-5.191344e-2,-0.1606296,1.0478575,0.8691309,0.4487443)"><path id="rect2053" d="M 25.951354,7.1368614 L 10.404031,1.8166775 L 7.6699564,0.53829433 C 6.5845836,1.8947959 5.6911793,7.4125532 5.3805856,8.3175436 L 7.2735284,10.531575 L 23.019902,16.027941 C 24.775892,14.320904 26.071311,9.5947788 25.951354,7.1368614 z" style="fill:url(#radialGradient3207);fill-opacity:1;fill-rule:nonzero;stroke:#555753;stroke-width:.98032349;stroke-linecap:square;stroke-linejoin:round;stroke-miterlimit:4;stroke-dasharray:none;stroke-dashoffset:0;stroke-opacity:1;overflow:visible"/><path style="fill:none;fill-opacity:1;fill-rule:nonzero;stroke:#fff;stroke-width:.98032349;stroke-linecap:square;stroke-linejoin:round;stroke-miterlimit:4;stroke-dasharray:none;stroke-dashoffset:0;stroke-opacity:.53638814;overflow:visible" id="path2225" d="M 24.979081,7.989459 L 10.404031,3.461283 L 8.1118981,2.1292846 C 7.0265253,3.2613092 6.8402278,7.3356452 6.5296341,8.090876 L 8.0690235,9.7617476 L 22.754736,14.790504 C 24.510726,13.365951 25.099038,10.040635 24.979081,7.989459 z"/><path id="path3200" d="M 10.429825,4.0709911 C 9.0156115,9.1975153 9.0156115,9.1975153 9.0156115,9.1975153" style="fill:none;fill-opacity:.75;fill-rule:evenodd;stroke:#d3d7cf;stroke-width:.98032165;stroke-linecap:round;stroke-linejoin:miter;stroke-miterlimit:4;stroke-dasharray:none;stroke-opacity:1"/></g></g></svg>