<svg xmlns="http://www.w3.org/2000/svg" xmlns:cc="http://web.resource.org/cc/" xmlns:svg="http://www.w3.org/2000/svg" xmlns:xlink="http://www.w3.org/1999/xlink" id="svg2168" width="24" height="24" version="1.0"><defs id="defs2170"><linearGradient id="linearGradient8650"><stop id="stop8652" offset="0" style="stop-color:#fff;stop-opacity:1"/><stop id="stop8654" offset="1" style="stop-color:#fff;stop-opacity:0"/></linearGradient><radialGradient id="radialGradient2669" cx="17.421" cy="8.21" r="17.171" fx="17.421" fy="8.21" gradientTransform="matrix(0.2936405,0.1109764,-6.9704362e-2,-0.2160035,1.5725205,14.888518)" gradientUnits="userSpaceOnUse" xlink:href="#linearGradient8650"/><radialGradient id="radialGradient2678" cx="55" cy="125" r="14.375" fx="55" fy="125" gradientTransform="matrix(-1.1340151,-1.193205e-6,-7.9650437e-8,-1.1992054,117.37084,274.90072)" gradientUnits="userSpaceOnUse" xlink:href="#linearGradient12512"/><radialGradient id="radialGradient2450" cx="19.951" cy="9.698" r="21.25" fx="19.951" fy="9.698" gradientTransform="matrix(-0.619452,6.1859922e-8,-4.1899086e-8,-0.417985,34.283915,5.7483147)" gradientUnits="userSpaceOnUse" xlink:href="#linearGradient2248"/><linearGradient id="linearGradient2448" x1="23.19" x2="25.799" y1="11.71" y2="39.433" gradientTransform="matrix(0.5100713,0,0,0.5068401,9.0782589,8.716036e-2)" gradientUnits="userSpaceOnUse" xlink:href="#linearGradient11780"/><linearGradient id="linearGradient12512"><stop id="stop12513" offset="0" style="stop-color:#fff;stop-opacity:1"/><stop id="stop12517" offset=".5" style="stop-color:#fff520;stop-opacity:.89108908"/><stop id="stop12514" offset="1" style="stop-color:#fff300;stop-opacity:0"/></linearGradient><linearGradient id="linearGradient2248"><stop style="stop-color:#fff;stop-opacity:1" id="stop2250" offset="0"/><stop style="stop-color:#fff;stop-opacity:.39215687" id="stop2252" offset="1"/></linearGradient><linearGradient id="linearGradient11780"><stop style="stop-color:#ff8b8b;stop-opacity:1" id="stop11782" offset="0"/><stop style="stop-color:#ec1b1b;stop-opacity:1" id="stop11784" offset="1"/></linearGradient></defs><metadata id="metadata2173"/><g id="layer1"><path style="fill:url(#linearGradient2448);fill-opacity:1;fill-rule:evenodd;stroke:#a40000;stroke-width:1.00000012;stroke-linecap:butt;stroke-linejoin:miter;stroke-miterlimit:4;stroke-dasharray:none;stroke-opacity:1" id="path9480" d="M 10.196447,0.50715616 L 13.734227,0.50000006 L 18.5,5.2359233 L 18.5,8.734562 L 13.676774,13.487717 L 10.196447,13.5 L 5.500001,8.734562 L 5.500001,5.2359233 L 10.196447,0.50715616 z"/><path style="opacity:.81318683;fill:none;fill-opacity:1;fill-rule:evenodd;stroke:#fff;stroke-width:1.00000036;stroke-linecap:butt;stroke-linejoin:miter;stroke-miterlimit:4;stroke-opacity:.8243243" id="path9482" d="M 10.555333,1.4711771 L 13.321386,1.4803214 L 17.539583,5.603915 L 17.477083,8.3400761 L 13.260456,12.448092 L 10.537027,12.448092 L 6.4916676,8.3400761 L 6.5175559,5.5597626 L 10.555333,1.4711771 z"/><path style="opacity:.56948224;fill:url(#radialGradient2450);fill-opacity:1;fill-rule:evenodd;stroke:none;stroke-width:1;stroke-linecap:butt;stroke-linejoin:miter;stroke-miterlimit:4;stroke-dasharray:none;stroke-opacity:1" id="path2241" d="M 10.285452,1.0168097 L 5.9645846,5.4350851 L 6.0252207,8.2733582 C 10.077381,8.2798028 13.298224,4.9887689 18.004209,5.4422002 L 13.484294,1.073894 L 10.285452,1.0168097 z"/></g><g id="layer2"><path style="color:#000;fill:#4e9a06;fill-opacity:1;fill-rule:evenodd;stroke:#4e9a06;stroke-width:1.00000024;stroke-linecap:round;stroke-linejoin:round;marker:none;marker-start:none;marker-mid:none;marker-end:none;stroke-miterlimit:10;stroke-dasharray:none;stroke-dashoffset:0;stroke-opacity:1;visibility:visible;display:inline;overflow:visible" id="path18242" d="M 20.5,21.35583 L 18.708004,21.393519 L 18.708004,23.499997 L 13.292536,23.499997 L 13.292536,21.374675 L 11.5,21.35583 L 16.122707,13.499999 L 20.5,21.35583 z"/><path style="opacity:.48128339;color:#000;fill:#4e9a06;fill-opacity:1;fill-rule:evenodd;stroke:#fff;stroke-width:1.00000024;stroke-linecap:butt;stroke-linejoin:miter;marker:none;marker-start:none;marker-mid:none;marker-end:none;stroke-miterlimit:10;stroke-dasharray:none;stroke-dashoffset:0;stroke-opacity:1;visibility:visible;display:inline;overflow:visible" id="path8658" d="M 17.841571,22.630432 L 14.175195,22.614924 L 14.186736,20.807229 L 12.897616,20.807229 L 16.117747,15.257296 L 19.075904,20.795763 L 17.844372,20.807229 L 17.841571,22.630432 z"/><path style="color:#000;fill:url(#radialGradient2678);fill-opacity:1;fill-rule:nonzero;stroke:none;stroke-width:1.25000024;stroke-linecap:butt;stroke-linejoin:round;marker:none;marker-start:none;marker-mid:none;marker-end:none;stroke-miterlimit:4;stroke-dashoffset:0;stroke-opacity:1;visibility:visible;display:block" id="path12511" d="M 69.375 125 A 14.375 14.375 0 1 1 40.625,125 A 14.375 14.375 0 1 1 69.375 125 z" transform="matrix(0.2608695,0,0,0.3055635,1.4021766,-19.587914)"/><path id="path2579" d="M 11.5,15.644167 L 9.708003,15.606477 L 9.708003,13.499999 L 4.2925353,13.499999 L 4.2925353,15.625322 L 2.5000001,15.644167 L 7.122706,23.5 L 11.5,15.644167 z" style="color:#000;fill:#4e9a06;fill-opacity:1;fill-rule:evenodd;stroke:#4e9a06;stroke-width:1.00000024;stroke-linecap:round;stroke-linejoin:round;marker:none;marker-start:none;marker-mid:none;marker-end:none;stroke-miterlimit:10;stroke-dasharray:none;stroke-dashoffset:0;stroke-opacity:1;visibility:visible;display:inline;overflow:visible"/><path id="path2581" d="M 8.843294,14.333332 L 5.1820434,14.349107 L 5.193568,16.187907 L 3.9062497,16.187907 L 7.121879,21.833333 L 10.075904,16.199569 L 8.846091,16.187907 L 8.843294,14.333332 z" style="opacity:.48128339;color:#000;fill:#4e9a06;fill-opacity:1;fill-rule:evenodd;stroke:#fff;stroke-width:1.00000024;stroke-linecap:butt;stroke-linejoin:miter;marker:none;marker-start:none;marker-mid:none;marker-end:none;stroke-miterlimit:10;stroke-dasharray:none;stroke-dashoffset:0;stroke-opacity:1;visibility:visible;display:inline;overflow:visible"/><path style="opacity:.5080214;color:#000;fill:url(#radialGradient2669);fill-opacity:1;fill-rule:evenodd;stroke:none;stroke-width:1;stroke-linecap:round;stroke-linejoin:round;marker:none;marker-start:none;marker-mid:none;marker-end:none;stroke-miterlimit:10;stroke-dasharray:none;stroke-dashoffset:0;stroke-opacity:1;visibility:visible;display:inline;overflow:visible" id="path2563" d="M 9.000736,18.836755 C 7.82045,17.286558 5.1291374,18.555864 3.7965769,16.59884 L 4.5832474,16.522785 L 4.5744225,14.123763 L 9.362994,14.171573 L 9.360851,16.578923 L 10.493361,16.661853 L 9.000736,18.836755 z"/></g></svg>