<svg xmlns="http://www.w3.org/2000/svg" xmlns:cc="http://web.resource.org/cc/" xmlns:svg="http://www.w3.org/2000/svg" id="svg2" width="24" height="24" version="1.0"><metadata id="metadata7"/><path style="fill:none;fill-opacity:.75;fill-rule:evenodd;stroke:#000;stroke-width:.25pt;stroke-linecap:butt;stroke-linejoin:miter;stroke-opacity:1" id="path2230" d="M 6.0102691,5.1892812 L 6.0102691,5.1892812 z"/><g id="layer3"><g id="g4149" transform="matrix(-1.0011418,0,0,0.8271385,23.043931,3.574338)"><g id="g3164" transform="matrix(0.8733,0,0,1.1268723,3.692803,-1.4928979)"><path style="fill:none;fill-opacity:.75;fill-rule:evenodd;stroke:#204a87;stroke-width:3.3232677;stroke-linecap:round;stroke-linejoin:miter;stroke-miterlimit:4;stroke-dasharray:none;stroke-opacity:1" id="path2234" d="M 13.499999,4.4475195 C 24.468689,6.2006621 12.545992,10.095256 20.410908,11.933166"/><path id="path5154" d="M 13.499999,19.5 C 24.468689,17.746857 12.545992,13.852264 20.410908,12.014353" style="fill:none;fill-opacity:.75;fill-rule:evenodd;stroke:#204a87;stroke-width:3.3232677;stroke-linecap:round;stroke-linejoin:miter;stroke-miterlimit:4;stroke-dasharray:none;stroke-opacity:1"/></g><g id="g4145"><path id="path3170" d="M 15.482352,3.5188886 C 25.061309,5.4944565 14.649218,9.8831664 21.517649,11.954256" style="fill:none;fill-opacity:.75;fill-rule:evenodd;stroke:#729fcf;stroke-width:1.09891236;stroke-linecap:round;stroke-linejoin:miter;stroke-miterlimit:4;stroke-dasharray:none;stroke-opacity:1"/><path style="fill:none;fill-opacity:.75;fill-rule:evenodd;stroke:#729fcf;stroke-width:1.09891236;stroke-linecap:round;stroke-linejoin:miter;stroke-miterlimit:4;stroke-dasharray:none;stroke-opacity:1" id="path3172" d="M 15.482352,20.481112 C 25.061309,18.505544 14.649218,14.116835 21.517649,12.045744"/></g></g><g id="g2206" transform="matrix(1.0011418,0,0,0.8271385,-4.0439309,3.574338)"><g id="g2208" transform="matrix(0.8733,0,0,1.1268723,3.692803,-1.4928979)"><path id="path2210" d="M 13.499999,4.4475195 C 24.468689,6.2006621 12.545992,10.095256 20.410908,11.933166" style="fill:none;fill-opacity:.75;fill-rule:evenodd;stroke:#204a87;stroke-width:3.3232677;stroke-linecap:round;stroke-linejoin:miter;stroke-miterlimit:4;stroke-dasharray:none;stroke-opacity:1"/><path style="fill:none;fill-opacity:.75;fill-rule:evenodd;stroke:#204a87;stroke-width:3.3232677;stroke-linecap:round;stroke-linejoin:miter;stroke-miterlimit:4;stroke-dasharray:none;stroke-opacity:1" id="path2212" d="M 13.499999,19.5 C 24.468689,17.746857 12.545992,13.852264 20.410908,12.014353"/></g><g id="g2214"><path style="fill:none;fill-opacity:.75;fill-rule:evenodd;stroke:#729fcf;stroke-width:1.09891236;stroke-linecap:round;stroke-linejoin:miter;stroke-miterlimit:4;stroke-dasharray:none;stroke-opacity:1" id="path2216" d="M 15.482352,3.5188886 C 25.061309,5.4944565 14.649218,9.8831664 21.517649,11.954256"/><path id="path2218" d="M 15.482352,20.481112 C 25.061309,18.505544 14.649218,14.116835 21.517649,12.045744" style="fill:none;fill-opacity:.75;fill-rule:evenodd;stroke:#729fcf;stroke-width:1.09891236;stroke-linecap:round;stroke-linejoin:miter;stroke-miterlimit:4;stroke-dasharray:none;stroke-opacity:1"/></g></g></g><g id="layer1"><path style="fill:none;fill-opacity:.75;fill-rule:evenodd;stroke:#8f5902;stroke-width:3;stroke-linecap:round;stroke-linejoin:miter;stroke-miterlimit:4;stroke-dasharray:none;stroke-opacity:1" id="path2233" d="M 2.5719216,2.480663 C 17.660687,2.2055379 20.228905,3.1039545 19.846685,9.7943518"/><path style="fill:#edd400;fill-opacity:1;fill-rule:evenodd;stroke:#8f5902;stroke-width:1.0000001pt;stroke-linecap:butt;stroke-linejoin:miter;stroke-opacity:1" id="path2190" d="M 16.640612,9.274557 L 19.989047,16.198223 L 23.401874,9.247081 L 16.640612,9.274557 z"/><path id="path2177" d="M 2.5719216,2.480663 C 17.660687,2.2055379 20.228905,3.1039545 19.846685,9.7943518" style="fill:none;fill-opacity:.75;fill-rule:evenodd;stroke:#edd400;stroke-width:1;stroke-linecap:round;stroke-linejoin:miter;stroke-miterlimit:4;stroke-dasharray:none;stroke-opacity:1"/></g><path style="fill:none;fill-opacity:.75;fill-rule:evenodd;stroke:#000;stroke-width:.25pt;stroke-linecap:butt;stroke-linejoin:miter;stroke-opacity:1" id="path2189" d="M 42.122911,5.15625 L 42.122911,5.15625 z"/></svg>