<svg xmlns="http://www.w3.org/2000/svg" xmlns:cc="http://web.resource.org/cc/" xmlns:svg="http://www.w3.org/2000/svg" xmlns:xlink="http://www.w3.org/1999/xlink" id="svg2" width="48" height="48" version="1.0"><metadata id="metadata7"/><defs id="defs5"><radialGradient id="radialGradient6719" cx="605.714" cy="486.648" r="117.143" fx="605.714" fy="486.648" gradientTransform="matrix(-2.774389,0,0,1.969706,112.7623,-872.8854)" gradientUnits="userSpaceOnUse" xlink:href="#linearGradient5060"/><linearGradient id="linearGradient5060"><stop style="stop-color:black;stop-opacity:1" id="stop5062" offset="0"/><stop style="stop-color:black;stop-opacity:0" id="stop5064" offset="1"/></linearGradient><radialGradient id="radialGradient6717" cx="605.714" cy="486.648" r="117.143" fx="605.714" fy="486.648" gradientTransform="matrix(2.774389,0,0,1.969706,-1891.633,-872.8854)" gradientUnits="userSpaceOnUse" xlink:href="#linearGradient5060"/><linearGradient id="linearGradient6715" x1="302.857" x2="302.857" y1="366.648" y2="609.505" gradientTransform="matrix(2.774389,0,0,1.969706,-1892.179,-872.8854)" gradientUnits="userSpaceOnUse" xlink:href="#linearGradient5048"/><linearGradient id="linearGradient3549" x1="44.003" x2="86.899" y1="50.421" y2="65.494" gradientTransform="matrix(0.7377941,2.267057e-8,-3.5004896e-8,0.6932929,-8.4522068,-44.082408)" gradientUnits="userSpaceOnUse" xlink:href="#linearGradient3152"/><linearGradient id="linearGradient15662"><stop id="stop15664" offset="0" style="stop-color:#fff;stop-opacity:1"/><stop id="stop15666" offset="1" style="stop-color:#f8f8f8;stop-opacity:1"/></linearGradient><radialGradient id="radialGradient15668" cx="8.144" cy="7.268" r="38.159" fx="8.144" fy="7.268" gradientTransform="matrix(1.004436,0,0,1.0341889,3.0264351,1.5570805)" gradientUnits="userSpaceOnUse" xlink:href="#linearGradient15662"/><linearGradient id="linearGradient259"><stop id="stop260" offset="0" style="stop-color:#fafafa;stop-opacity:1"/><stop id="stop261" offset="1" style="stop-color:#d5d5d5;stop-opacity:1"/></linearGradient><radialGradient id="radialGradient15658" cx="33.967" cy="35.737" r="86.708" fx="33.967" fy="35.737" gradientTransform="matrix(0.9914766,0,0,1.0431551,-0.3165713,0.8464695)" gradientUnits="userSpaceOnUse" xlink:href="#linearGradient259"/><linearGradient id="linearGradient9766"><stop style="stop-color:#6194cb;stop-opacity:1" id="stop9768" offset="0"/><stop style="stop-color:#729fcf;stop-opacity:1" id="stop9770" offset="1"/></linearGradient><linearGradient id="linearGradient3983"><stop style="stop-color:#fff;stop-opacity:.87628865" id="stop3984" offset="0"/><stop style="stop-color:#fffffe;stop-opacity:0" id="stop3985" offset="1"/></linearGradient><linearGradient id="linearGradient3096"><stop id="stop3098" offset="0" style="stop-color:#424242;stop-opacity:1"/><stop id="stop3100" offset="1" style="stop-color:#777;stop-opacity:1"/></linearGradient><linearGradient id="linearGradient1789"><stop style="stop-color:#202020;stop-opacity:1" id="stop1790" offset="0"/><stop style="stop-color:#b9b9b9;stop-opacity:1" id="stop1791" offset="1"/></linearGradient><linearGradient id="linearGradient5048"><stop style="stop-color:black;stop-opacity:0" id="stop5050" offset="0"/><stop id="stop5056" offset=".5" style="stop-color:black;stop-opacity:1"/><stop style="stop-color:black;stop-opacity:0" id="stop5052" offset="1"/></linearGradient><linearGradient id="linearGradient3188"><stop id="stop3190" offset="0" style="stop-color:#fcded5;stop-opacity:1"/><stop id="stop3192" offset="1" style="stop-color:#8a1c00;stop-opacity:1"/></linearGradient><linearGradient id="linearGradient3152"><stop style="stop-color:#e9b2a2;stop-opacity:1" id="stop3154" offset="0"/><stop style="stop-color:#e48f79;stop-opacity:1" id="stop3156" offset="1"/></linearGradient><linearGradient id="linearGradient4081" x1="60.849" x2="60.849" y1="49.083" y2="65.083" gradientTransform="matrix(0.8664384,0,0,0.8664384,-43.801699,-16.713127)" gradientUnits="userSpaceOnUse" xlink:href="#linearGradient3152"/><linearGradient id="linearGradient4083" x1="22.941" x2="21.733" y1="63.487" y2="52.057" gradientUnits="userSpaceOnUse" xlink:href="#linearGradient3188"/><linearGradient id="linearGradient4085" x1="22.941" x2="21.733" y1="63.487" y2="52.057" gradientUnits="userSpaceOnUse" xlink:href="#linearGradient3188"/><linearGradient id="linearGradient4087" x1="22.941" x2="21.733" y1="63.487" y2="52.057" gradientUnits="userSpaceOnUse" xlink:href="#linearGradient3188"/><linearGradient id="linearGradient4089" x1="22.941" x2="21.733" y1="63.487" y2="52.057" gradientUnits="userSpaceOnUse" xlink:href="#linearGradient3188"/><linearGradient id="linearGradient4091" x1="22.941" x2="21.733" y1="63.487" y2="52.057" gradientUnits="userSpaceOnUse" xlink:href="#linearGradient3188"/><linearGradient id="linearGradient4093" x1="22.941" x2="21.733" y1="63.487" y2="52.057" gradientUnits="userSpaceOnUse" xlink:href="#linearGradient3188"/><linearGradient id="linearGradient4095" x1="22.941" x2="21.733" y1="63.487" y2="52.057" gradientUnits="userSpaceOnUse" xlink:href="#linearGradient3188"/><linearGradient id="linearGradient4097" x1="31.77" x2="81.402" y1="57.083" y2="57.083" gradientTransform="matrix(0.8664384,0,0,0.8664384,-19.972995,-58.378782)" gradientUnits="userSpaceOnUse" xlink:href="#linearGradient3152"/><linearGradient id="linearGradient4099" x1="22.941" x2="21.733" y1="63.487" y2="52.057" gradientUnits="userSpaceOnUse" xlink:href="#linearGradient3188"/><linearGradient id="linearGradient4101" x1="22.941" x2="21.733" y1="63.487" y2="52.057" gradientUnits="userSpaceOnUse" xlink:href="#linearGradient3188"/><linearGradient id="linearGradient4103" x1="22.941" x2="21.733" y1="63.487" y2="52.057" gradientUnits="userSpaceOnUse" xlink:href="#linearGradient3188"/><linearGradient id="linearGradient4105" x1="22.941" x2="21.733" y1="63.487" y2="52.057" gradientUnits="userSpaceOnUse" xlink:href="#linearGradient3188"/><linearGradient id="linearGradient4107" x1="22.941" x2="21.733" y1="63.487" y2="52.057" gradientUnits="userSpaceOnUse" xlink:href="#linearGradient3188"/><linearGradient id="linearGradient4109" x1="22.941" x2="21.733" y1="63.487" y2="52.057" gradientUnits="userSpaceOnUse" xlink:href="#linearGradient3188"/><linearGradient id="linearGradient4111" x1="22.941" x2="21.733" y1="63.487" y2="52.057" gradientUnits="userSpaceOnUse" xlink:href="#linearGradient3188"/><linearGradient id="linearGradient4113" x1="22.941" x2="21.733" y1="63.487" y2="52.057" gradientUnits="userSpaceOnUse" xlink:href="#linearGradient3188"/><linearGradient id="linearGradient4115" x1="22.941" x2="21.733" y1="63.487" y2="52.057" gradientUnits="userSpaceOnUse" xlink:href="#linearGradient3188"/><linearGradient id="linearGradient4117" x1="22.941" x2="21.733" y1="63.487" y2="52.057" gradientUnits="userSpaceOnUse" xlink:href="#linearGradient3188"/><linearGradient id="linearGradient4119" x1="22.941" x2="21.733" y1="63.487" y2="52.057" gradientUnits="userSpaceOnUse" xlink:href="#linearGradient3188"/><linearGradient id="linearGradient4121" x1="22.941" x2="21.733" y1="63.487" y2="52.057" gradientUnits="userSpaceOnUse" xlink:href="#linearGradient3188"/><linearGradient id="linearGradient4123" x1="22.941" x2="21.733" y1="63.487" y2="52.057" gradientUnits="userSpaceOnUse" xlink:href="#linearGradient3188"/><linearGradient id="linearGradient4125" x1="22.941" x2="21.733" y1="63.487" y2="52.057" gradientUnits="userSpaceOnUse" xlink:href="#linearGradient3188"/><linearGradient id="linearGradient4127" x1="22.941" x2="21.733" y1="63.487" y2="52.057" gradientUnits="userSpaceOnUse" xlink:href="#linearGradient3188"/><linearGradient id="linearGradient4129" x1="22.941" x2="21.733" y1="63.487" y2="52.057" gradientUnits="userSpaceOnUse" xlink:href="#linearGradient3188"/><linearGradient id="linearGradient4131" x1="22.941" x2="21.733" y1="63.487" y2="52.057" gradientUnits="userSpaceOnUse" xlink:href="#linearGradient3188"/><linearGradient id="linearGradient4133" x1="22.941" x2="21.733" y1="63.487" y2="52.057" gradientUnits="userSpaceOnUse" xlink:href="#linearGradient3188"/><linearGradient id="linearGradient4135" x1="22.941" x2="21.733" y1="63.487" y2="52.057" gradientUnits="userSpaceOnUse" xlink:href="#linearGradient3188"/><linearGradient id="linearGradient4137" x1="22.941" x2="21.733" y1="63.487" y2="52.057" gradientUnits="userSpaceOnUse" xlink:href="#linearGradient3188"/><linearGradient id="linearGradient4139" x1="22.941" x2="21.733" y1="63.487" y2="52.057" gradientUnits="userSpaceOnUse" xlink:href="#linearGradient3188"/><linearGradient id="linearGradient4141" x1="22.941" x2="21.733" y1="63.487" y2="52.057" gradientUnits="userSpaceOnUse" xlink:href="#linearGradient3188"/><linearGradient id="linearGradient4143" x1="22.941" x2="21.733" y1="63.487" y2="52.057" gradientUnits="userSpaceOnUse" xlink:href="#linearGradient3188"/><linearGradient id="linearGradient4145" x1="22.941" x2="21.733" y1="63.487" y2="52.057" gradientUnits="userSpaceOnUse" xlink:href="#linearGradient3188"/><linearGradient id="linearGradient4147" x1="22.941" x2="21.733" y1="63.487" y2="52.057" gradientUnits="userSpaceOnUse" xlink:href="#linearGradient3188"/><linearGradient id="linearGradient4149" x1="22.941" x2="21.733" y1="63.487" y2="52.057" gradientUnits="userSpaceOnUse" xlink:href="#linearGradient3188"/><linearGradient id="linearGradient4151" x1="22.941" x2="21.733" y1="63.487" y2="52.057" gradientUnits="userSpaceOnUse" xlink:href="#linearGradient3188"/><linearGradient id="linearGradient4153" x1="22.941" x2="21.733" y1="63.487" y2="52.057" gradientUnits="userSpaceOnUse" xlink:href="#linearGradient3188"/><linearGradient id="linearGradient4155" x1="22.941" x2="21.733" y1="63.487" y2="52.057" gradientUnits="userSpaceOnUse" xlink:href="#linearGradient3188"/><linearGradient id="linearGradient4157" x1="22.941" x2="21.733" y1="63.487" y2="52.057" gradientUnits="userSpaceOnUse" xlink:href="#linearGradient3188"/><linearGradient id="linearGradient2326" x1="31.77" x2="81.402" y1="57.083" y2="57.083" gradientTransform="matrix(0.7049317,0,0,0.7161138,-6.2455958,-47.261198)" gradientUnits="userSpaceOnUse" xlink:href="#linearGradient3152"/><linearGradient id="linearGradient2337" x1="77.833" x2="61.985" y1="28.414" y2="63.046" gradientTransform="matrix(0.7161138,2.2004388e-8,0,0.7049318,-50.173582,10.753477)" gradientUnits="userSpaceOnUse" xlink:href="#linearGradient3152"/></defs><g id="layer1"><g style="display:inline" id="g6707" transform="matrix(1.926928e-2,0,0,1.1497685e-2,42.076282,44.607665)"><rect style="opacity:.40206185;color:#000;fill:url(#linearGradient6715);fill-opacity:1;fill-rule:nonzero;stroke:none;stroke-width:1;stroke-linecap:round;stroke-linejoin:miter;marker:none;marker-start:none;marker-mid:none;marker-end:none;stroke-miterlimit:4;stroke-dasharray:none;stroke-dashoffset:0;stroke-opacity:1;visibility:visible;display:inline;overflow:visible" id="rect6709" width="1339.633" height="478.357" x="-1559.252" y="-150.697"/><path style="opacity:.40206185;color:#000;fill:url(#radialGradient6717);fill-opacity:1;fill-rule:nonzero;stroke:none;stroke-width:1;stroke-linecap:round;stroke-linejoin:miter;marker:none;marker-start:none;marker-mid:none;marker-end:none;stroke-miterlimit:4;stroke-dasharray:none;stroke-dashoffset:0;stroke-opacity:1;visibility:visible;display:inline;overflow:visible" id="path6711" d="M -219.61876,-150.68038 C -219.61876,-150.68038 -219.61876,327.65041 -219.61876,327.65041 C -76.744594,328.55086 125.78146,220.48075 125.78138,88.454235 C 125.78138,-43.572302 -33.655436,-150.68036 -219.61876,-150.68038 z"/><path id="path6713" d="M -1559.2523,-150.68038 C -1559.2523,-150.68038 -1559.2523,327.65041 -1559.2523,327.65041 C -1702.1265,328.55086 -1904.6525,220.48075 -1904.6525,88.454235 C -1904.6525,-43.572302 -1745.2157,-150.68036 -1559.2523,-150.68038 z" style="opacity:.40206185;color:#000;fill:url(#radialGradient6719);fill-opacity:1;fill-rule:nonzero;stroke:none;stroke-width:1;stroke-linecap:round;stroke-linejoin:miter;marker:none;marker-start:none;marker-mid:none;marker-end:none;stroke-miterlimit:4;stroke-dasharray:none;stroke-dashoffset:0;stroke-opacity:1;visibility:visible;display:inline;overflow:visible"/></g><rect style="color:#000;fill:url(#radialGradient15658);fill-opacity:1;fill-rule:nonzero;stroke:#555753;stroke-width:.99999982;stroke-linecap:round;stroke-linejoin:round;marker:none;marker-start:none;marker-mid:none;marker-end:none;stroke-miterlimit:4;stroke-dashoffset:0;stroke-opacity:1;visibility:visible;display:block;overflow:visible" id="rect15391" width="36" height="41" x="6.5" y="4.5" rx="1.149" ry="1.149"/><rect style="color:#000;fill:none;fill-opacity:1;fill-rule:nonzero;stroke:url(#radialGradient15668);stroke-width:.99999958;stroke-linecap:round;stroke-linejoin:round;marker:none;marker-start:none;marker-mid:none;marker-end:none;stroke-miterlimit:4;stroke-dashoffset:0;stroke-opacity:1;visibility:visible;display:block;overflow:visible" id="rect15660" width="34" height="39" x="7.5" y="5.5" rx=".149" ry=".149"/><g style="display:inline" id="g2250" transform="matrix(2.4166661,0,0,1,-18.999981,19)"><rect id="rect4248" width="12" height="2" x="12" y="7" style="color:#000;fill:#999;fill-opacity:1;fill-rule:evenodd;stroke:none;stroke-width:1;stroke-linecap:butt;stroke-linejoin:miter;marker:none;marker-start:none;marker-mid:none;marker-end:none;stroke-miterlimit:4;stroke-dasharray:none;stroke-dashoffset:0;stroke-opacity:1;visibility:visible;display:inline;overflow:visible"/><rect style="color:#000;fill:#999;fill-opacity:1;fill-rule:evenodd;stroke:none;stroke-width:1;stroke-linecap:butt;stroke-linejoin:miter;marker:none;marker-start:none;marker-mid:none;marker-end:none;stroke-miterlimit:4;stroke-dasharray:none;stroke-dashoffset:0;stroke-opacity:1;visibility:visible;display:inline;overflow:visible" id="rect4250" width="11" height="2" x="12" y="11"/><rect id="rect4252" width="10" height="2" x="12" y="15" style="color:#000;fill:#999;fill-opacity:1;fill-rule:evenodd;stroke:none;stroke-width:1;stroke-linecap:butt;stroke-linejoin:miter;marker:none;marker-start:none;marker-mid:none;marker-end:none;stroke-miterlimit:4;stroke-dasharray:none;stroke-dashoffset:0;stroke-opacity:1;visibility:visible;display:inline;overflow:visible"/><rect style="color:#000;fill:#999;fill-opacity:1;fill-rule:evenodd;stroke:none;stroke-width:1;stroke-linecap:butt;stroke-linejoin:miter;marker:none;marker-start:none;marker-mid:none;marker-end:none;stroke-miterlimit:4;stroke-dasharray:none;stroke-dashoffset:0;stroke-opacity:1;visibility:visible;display:inline;overflow:visible" id="rect4254" width="12" height="2" x="12" y="19"/></g><g style="display:inline" id="g3825" transform="matrix(2.4166657,0,0,1,-18.999977,3.0000003)"><rect id="rect3827" width="12" height="2" x="12" y="7" style="color:#000;fill:#999;fill-opacity:1;fill-rule:evenodd;stroke:none;stroke-width:1;stroke-linecap:butt;stroke-linejoin:miter;marker:none;marker-start:none;marker-mid:none;marker-end:none;stroke-miterlimit:4;stroke-dasharray:none;stroke-dashoffset:0;stroke-opacity:1;visibility:visible;display:inline;overflow:visible"/><rect style="color:#000;fill:#999;fill-opacity:1;fill-rule:evenodd;stroke:none;stroke-width:1;stroke-linecap:butt;stroke-linejoin:miter;marker:none;marker-start:none;marker-mid:none;marker-end:none;stroke-miterlimit:4;stroke-dasharray:none;stroke-dashoffset:0;stroke-opacity:1;visibility:visible;display:inline;overflow:visible" id="rect3829" width="11" height="2" x="12" y="11"/><rect id="rect3831" width="10" height="2" x="12" y="15" style="color:#000;fill:#999;fill-opacity:1;fill-rule:evenodd;stroke:none;stroke-width:1;stroke-linecap:butt;stroke-linejoin:miter;marker:none;marker-start:none;marker-mid:none;marker-end:none;stroke-miterlimit:4;stroke-dasharray:none;stroke-dashoffset:0;stroke-opacity:1;visibility:visible;display:inline;overflow:visible"/><rect style="color:#000;fill:#999;fill-opacity:1;fill-rule:evenodd;stroke:none;stroke-width:1;stroke-linecap:butt;stroke-linejoin:miter;marker:none;marker-start:none;marker-mid:none;marker-end:none;stroke-miterlimit:4;stroke-dasharray:none;stroke-dashoffset:0;stroke-opacity:1;visibility:visible;display:inline;overflow:visible" id="rect3833" width="12" height="2" x="12" y="19"/></g></g><g id="layer2"><rect id="rect3487" width="33.987" height="11.003" x="19.469" y="-9.919" rx="4.035" ry="5.3" transform="matrix(0.54713,0.8370477,-0.8216098,0.5700503,0,0)" style="fill:url(#linearGradient3549);fill-opacity:1;fill-rule:nonzero;stroke:#b42c2c;stroke-width:1.00019097;stroke-linecap:round;stroke-linejoin:bevel;stroke-miterlimit:4;stroke-dasharray:none;stroke-dashoffset:0;stroke-opacity:1"/><rect style="fill:url(#linearGradient2337);fill-opacity:1;fill-rule:nonzero;stroke:#b42c2c;stroke-width:1.00019097;stroke-linecap:round;stroke-linejoin:bevel;stroke-miterlimit:4;stroke-dasharray:none;stroke-dashoffset:0;stroke-opacity:1" id="rect2179" width="33.987" height="11.003" x="-13.082" y="30.853" rx="4.035" ry="5.3" transform="matrix(0.8370477,-0.54713,0.5700504,0.8216097,0,0)"/><path style="opacity:.85;fill:none;fill-opacity:.75;fill-rule:evenodd;stroke:#fef7f7;stroke-width:1.50000012;stroke-linecap:square;stroke-linejoin:miter;stroke-miterlimit:4;stroke-dasharray:none;stroke-opacity:1" id="path3390" d="M 16.317988,26.477041 L 25.094347,20.739615"/><path id="path4361" d="M 22.071945,35.260098 L 30.831273,29.533805" style="opacity:.51;fill:none;fill-opacity:.75;fill-rule:evenodd;stroke:#500;stroke-width:1.49999988;stroke-linecap:square;stroke-linejoin:miter;stroke-miterlimit:4;stroke-dasharray:none;stroke-opacity:1"/><path id="path4363" d="M 30.616607,28.7599 L 25.156688,20.408034" style="opacity:.5;fill:none;fill-opacity:.75;fill-rule:evenodd;stroke:#fef7f7;stroke-width:1.00000036;stroke-linecap:square;stroke-linejoin:miter;stroke-miterlimit:4;stroke-dasharray:none;stroke-opacity:1"/><path style="opacity:.27;fill:none;fill-opacity:.75;fill-rule:evenodd;stroke:#c00;stroke-width:1.00000036;stroke-linecap:square;stroke-linejoin:miter;stroke-miterlimit:4;stroke-dasharray:none;stroke-opacity:1" id="path4187" d="M 21.459255,34.855189 L 16.764027,27.673047"/><g id="g6411" transform="matrix(0.8370117,-0.5471851,0.5471851,0.8370117,4.9722098,30.608692)"><path style="opacity:.27792915;fill:#fffdfc;fill-opacity:1;fill-rule:nonzero;stroke:#000;stroke-width:4.86138582;stroke-linecap:round;stroke-linejoin:bevel;stroke-miterlimit:4;stroke-dasharray:none;stroke-dashoffset:0;stroke-opacity:1" id="path4444" d="M 24.633845,57.772102 A 2.9010935,2.0358551 0 1 1 24.628091,57.64394" transform="matrix(0.1723261,1.7589269e-3,3.9501315e-3,0.245584,13.026672,-6.2261304)"/><path id="path6347" d="M 24.633845,57.772102 A 2.9010935,2.0358551 0 1 1 24.628091,57.64394" transform="matrix(0.1723261,1.7589269e-3,3.9501315e-3,0.245584,16.026672,-6.2261304)" style="opacity:.27792915;fill:#fffdfc;fill-opacity:1;fill-rule:nonzero;stroke:#000;stroke-width:4.86138582;stroke-linecap:round;stroke-linejoin:bevel;stroke-miterlimit:4;stroke-dasharray:none;stroke-dashoffset:0;stroke-opacity:1"/><path style="opacity:.27792915;fill:#fffdfc;fill-opacity:1;fill-rule:nonzero;stroke:#000;stroke-width:4.86138582;stroke-linecap:round;stroke-linejoin:bevel;stroke-miterlimit:4;stroke-dasharray:none;stroke-dashoffset:0;stroke-opacity:1" id="path6349" d="M 24.633845,57.772102 A 2.9010935,2.0358551 0 1 1 24.628091,57.64394" transform="matrix(0.1723261,1.7589269e-3,3.9501315e-3,0.245584,10.026672,-6.2261304)"/><path id="path6351" d="M 24.633845,57.772102 A 2.9010935,2.0358551 0 1 1 24.628091,57.64394" transform="matrix(0.1723261,1.7589269e-3,3.9501315e-3,0.245584,13.026672,-9.2261303)" style="opacity:.27792915;fill:#fffdfc;fill-opacity:1;fill-rule:nonzero;stroke:#000;stroke-width:4.86138582;stroke-linecap:round;stroke-linejoin:bevel;stroke-miterlimit:4;stroke-dasharray:none;stroke-dashoffset:0;stroke-opacity:1"/><path style="opacity:.27792915;fill:#fffdfc;fill-opacity:1;fill-rule:nonzero;stroke:#000;stroke-width:4.86138582;stroke-linecap:round;stroke-linejoin:bevel;stroke-miterlimit:4;stroke-dasharray:none;stroke-dashoffset:0;stroke-opacity:1" id="path6353" d="M 24.633845,57.772102 A 2.9010935,2.0358551 0 1 1 24.628091,57.64394" transform="matrix(0.1723261,1.7589269e-3,3.9501315e-3,0.245584,16.026672,-9.2261303)"/><path id="path6355" d="M 24.633845,57.772102 A 2.9010935,2.0358551 0 1 1 24.628091,57.64394" transform="matrix(0.1723261,1.7589269e-3,3.9501315e-3,0.245584,10.026672,-9.2261303)" style="opacity:.27792915;fill:#fffdfc;fill-opacity:1;fill-rule:nonzero;stroke:#000;stroke-width:4.86138582;stroke-linecap:round;stroke-linejoin:bevel;stroke-miterlimit:4;stroke-dasharray:none;stroke-dashoffset:0;stroke-opacity:1"/><path id="path6357" d="M 24.633845,57.772102 A 2.9010935,2.0358551 0 1 1 24.628091,57.64394" transform="matrix(0.1723261,1.7589269e-3,3.9501315e-3,0.245584,13.026672,-3.2261303)" style="opacity:.27792915;fill:#fffdfc;fill-opacity:1;fill-rule:nonzero;stroke:#000;stroke-width:4.86138582;stroke-linecap:round;stroke-linejoin:bevel;stroke-miterlimit:4;stroke-dasharray:none;stroke-dashoffset:0;stroke-opacity:1"/><path style="opacity:.27792915;fill:#fffdfc;fill-opacity:1;fill-rule:nonzero;stroke:#000;stroke-width:4.86138582;stroke-linecap:round;stroke-linejoin:bevel;stroke-miterlimit:4;stroke-dasharray:none;stroke-dashoffset:0;stroke-opacity:1" id="path6359" d="M 24.633845,57.772102 A 2.9010935,2.0358551 0 1 1 24.628091,57.64394" transform="matrix(0.1723261,1.7589269e-3,3.9501315e-3,0.245584,16.026672,-3.2261303)"/><path id="path6361" d="M 24.633845,57.772102 A 2.9010935,2.0358551 0 1 1 24.628091,57.64394" transform="matrix(0.1723261,1.7589269e-3,3.9501315e-3,0.245584,10.026672,-3.2261303)" style="opacity:.27792915;fill:#fffdfc;fill-opacity:1;fill-rule:nonzero;stroke:#000;stroke-width:4.86138582;stroke-linecap:round;stroke-linejoin:bevel;stroke-miterlimit:4;stroke-dasharray:none;stroke-dashoffset:0;stroke-opacity:1"/></g><g id="g6402" transform="matrix(0.8370117,-0.5471851,0.5471851,0.8370117,4.9722098,30.608692)"><path id="path6363" d="M 24.633845,57.772102 A 2.9010935,2.0358551 0 1 1 24.628091,57.64394" transform="matrix(0.1723261,1.7589269e-3,3.9501315e-3,0.245584,2.0266723,-6.2261304)" style="opacity:.27792915;fill:#fffdfc;fill-opacity:1;fill-rule:nonzero;stroke:#000;stroke-width:4.86138582;stroke-linecap:round;stroke-linejoin:bevel;stroke-miterlimit:4;stroke-dasharray:none;stroke-dashoffset:0;stroke-opacity:1"/><path style="opacity:.27792915;fill:#fffdfc;fill-opacity:1;fill-rule:nonzero;stroke:#000;stroke-width:4.86138582;stroke-linecap:round;stroke-linejoin:bevel;stroke-miterlimit:4;stroke-dasharray:none;stroke-dashoffset:0;stroke-opacity:1" id="path6365" d="M 24.633845,57.772102 A 2.9010935,2.0358551 0 1 1 24.628091,57.64394" transform="matrix(0.1723261,1.7589269e-3,3.9501315e-3,0.245584,5.0266723,-6.2261304)"/><path id="path6367" d="M 24.633845,57.772102 A 2.9010935,2.0358551 0 1 1 24.628091,57.64394" transform="matrix(0.1723261,1.7589269e-3,3.9501315e-3,0.245584,-0.9733277,-6.2261304)" style="opacity:.27792915;fill:#fffdfc;fill-opacity:1;fill-rule:nonzero;stroke:#000;stroke-width:4.86138582;stroke-linecap:round;stroke-linejoin:bevel;stroke-miterlimit:4;stroke-dasharray:none;stroke-dashoffset:0;stroke-opacity:1"/><path style="opacity:.27792915;fill:#fffdfc;fill-opacity:1;fill-rule:nonzero;stroke:#000;stroke-width:4.86138582;stroke-linecap:round;stroke-linejoin:bevel;stroke-miterlimit:4;stroke-dasharray:none;stroke-dashoffset:0;stroke-opacity:1" id="path6375" d="M 24.633845,57.772102 A 2.9010935,2.0358551 0 1 1 24.628091,57.64394" transform="matrix(0.1723261,1.7589269e-3,3.9501315e-3,0.245584,0.5266723,-9.2261303)"/><path id="path6377" d="M 24.633845,57.772102 A 2.9010935,2.0358551 0 1 1 24.628091,57.64394" transform="matrix(0.1723261,1.7589269e-3,3.9501315e-3,0.245584,3.5266723,-9.2261303)" style="opacity:.27792915;fill:#fffdfc;fill-opacity:1;fill-rule:nonzero;stroke:#000;stroke-width:4.86138582;stroke-linecap:round;stroke-linejoin:bevel;stroke-miterlimit:4;stroke-dasharray:none;stroke-dashoffset:0;stroke-opacity:1"/><path id="path6381" d="M 24.633845,57.772102 A 2.9010935,2.0358551 0 1 1 24.628091,57.64394" transform="matrix(0.1723261,1.7589269e-3,3.9501315e-3,0.245584,0.5266723,-3.2261303)" style="opacity:.27792915;fill:#fffdfc;fill-opacity:1;fill-rule:nonzero;stroke:#000;stroke-width:4.86138582;stroke-linecap:round;stroke-linejoin:bevel;stroke-miterlimit:4;stroke-dasharray:none;stroke-dashoffset:0;stroke-opacity:1"/><path style="opacity:.27792915;fill:#fffdfc;fill-opacity:1;fill-rule:nonzero;stroke:#000;stroke-width:4.86138582;stroke-linecap:round;stroke-linejoin:bevel;stroke-miterlimit:4;stroke-dasharray:none;stroke-dashoffset:0;stroke-opacity:1" id="path6383" d="M 24.633845,57.772102 A 2.9010935,2.0358551 0 1 1 24.628091,57.64394" transform="matrix(0.1723261,1.7589269e-3,3.9501315e-3,0.245584,3.5266723,-3.2261303)"/></g><g id="g6393" transform="matrix(0.8370117,-0.5471851,0.5471851,0.8370117,4.6909598,30.889942)"><path style="opacity:.27792915;fill:#fffdfc;fill-opacity:1;fill-rule:nonzero;stroke:#000;stroke-width:4.86138582;stroke-linecap:round;stroke-linejoin:bevel;stroke-miterlimit:4;stroke-dasharray:none;stroke-dashoffset:0;stroke-opacity:1" id="path6369" d="M 24.633845,57.772102 A 2.9010935,2.0358551 0 1 1 24.628091,57.64394" transform="matrix(0.1723261,1.7589269e-3,3.9501315e-3,0.245584,25.026672,-6.2261304)"/><path id="path6371" d="M 24.633845,57.772102 A 2.9010935,2.0358551 0 1 1 24.628091,57.64394" transform="matrix(0.1723261,1.7589269e-3,3.9501315e-3,0.245584,28.026672,-6.2261304)" style="opacity:.27792915;fill:#fffdfc;fill-opacity:1;fill-rule:nonzero;stroke:#000;stroke-width:4.86138582;stroke-linecap:round;stroke-linejoin:bevel;stroke-miterlimit:4;stroke-dasharray:none;stroke-dashoffset:0;stroke-opacity:1"/><path style="opacity:.27792915;fill:#fffdfc;fill-opacity:1;fill-rule:nonzero;stroke:#000;stroke-width:4.86138582;stroke-linecap:round;stroke-linejoin:bevel;stroke-miterlimit:4;stroke-dasharray:none;stroke-dashoffset:0;stroke-opacity:1" id="path6373" d="M 24.633845,57.772102 A 2.9010935,2.0358551 0 1 1 24.628091,57.64394" transform="matrix(0.1723261,1.7589269e-3,3.9501315e-3,0.245584,22.026672,-6.2261304)"/><path style="opacity:.27792915;fill:#fffdfc;fill-opacity:1;fill-rule:nonzero;stroke:#000;stroke-width:4.86138582;stroke-linecap:round;stroke-linejoin:bevel;stroke-miterlimit:4;stroke-dasharray:none;stroke-dashoffset:0;stroke-opacity:1" id="path6385" d="M 24.633845,57.772102 A 2.9010935,2.0358551 0 1 1 24.628091,57.64394" transform="matrix(0.1723261,1.7589269e-3,3.9501315e-3,0.245584,23.526672,-3.2261303)"/><path id="path6387" d="M 24.633845,57.772102 A 2.9010935,2.0358551 0 1 1 24.628091,57.64394" transform="matrix(0.1723261,1.7589269e-3,3.9501315e-3,0.245584,26.526672,-3.2261303)" style="opacity:.27792915;fill:#fffdfc;fill-opacity:1;fill-rule:nonzero;stroke:#000;stroke-width:4.86138582;stroke-linecap:round;stroke-linejoin:bevel;stroke-miterlimit:4;stroke-dasharray:none;stroke-dashoffset:0;stroke-opacity:1"/><path id="path6389" d="M 24.633845,57.772102 A 2.9010935,2.0358551 0 1 1 24.628091,57.64394" transform="matrix(0.1723261,1.7589269e-3,3.9501315e-3,0.245584,23.526672,-9.22613)" style="opacity:.27792915;fill:#fffdfc;fill-opacity:1;fill-rule:nonzero;stroke:#000;stroke-width:4.86138582;stroke-linecap:round;stroke-linejoin:bevel;stroke-miterlimit:4;stroke-dasharray:none;stroke-dashoffset:0;stroke-opacity:1"/><path style="opacity:.27792915;fill:#fffdfc;fill-opacity:1;fill-rule:nonzero;stroke:#000;stroke-width:4.86138582;stroke-linecap:round;stroke-linejoin:bevel;stroke-miterlimit:4;stroke-dasharray:none;stroke-dashoffset:0;stroke-opacity:1" id="path6391" d="M 24.633845,57.772102 A 2.9010935,2.0358551 0 1 1 24.628091,57.64394" transform="matrix(0.1723261,1.7589269e-3,3.9501315e-3,0.245584,26.526672,-9.22613)"/></g><g id="g3517" transform="matrix(0.5471851,0.8370117,-0.8370117,0.5471851,33.010906,27.810217)"><path style="opacity:.27792915;fill:#fffdfc;fill-opacity:1;fill-rule:nonzero;stroke:#000;stroke-width:4.86138582;stroke-linecap:round;stroke-linejoin:bevel;stroke-miterlimit:4;stroke-dasharray:none;stroke-dashoffset:0;stroke-opacity:1" id="path3519" d="M 24.633845,57.772102 A 2.9010935,2.0358551 0 1 1 24.628091,57.64394" transform="matrix(0.1723261,1.7589269e-3,3.9501315e-3,0.245584,2.0266723,-6.2261304)"/><path id="path3521" d="M 24.633845,57.772102 A 2.9010935,2.0358551 0 1 1 24.628091,57.64394" transform="matrix(0.1723261,1.7589269e-3,3.9501315e-3,0.245584,5.0266723,-6.2261304)" style="opacity:.27792915;fill:#fffdfc;fill-opacity:1;fill-rule:nonzero;stroke:#000;stroke-width:4.86138582;stroke-linecap:round;stroke-linejoin:bevel;stroke-miterlimit:4;stroke-dasharray:none;stroke-dashoffset:0;stroke-opacity:1"/><path style="opacity:.27792915;fill:#fffdfc;fill-opacity:1;fill-rule:nonzero;stroke:#000;stroke-width:4.86138582;stroke-linecap:round;stroke-linejoin:bevel;stroke-miterlimit:4;stroke-dasharray:none;stroke-dashoffset:0;stroke-opacity:1" id="path3523" d="M 24.633845,57.772102 A 2.9010935,2.0358551 0 1 1 24.628091,57.64394" transform="matrix(0.1723261,1.7589269e-3,3.9501315e-3,0.245584,-0.9733277,-6.2261304)"/><path id="path3525" d="M 24.633845,57.772102 A 2.9010935,2.0358551 0 1 1 24.628091,57.64394" transform="matrix(0.1723261,1.7589269e-3,3.9501315e-3,0.245584,0.5266723,-9.2261303)" style="opacity:.27792915;fill:#fffdfc;fill-opacity:1;fill-rule:nonzero;stroke:#000;stroke-width:4.86138582;stroke-linecap:round;stroke-linejoin:bevel;stroke-miterlimit:4;stroke-dasharray:none;stroke-dashoffset:0;stroke-opacity:1"/><path style="opacity:.27792915;fill:#fffdfc;fill-opacity:1;fill-rule:nonzero;stroke:#000;stroke-width:4.86138582;stroke-linecap:round;stroke-linejoin:bevel;stroke-miterlimit:4;stroke-dasharray:none;stroke-dashoffset:0;stroke-opacity:1" id="path3527" d="M 24.633845,57.772102 A 2.9010935,2.0358551 0 1 1 24.628091,57.64394" transform="matrix(0.1723261,1.7589269e-3,3.9501315e-3,0.245584,3.5266723,-9.2261303)"/><path style="opacity:.27792915;fill:#fffdfc;fill-opacity:1;fill-rule:nonzero;stroke:#000;stroke-width:4.86138582;stroke-linecap:round;stroke-linejoin:bevel;stroke-miterlimit:4;stroke-dasharray:none;stroke-dashoffset:0;stroke-opacity:1" id="path3529" d="M 24.633845,57.772102 A 2.9010935,2.0358551 0 1 1 24.628091,57.64394" transform="matrix(0.1723261,1.7589269e-3,3.9501315e-3,0.245584,0.5266723,-3.2261303)"/><path id="path3531" d="M 24.633845,57.772102 A 2.9010935,2.0358551 0 1 1 24.628091,57.64394" transform="matrix(0.1723261,1.7589269e-3,3.9501315e-3,0.245584,3.5266723,-3.2261303)" style="opacity:.27792915;fill:#fffdfc;fill-opacity:1;fill-rule:nonzero;stroke:#000;stroke-width:4.86138582;stroke-linecap:round;stroke-linejoin:bevel;stroke-miterlimit:4;stroke-dasharray:none;stroke-dashoffset:0;stroke-opacity:1"/></g><g id="g3533" transform="matrix(0.5471851,0.8370117,-0.8370117,0.5471851,8.3875805,-9.8553077)"><path id="path3535" d="M 24.633845,57.772102 A 2.9010935,2.0358551 0 1 1 24.628091,57.64394" transform="matrix(0.1723261,1.7589269e-3,3.9501315e-3,0.245584,25.026672,-6.2261304)" style="opacity:.27792915;fill:#fffdfc;fill-opacity:1;fill-rule:nonzero;stroke:#000;stroke-width:4.86138582;stroke-linecap:round;stroke-linejoin:bevel;stroke-miterlimit:4;stroke-dasharray:none;stroke-dashoffset:0;stroke-opacity:1"/><path style="opacity:.27792915;fill:#fffdfc;fill-opacity:1;fill-rule:nonzero;stroke:#000;stroke-width:4.86138582;stroke-linecap:round;stroke-linejoin:bevel;stroke-miterlimit:4;stroke-dasharray:none;stroke-dashoffset:0;stroke-opacity:1" id="path3537" d="M 24.633845,57.772102 A 2.9010935,2.0358551 0 1 1 24.628091,57.64394" transform="matrix(0.1723261,1.7589269e-3,3.9501315e-3,0.245584,28.026672,-6.2261304)"/><path id="path3539" d="M 24.633845,57.772102 A 2.9010935,2.0358551 0 1 1 24.628091,57.64394" transform="matrix(0.1723261,1.7589269e-3,3.9501315e-3,0.245584,22.026672,-6.2261304)" style="opacity:.27792915;fill:#fffdfc;fill-opacity:1;fill-rule:nonzero;stroke:#000;stroke-width:4.86138582;stroke-linecap:round;stroke-linejoin:bevel;stroke-miterlimit:4;stroke-dasharray:none;stroke-dashoffset:0;stroke-opacity:1"/><path id="path3541" d="M 24.633845,57.772102 A 2.9010935,2.0358551 0 1 1 24.628091,57.64394" transform="matrix(0.1723261,1.7589269e-3,3.9501315e-3,0.245584,23.526672,-3.2261303)" style="opacity:.27792915;fill:#fffdfc;fill-opacity:1;fill-rule:nonzero;stroke:#000;stroke-width:4.86138582;stroke-linecap:round;stroke-linejoin:bevel;stroke-miterlimit:4;stroke-dasharray:none;stroke-dashoffset:0;stroke-opacity:1"/><path style="opacity:.27792915;fill:#fffdfc;fill-opacity:1;fill-rule:nonzero;stroke:#000;stroke-width:4.86138582;stroke-linecap:round;stroke-linejoin:bevel;stroke-miterlimit:4;stroke-dasharray:none;stroke-dashoffset:0;stroke-opacity:1" id="path3543" d="M 24.633845,57.772102 A 2.9010935,2.0358551 0 1 1 24.628091,57.64394" transform="matrix(0.1723261,1.7589269e-3,3.9501315e-3,0.245584,26.526672,-3.2261303)"/><path style="opacity:.27792915;fill:#fffdfc;fill-opacity:1;fill-rule:nonzero;stroke:#000;stroke-width:4.86138582;stroke-linecap:round;stroke-linejoin:bevel;stroke-miterlimit:4;stroke-dasharray:none;stroke-dashoffset:0;stroke-opacity:1" id="path3545" d="M 24.633845,57.772102 A 2.9010935,2.0358551 0 1 1 24.628091,57.64394" transform="matrix(0.1723261,1.7589269e-3,3.9501315e-3,0.245584,23.526672,-9.22613)"/><path id="path3547" d="M 24.633845,57.772102 A 2.9010935,2.0358551 0 1 1 24.628091,57.64394" transform="matrix(0.1723261,1.7589269e-3,3.9501315e-3,0.245584,26.526672,-9.22613)" style="opacity:.27792915;fill:#fffdfc;fill-opacity:1;fill-rule:nonzero;stroke:#000;stroke-width:4.86138582;stroke-linecap:round;stroke-linejoin:bevel;stroke-miterlimit:4;stroke-dasharray:none;stroke-dashoffset:0;stroke-opacity:1"/></g></g></svg>