<svg xmlns="http://www.w3.org/2000/svg" xmlns:cc="http://web.resource.org/cc/" xmlns:svg="http://www.w3.org/2000/svg" xmlns:xlink="http://www.w3.org/1999/xlink" id="svg11300" width="48" height="48" x="0" y="0" version="1.0"><metadata id="metadata66"/><defs id="defs3"><linearGradient id="linearGradient3203"><stop style="stop-color:#fed08e;stop-opacity:1" id="stop3205" offset="0"/><stop style="stop-color:#fc9605;stop-opacity:1" id="stop3207" offset="1"/></linearGradient><linearGradient id="linearGradient5161"><stop style="stop-color:#f6c20b;stop-opacity:1" id="stop5163" offset="0"/><stop style="stop-color:#dbae36;stop-opacity:1" id="stop5165" offset="1"/></linearGradient><linearGradient id="linearGradient4184"><stop style="stop-color:#79ef09;stop-opacity:1" id="stop4186" offset="0"/><stop style="stop-color:#60bf07;stop-opacity:.93548387" id="stop4188" offset="1"/></linearGradient><radialGradient id="radialGradient5031" cx="605.714" cy="486.648" r="117.143" fx="605.714" fy="486.648" gradientTransform="matrix(-2.774389,0,0,1.969706,112.7623,-872.8854)" gradientUnits="userSpaceOnUse" xlink:href="#linearGradient5060"/><linearGradient id="linearGradient5060"><stop style="stop-color:black;stop-opacity:1" id="stop5062" offset="0"/><stop style="stop-color:black;stop-opacity:0" id="stop5064" offset="1"/></linearGradient><radialGradient id="radialGradient5029" cx="605.714" cy="486.648" r="117.143" fx="605.714" fy="486.648" gradientTransform="matrix(2.774389,0,0,1.969706,-1891.633,-872.8854)" gradientUnits="userSpaceOnUse" xlink:href="#linearGradient5060"/><linearGradient id="linearGradient5048"><stop style="stop-color:black;stop-opacity:0" id="stop5050" offset="0"/><stop id="stop5056" offset=".5" style="stop-color:black;stop-opacity:1"/><stop style="stop-color:black;stop-opacity:0" id="stop5052" offset="1"/></linearGradient><linearGradient id="linearGradient5027" x1="302.857" x2="302.857" y1="366.648" y2="609.505" gradientTransform="matrix(2.774389,0,0,1.969706,-1892.179,-872.8854)" gradientUnits="userSpaceOnUse" xlink:href="#linearGradient5048"/><linearGradient id="linearGradient12512"><stop style="stop-color:#fff;stop-opacity:1" id="stop12513" offset="0"/><stop style="stop-color:#fff520;stop-opacity:.89108908" id="stop12517" offset=".5"/><stop style="stop-color:#fff300;stop-opacity:0" id="stop12514" offset="1"/></linearGradient><linearGradient id="linearGradient4816"><stop style="stop-color:#204a87;stop-opacity:1" id="stop4818" offset="0"/><stop style="stop-color:#204a87;stop-opacity:0" id="stop4820" offset="1"/></linearGradient><linearGradient id="linearGradient4808"><stop style="stop-color:#000;stop-opacity:1" id="stop4810" offset="0"/><stop style="stop-color:#000;stop-opacity:0" id="stop4812" offset="1"/></linearGradient><linearGradient id="linearGradient3832"><stop style="stop-color:#fff;stop-opacity:1" id="stop3834" offset="0"/><stop style="stop-color:#e0e0e0;stop-opacity:1" id="stop3836" offset="1"/></linearGradient><radialGradient id="radialGradient1372" cx="17.368" cy="25.682" r="11.8" fx="17.368" fy="25.682" gradientTransform="matrix(1.945734,0.000000,0.000000,0.627274,-9.628455,24.25921)" gradientUnits="userSpaceOnUse" xlink:href="#linearGradient4808"/><linearGradient id="linearGradient2264" x1="13.268" x2="13.268" y1="8.301" y2="11.699" gradientTransform="matrix(2.0236184,0,0,1.5991457,-2.3488617,-5.273972)" gradientUnits="userSpaceOnUse" xlink:href="#linearGradient4184"/><linearGradient id="linearGradient2267" x1="15.105" x2="15.105" y1="11.642" y2="26.822" gradientTransform="matrix(1.9892238,0,0,2.2664296,-2.440728,-12.61317)" gradientUnits="userSpaceOnUse" xlink:href="#linearGradient3832"/><linearGradient id="linearGradient4190" x1="30.718" x2="31.358" y1="30.145" y2="40.159" gradientUnits="userSpaceOnUse" xlink:href="#linearGradient4184"/><linearGradient id="linearGradient5167" x1="31.358" x2="31.94" y1="29.95" y2="43.274" gradientTransform="translate(1.7319182,0.7578303)" gradientUnits="userSpaceOnUse" xlink:href="#linearGradient5161"/><linearGradient id="linearGradient5189" x1="31.358" x2="31.94" y1="29.95" y2="43.274" gradientTransform="translate(1.7319182,0.7578303)" gradientUnits="userSpaceOnUse" xlink:href="#linearGradient5161"/><linearGradient id="linearGradient2228" x1="31.358" x2="31.94" y1="29.95" y2="43.274" gradientTransform="translate(1.7319182,-16.389911)" gradientUnits="userSpaceOnUse" xlink:href="#linearGradient5161"/><linearGradient id="linearGradient3209" x1="31.358" x2="31.94" y1="29.95" y2="43.274" gradientTransform="translate(1.7319182,-16.389911)" gradientUnits="userSpaceOnUse" xlink:href="#linearGradient5161"/><linearGradient id="linearGradient3210" x1="33.09" x2="38.745" y1="15.703" y2="22.229" gradientUnits="userSpaceOnUse" xlink:href="#linearGradient3203"/><linearGradient id="linearGradient4207" x1="302.857" x2="302.857" y1="366.648" y2="609.505" gradientTransform="matrix(2.774389,0,0,1.969706,-1892.179,-872.8854)" gradientUnits="userSpaceOnUse" xlink:href="#linearGradient5048"/><radialGradient id="radialGradient4209" cx="605.714" cy="486.648" r="117.143" fx="605.714" fy="486.648" gradientTransform="matrix(2.774389,0,0,1.969706,-1891.633,-872.8854)" gradientUnits="userSpaceOnUse" xlink:href="#linearGradient5060"/><radialGradient id="radialGradient4211" cx="605.714" cy="486.648" r="117.143" fx="605.714" fy="486.648" gradientTransform="matrix(-2.774389,0,0,1.969706,112.7623,-872.8854)" gradientUnits="userSpaceOnUse" xlink:href="#linearGradient5060"/></defs><g style="display:inline" id="g5022" transform="matrix(1.7933891e-2,0,0,1.485743e-2,40.84533,40.20346)"><rect id="rect4173" width="1339.633" height="478.357" x="-1559.252" y="-150.697" style="opacity:.40206185;color:#000;fill:url(#linearGradient4207);fill-opacity:1;fill-rule:nonzero;stroke:none;stroke-width:1;stroke-linecap:round;stroke-linejoin:miter;marker:none;marker-start:none;marker-mid:none;marker-end:none;stroke-miterlimit:4;stroke-dasharray:none;stroke-dashoffset:0;stroke-opacity:1;visibility:visible;display:inline;overflow:visible"/><path id="path5058" d="M -219.61876,-150.68038 C -219.61876,-150.68038 -219.61876,327.65041 -219.61876,327.65041 C -76.744594,328.55086 125.78146,220.48075 125.78138,88.454235 C 125.78138,-43.572302 -33.655436,-150.68036 -219.61876,-150.68038 z" style="opacity:.40206185;color:#000;fill:url(#radialGradient4209);fill-opacity:1;fill-rule:nonzero;stroke:none;stroke-width:1;stroke-linecap:round;stroke-linejoin:miter;marker:none;marker-start:none;marker-mid:none;marker-end:none;stroke-miterlimit:4;stroke-dasharray:none;stroke-dashoffset:0;stroke-opacity:1;visibility:visible;display:inline;overflow:visible"/><path style="opacity:.40206185;color:#000;fill:url(#radialGradient4211);fill-opacity:1;fill-rule:nonzero;stroke:none;stroke-width:1;stroke-linecap:round;stroke-linejoin:miter;marker:none;marker-start:none;marker-mid:none;marker-end:none;stroke-miterlimit:4;stroke-dasharray:none;stroke-dashoffset:0;stroke-opacity:1;visibility:visible;display:inline;overflow:visible" id="path5018" d="M -1559.2523,-150.68038 C -1559.2523,-150.68038 -1559.2523,327.65041 -1559.2523,327.65041 C -1702.1265,328.55086 -1904.6525,220.48075 -1904.6525,88.454235 C -1904.6525,-43.572302 -1745.2157,-150.68036 -1559.2523,-150.68038 z"/></g><rect style="color:#000;fill:url(#linearGradient2267);fill-opacity:1;fill-rule:evenodd;stroke:#888a85;stroke-width:1.00000036;stroke-linecap:butt;stroke-linejoin:miter;marker:none;marker-start:none;marker-mid:none;marker-end:none;stroke-miterlimit:4;stroke-dasharray:none;stroke-dashoffset:0;stroke-opacity:1;visibility:visible;display:inline;overflow:visible" id="rect3818" width="32" height="36" x="8.5" y="5.5" rx="1.106" ry="1.106"/><rect style="color:#000;fill:url(#linearGradient2264);fill-opacity:1;fill-rule:evenodd;stroke:none;stroke-width:1;stroke-linecap:butt;stroke-linejoin:miter;marker:none;marker-start:none;marker-mid:none;marker-end:none;stroke-miterlimit:4;stroke-dasharray:none;stroke-dashoffset:0;stroke-opacity:1;visibility:visible;display:inline;overflow:visible" id="rect3820" width="29" height="4" x="10" y="8" rx=".222" ry=".222"/><rect style="color:#000;fill:none;fill-opacity:1;fill-rule:evenodd;stroke:#fff;stroke-width:1.00000083;stroke-linecap:butt;stroke-linejoin:miter;marker:none;marker-start:none;marker-mid:none;marker-end:none;stroke-miterlimit:4;stroke-dasharray:none;stroke-dashoffset:0;stroke-opacity:.47878789;visibility:visible;display:inline;overflow:visible" id="rect4962" width="30" height="34" x="9.5" y="6.5" rx=".404" ry=".356"/><path style="opacity:.75;fill:#c00;fill-opacity:1;fill-rule:nonzero;stroke:#555753;stroke-width:.0625;stroke-linecap:round;stroke-linejoin:round;stroke-miterlimit:4;stroke-dasharray:none;stroke-dashoffset:0;stroke-opacity:1" id="path3577" d="M 6 12.3125 A 0.0625 0 0 1 1 5.875,12.3125 A 0.0625 0 0 1 1 6 12.3125 z" transform="matrix(16,0,0,16,-81.5,-182.4375)"/><path style="opacity:.75;fill:#c00;fill-opacity:1;fill-rule:nonzero;stroke:#555753;stroke-width:1;stroke-linecap:round;stroke-linejoin:round;stroke-miterlimit:4;stroke-dasharray:none;stroke-dashoffset:0;stroke-opacity:1" id="path4548" d="M 6.25 14.4375 A 0 0.1875 0 1 1 6.25,14.4375 A 0 0.1875 0 1 1 6.25 14.4375 z" transform="translate(6,2)"/><path id="path4550" d="M 6 12.3125 A 0.0625 0 0 1 1 5.875,12.3125 A 0.0625 0 0 1 1 6 12.3125 z" transform="matrix(16,0,0,16,-81.5,-182.4375)" style="opacity:.75;fill:#c00;fill-opacity:1;fill-rule:nonzero;stroke:#555753;stroke-width:.0625;stroke-linecap:round;stroke-linejoin:round;stroke-miterlimit:4;stroke-dasharray:none;stroke-dashoffset:0;stroke-opacity:1"/><path id="path4554" d="M 6 12.3125 A 0.0625 0 0 1 1 5.875,12.3125 A 0.0625 0 0 1 1 6 12.3125 z" transform="matrix(16,0,0,16,-81.5,-182.4375)" style="opacity:.75;fill:#c00;fill-opacity:1;fill-rule:nonzero;stroke:#555753;stroke-width:.0625;stroke-linecap:round;stroke-linejoin:round;stroke-miterlimit:4;stroke-dasharray:none;stroke-dashoffset:0;stroke-opacity:1"/><path id="path4556" d="M 6 12.3125 A 0.0625 0 0 1 1 5.875,12.3125 A 0.0625 0 0 1 1 6 12.3125 z" transform="matrix(16,0,0,16,-81.5,-182.4375)" style="opacity:.75;fill:#c00;fill-opacity:1;fill-rule:nonzero;stroke:#555753;stroke-width:.0625;stroke-linecap:round;stroke-linejoin:round;stroke-miterlimit:4;stroke-dasharray:none;stroke-dashoffset:0;stroke-opacity:1"/><path style="opacity:.75;fill:#c00;fill-opacity:1;fill-rule:nonzero;stroke:#555753;stroke-width:.0625;stroke-linecap:round;stroke-linejoin:round;stroke-miterlimit:4;stroke-dasharray:none;stroke-dashoffset:0;stroke-opacity:1" id="path4558" d="M 6 12.3125 A 0.0625 0 0 1 1 5.875,12.3125 A 0.0625 0 0 1 1 6 12.3125 z" transform="matrix(16,0,0,16,-71.9375,-206.75)"/><path id="path4560" d="M 6 12.3125 A 0.0625 0 0 1 1 5.875,12.3125 A 0.0625 0 0 1 1 6 12.3125 z" transform="matrix(16,0,0,16,-81.5,-182.4375)" style="opacity:.75;fill:#c00;fill-opacity:1;fill-rule:nonzero;stroke:#555753;stroke-width:.0625;stroke-linecap:round;stroke-linejoin:round;stroke-miterlimit:4;stroke-dasharray:none;stroke-dashoffset:0;stroke-opacity:1"/><path style="opacity:.75;fill:#555753;fill-opacity:1;fill-rule:nonzero;stroke:#555753;stroke-width:.7705518;stroke-linecap:round;stroke-linejoin:round;stroke-miterlimit:4;stroke-dasharray:none;stroke-dashoffset:0;stroke-opacity:1" id="path2201" d="M 7.375 12.9375 A 0.59375 0.5 0 1 1 6.1875,12.9375 A 0.59375 0.5 0 1 1 7.375 12.9375 z" transform="matrix(1.6842105,0,0,1,2.0789474,2.0625)"/><path style="opacity:.75;fill:#555753;fill-opacity:1;fill-rule:nonzero;stroke:#555753;stroke-width:.7705518;stroke-linecap:round;stroke-linejoin:round;stroke-miterlimit:4;stroke-dasharray:none;stroke-dashoffset:0;stroke-opacity:1" id="path3174" d="M 7.375 12.9375 A 0.59375 0.5 0 1 1 6.1875,12.9375 A 0.59375 0.5 0 1 1 7.375 12.9375 z" transform="matrix(1.6842105,0,0,1,2.0789474,6.0625)"/><path style="opacity:.75;fill:#555753;fill-opacity:1;fill-rule:nonzero;stroke:#555753;stroke-width:.7705518;stroke-linecap:round;stroke-linejoin:round;stroke-miterlimit:4;stroke-dasharray:none;stroke-dashoffset:0;stroke-opacity:1" id="path3176" d="M 7.375 12.9375 A 0.59375 0.5 0 1 1 6.1875,12.9375 A 0.59375 0.5 0 1 1 7.375 12.9375 z" transform="matrix(1.6842105,0,0,1,2.0789474,10.0625)"/><path style="opacity:.75;fill:#555753;fill-opacity:1;fill-rule:nonzero;stroke:#555753;stroke-width:.7705518;stroke-linecap:round;stroke-linejoin:round;stroke-miterlimit:4;stroke-dasharray:none;stroke-dashoffset:0;stroke-opacity:1" id="path3178" d="M 7.375 12.9375 A 0.59375 0.5 0 1 1 6.1875,12.9375 A 0.59375 0.5 0 1 1 7.375 12.9375 z" transform="matrix(1.6842105,0,0,1,2.0789474,14.0625)"/><path id="path3180" d="M 7.375 12.9375 A 0.59375 0.5 0 1 1 6.1875,12.9375 A 0.59375 0.5 0 1 1 7.375 12.9375 z" transform="matrix(1.6842105,0,0,1,2.0789474,18.0625)" style="opacity:.75;fill:#555753;fill-opacity:1;fill-rule:nonzero;stroke:#555753;stroke-width:.7705518;stroke-linecap:round;stroke-linejoin:round;stroke-miterlimit:4;stroke-dasharray:none;stroke-dashoffset:0;stroke-opacity:1"/><path id="path3182" d="M 7.375 12.9375 A 0.59375 0.5 0 1 1 6.1875,12.9375 A 0.59375 0.5 0 1 1 7.375 12.9375 z" transform="matrix(1.6842105,0,0,1,2.0789474,22.0625)" style="opacity:.75;fill:#555753;fill-opacity:1;fill-rule:nonzero;stroke:#555753;stroke-width:.7705518;stroke-linecap:round;stroke-linejoin:round;stroke-miterlimit:4;stroke-dasharray:none;stroke-dashoffset:0;stroke-opacity:1"/><g id="g2235" transform="translate(0,2)"><rect id="rect3827" width="17.305" height="2" x="16" y="12" style="color:#000;fill:#999;fill-opacity:1;fill-rule:evenodd;stroke:none;stroke-width:1;stroke-linecap:butt;stroke-linejoin:miter;marker:none;marker-start:none;marker-mid:none;marker-end:none;stroke-miterlimit:4;stroke-dasharray:none;stroke-dashoffset:0;stroke-opacity:1;visibility:visible;display:inline;overflow:visible"/><rect style="color:#000;fill:#999;fill-opacity:1;fill-rule:evenodd;stroke:none;stroke-width:1;stroke-linecap:butt;stroke-linejoin:miter;marker:none;marker-start:none;marker-mid:none;marker-end:none;stroke-miterlimit:4;stroke-dasharray:none;stroke-dashoffset:0;stroke-opacity:1;visibility:visible;display:inline;overflow:visible" id="rect3829" width="15.863" height="2" x="16" y="16"/><rect id="rect3831" width="14.421" height="2" x="16" y="20" style="color:#000;fill:#999;fill-opacity:1;fill-rule:evenodd;stroke:none;stroke-width:1;stroke-linecap:butt;stroke-linejoin:miter;marker:none;marker-start:none;marker-mid:none;marker-end:none;stroke-miterlimit:4;stroke-dasharray:none;stroke-dashoffset:0;stroke-opacity:1;visibility:visible;display:inline;overflow:visible"/><rect style="color:#000;fill:#999;fill-opacity:1;fill-rule:evenodd;stroke:none;stroke-width:1;stroke-linecap:butt;stroke-linejoin:miter;marker:none;marker-start:none;marker-mid:none;marker-end:none;stroke-miterlimit:4;stroke-dasharray:none;stroke-dashoffset:0;stroke-opacity:1;visibility:visible;display:inline;overflow:visible" id="rect3833" width="17.305" height="2" x="16" y="24"/><rect style="color:#000;fill:#999;fill-opacity:1;fill-rule:evenodd;stroke:none;stroke-width:1;stroke-linecap:butt;stroke-linejoin:miter;marker:none;marker-start:none;marker-mid:none;marker-end:none;stroke-miterlimit:4;stroke-dasharray:none;stroke-dashoffset:0;stroke-opacity:1;visibility:visible;display:inline;overflow:visible" id="rect3190" width="16.541" height="2" x="16" y="28"/><rect id="rect3192" width="15.163" height="2" x="16" y="32" style="color:#000;fill:#999;fill-opacity:1;fill-rule:evenodd;stroke:none;stroke-width:1;stroke-linecap:butt;stroke-linejoin:miter;marker:none;marker-start:none;marker-mid:none;marker-end:none;stroke-miterlimit:4;stroke-dasharray:none;stroke-dashoffset:0;stroke-opacity:1;visibility:visible;display:inline;overflow:visible"/></g><text id="text5177" x="25.382" y="29.283" transform="scale(1.0769873,0.9285161)" xml:space="preserve" style="font-size:29.29001808px;font-style:normal;font-variant:normal;font-weight:400;font-stretch:normal;text-align:start;line-height:125%;writing-mode:lr-tb;text-anchor:start;fill:#ce5c00;fill-opacity:1;stroke:none;stroke-width:1pt;stroke-linecap:butt;stroke-linejoin:miter;stroke-opacity:1;font-family:Comic Sans MS"><tspan style="fill:#ce5c00;fill-opacity:1" id="tspan5179" x="25.382" y="29.283">a</tspan></text><text style="font-size:24.07855415px;font-style:normal;font-variant:normal;font-weight:400;font-stretch:normal;text-align:start;line-height:125%;writing-mode:lr-tb;text-anchor:start;fill:url(#linearGradient3210);fill-opacity:1;stroke:none;stroke-width:1pt;stroke-linecap:butt;stroke-linejoin:miter;stroke-opacity:1;font-family:Comic Sans MS" id="text3207" x="26.835" y="27.978" transform="scale(1.0717338,0.9330675)" xml:space="preserve"><tspan id="tspan3209" x="26.835" y="27.978" style="fill:url(#linearGradient3210);fill-opacity:1">a</tspan></text></svg>