<svg xmlns="http://www.w3.org/2000/svg" xmlns:cc="http://web.resource.org/cc/" xmlns:svg="http://www.w3.org/2000/svg" xmlns:xlink="http://www.w3.org/1999/xlink" id="svg2" width="48" height="48" version="1.0"><defs id="defs4"><linearGradient id="linearGradient269"><stop id="stop270" offset="0" style="stop-color:#a3a3a3;stop-opacity:1"/><stop id="stop271" offset="1" style="stop-color:#4c4c4c;stop-opacity:1"/></linearGradient><linearGradient id="linearGradient259"><stop id="stop260" offset="0" style="stop-color:#fafafa;stop-opacity:1"/><stop style="stop-color:#c1c1c1;stop-opacity:1" id="stop8238" offset=".5"/><stop id="stop261" offset="1" style="stop-color:#e8e8e8;stop-opacity:1"/></linearGradient><linearGradient id="linearGradient1985"><stop id="stop1987" offset="0" style="stop-color:#8f5902;stop-opacity:1"/><stop id="stop1989" offset="1" style="stop-color:#c97c02;stop-opacity:1"/></linearGradient><linearGradient id="linearGradient3281"><stop style="stop-color:#babdb6;stop-opacity:1" id="stop3289" offset="0"/><stop id="stop3291" offset=".092" style="stop-color:#878a84;stop-opacity:1"/><stop style="stop-color:#555753;stop-opacity:1" id="stop3285" offset=".235"/><stop id="stop3293" offset=".724" style="stop-color:#6e706c;stop-opacity:1"/><stop id="stop3287" offset="1" style="stop-color:#888a85;stop-opacity:1"/></linearGradient><linearGradient id="linearGradient3228"><stop style="stop-color:#2e3436;stop-opacity:1" id="stop3230" offset="0"/><stop style="stop-color:#555753;stop-opacity:1" id="stop3232" offset="1"/></linearGradient><linearGradient id="linearGradient3170"><stop style="stop-color:black;stop-opacity:1" id="stop3172" offset="0"/><stop style="stop-color:black;stop-opacity:0" id="stop3174" offset="1"/></linearGradient><linearGradient id="linearGradient3065"><stop id="stop3067" offset="0" style="stop-color:#babdb6;stop-opacity:1"/><stop style="stop-color:white;stop-opacity:1" id="stop3069" offset=".237"/><stop id="stop3259" offset=".687" style="stop-color:#dfe0df;stop-opacity:1"/><stop id="stop3071" offset="1" style="stop-color:#888a85;stop-opacity:1"/></linearGradient><linearGradient id="linearGradient3055"><stop id="stop3057" offset="0" style="stop-color:#555753;stop-opacity:0"/><stop style="stop-color:#555753;stop-opacity:1" id="stop3059" offset=".101"/><stop style="stop-color:#555753;stop-opacity:1" id="stop3061" offset=".893"/><stop id="stop3063" offset="1" style="stop-color:#555753;stop-opacity:0"/></linearGradient><linearGradient id="linearGradient2914"><stop style="stop-color:#888a85;stop-opacity:1" id="stop2916" offset="0"/><stop id="stop2922" offset=".262" style="stop-color:white;stop-opacity:1"/><stop style="stop-color:white;stop-opacity:1" id="stop3257" offset=".473"/><stop style="stop-color:#555753;stop-opacity:1" id="stop2918" offset="1"/></linearGradient><linearGradient id="linearGradient2844"><stop style="stop-color:#90459e;stop-opacity:1" id="stop2846" offset="0"/><stop style="stop-color:#babdb6;stop-opacity:1" id="stop2848" offset="1"/></linearGradient><linearGradient id="linearGradient2827"><stop style="stop-color:white;stop-opacity:1" id="stop2829" offset="0"/><stop style="stop-color:#eeeeec;stop-opacity:1" id="stop2831" offset="1"/></linearGradient><radialGradient id="radialGradient2833" cx="21.315" cy="14.031" r="13.875" fx="21.315" fy="14.031" gradientTransform="matrix(1.910968,0,0,0.825953,32.0406,5.411152)" gradientUnits="userSpaceOnUse" xlink:href="#linearGradient2827"/><linearGradient id="linearGradient2920" x1="17.985" x2="30.604" y1="23.782" y2="23.782" gradientUnits="userSpaceOnUse" xlink:href="#linearGradient3065"/><linearGradient id="linearGradient2935" x1="18.031" x2="31" y1="25.991" y2="25.991" gradientUnits="userSpaceOnUse" xlink:href="#linearGradient3281"/><linearGradient id="linearGradient2939" x1="16.672" x2="30.604" y1="23.782" y2="23.782" gradientUnits="userSpaceOnUse" xlink:href="#linearGradient2914"/><linearGradient id="linearGradient3037" x1="17.875" x2="19.344" y1="18.594" y2="22.469" gradientUnits="userSpaceOnUse" xlink:href="#linearGradient3055"/><linearGradient id="linearGradient3053" x1="17.237" x2="19.007" y1="23.558" y2="27" gradientUnits="userSpaceOnUse" xlink:href="#linearGradient3055"/><linearGradient id="linearGradient3079" x1="17.812" x2="22.156" y1="28.187" y2="31.062" gradientUnits="userSpaceOnUse" xlink:href="#linearGradient3055"/><linearGradient id="linearGradient3200" x1="15.25" x2="13.438" y1="20" y2="11.231" gradientTransform="matrix(1.1290323,0,0,0.7989166,-3.1592745,19.733629)" gradientUnits="userSpaceOnUse" xlink:href="#linearGradient1985"/><linearGradient id="linearGradient3234" x1="45.375" x2="30.499" y1="25.188" y2="25.188" gradientUnits="userSpaceOnUse" xlink:href="#linearGradient3228"/><linearGradient id="linearGradient3236" x1="45.375" x2="30.499" y1="25.188" y2="25.188" gradientUnits="userSpaceOnUse" xlink:href="#linearGradient3228"/><linearGradient id="linearGradient3238" x1="45.375" x2="30.499" y1="25.188" y2="25.188" gradientUnits="userSpaceOnUse" xlink:href="#linearGradient3228"/><linearGradient id="linearGradient3240" x1="45.375" x2="30.499" y1="25.188" y2="25.188" gradientUnits="userSpaceOnUse" xlink:href="#linearGradient3228"/><linearGradient id="linearGradient3242" x1="45.375" x2="30.499" y1="25.188" y2="25.188" gradientUnits="userSpaceOnUse" xlink:href="#linearGradient3228"/><linearGradient id="linearGradient3244" x1="45.375" x2="30.499" y1="25.188" y2="25.188" gradientUnits="userSpaceOnUse" xlink:href="#linearGradient3228"/><linearGradient id="linearGradient3246" x1="45.375" x2="30.499" y1="25.188" y2="25.188" gradientUnits="userSpaceOnUse" xlink:href="#linearGradient3228"/><linearGradient id="linearGradient3248" x1="45.375" x2="30.499" y1="25.188" y2="25.188" gradientUnits="userSpaceOnUse" xlink:href="#linearGradient3228"/><linearGradient id="linearGradient3250" x1="45.375" x2="30.499" y1="25.188" y2="25.188" gradientUnits="userSpaceOnUse" xlink:href="#linearGradient3228"/><linearGradient id="linearGradient3252" x1="45.375" x2="30.499" y1="25.188" y2="25.188" gradientUnits="userSpaceOnUse" xlink:href="#linearGradient3228"/><linearGradient id="linearGradient3261" x1="18.094" x2="26.563" y1="26.241" y2="25.616" gradientUnits="userSpaceOnUse" xlink:href="#linearGradient3281"/><linearGradient id="linearGradient3263" x1="18.344" x2="28.125" y1="22.429" y2="20.054" gradientUnits="userSpaceOnUse" xlink:href="#linearGradient3281"/><linearGradient id="linearGradient3265" x1="18.625" x2="26.25" y1="31.929" y2="31.304" gradientUnits="userSpaceOnUse" xlink:href="#linearGradient3281"/><radialGradient id="radialGradient3269" cx="42.188" cy="20.617" r="8" fx="42.188" fy="20.617" gradientTransform="matrix(-6.064651e-6,0.789996,-2.56077,0,76.84922,-0.69235)" gradientUnits="userSpaceOnUse" xlink:href="#linearGradient3170"/><filter id="filter4240" width="1.095" height="1.295" x="-.048" y="-.148"><feGaussianBlur id="feGaussianBlur4242" stdDeviation=".615"/></filter><linearGradient id="linearGradient4244" x1="17.985" x2="30.604" y1="23.782" y2="23.782" gradientUnits="userSpaceOnUse" xlink:href="#linearGradient3065"/><linearGradient id="linearGradient4246" x1="17.985" x2="30.604" y1="23.782" y2="23.782" gradientUnits="userSpaceOnUse" xlink:href="#linearGradient3065"/><linearGradient id="linearGradient4248" x1="17.985" x2="30.604" y1="23.782" y2="23.782" gradientUnits="userSpaceOnUse" xlink:href="#linearGradient3065"/><linearGradient id="linearGradient11786" x1="25.896" x2="25.803" y1="7.512" y2="27.022" gradientTransform="matrix(0.7286523,0,0,1.2734714,5.671345,-5.1194952)" gradientUnits="userSpaceOnUse" xlink:href="#linearGradient259"/><radialGradient id="radialGradient11788" cx="8.824" cy="3.756" r="37.752" fx="8.824" fy="3.756" gradientTransform="matrix(0.7055343,0,0,1.0759753,37.997661,-14.501458)" gradientUnits="userSpaceOnUse" xlink:href="#linearGradient269"/><linearGradient id="linearGradient15687" x1="45.375" x2="30.499" y1="25.188" y2="25.188" gradientUnits="userSpaceOnUse" xlink:href="#linearGradient3228"/></defs><metadata id="metadata7"/><g id="layer4" style="display:inline"><path id="path2266" d="M 12.941942,33.430718 L 35.941942,33.430718 L 39.941942,43.430718 L 8.9419417,43.430718 L 12.941942,33.430718 z" transform="matrix(1.0967742,0,0,0.4675476,-2.6443788,26.627394)" style="opacity:.15;fill:#000;fill-opacity:1;stroke:none;stroke-width:1;stroke-linecap:round;stroke-linejoin:round;stroke-miterlimit:4;stroke-opacity:1;display:inline;filter:url(#filter4240)"/></g><g id="layer3" style="display:inline"><g style="fill-opacity:1;stroke:url(#linearGradient3234);display:inline" id="g3097" transform="translate(-14,13)"><g style="fill-opacity:1;stroke:url(#linearGradient3236)" id="g3099" transform="translate(-2,0)"><path style="fill:none;fill-opacity:1;stroke:url(#linearGradient3238);stroke-width:3;stroke-linecap:round;stroke-linejoin:miter;stroke-miterlimit:4;stroke-dasharray:none;stroke-opacity:1;display:inline" id="path3101" d="M 33.5,27 C 33.5,25 36,23.5 40.5,23.5 C 44.157,23.5 46.5,23.948 46.5,24.5"/><path style="fill:none;fill-opacity:1;stroke:url(#linearGradient15687);stroke-width:3;stroke-linecap:round;stroke-linejoin:miter;stroke-miterlimit:4;stroke-dasharray:none;stroke-opacity:1;display:inline" id="path3105" d="M 40.961541,27.5 C 44.337233,27.5 46.500003,28 46.500003,29"/></g><g style="fill-opacity:1;stroke:url(#linearGradient3244)" id="g3107" transform="translate(-2,0)"><path style="fill:none;fill-opacity:1;stroke:url(#linearGradient3248);stroke-width:3;stroke-linecap:round;stroke-linejoin:miter;stroke-miterlimit:4;stroke-dasharray:none;stroke-opacity:1;display:inline" id="path3111" d="M 46.499985,24.5 C 46.499985,25.5 42.321416,25.5 40.928559,25.499984 C 36.827989,25.499937 33.5,24.431999 33.5,22.5"/><path style="fill:none;fill-opacity:1;stroke:url(#linearGradient3250);stroke-width:3;stroke-linecap:round;stroke-linejoin:miter;stroke-miterlimit:4;stroke-dasharray:none;stroke-opacity:1;display:inline" id="path3113" d="M 46.5,29 C 46.5,30.5 42.321416,30.5 40.928559,30.499984 C 36.827989,30.499937 33.499991,28.931985 33.499991,26.999986"/></g></g><g id="g2924" transform="translate(0,13)" style="fill-opacity:1;stroke:url(#linearGradient2935)"><path id="path2857" d="M 17.5,27 C 17.5,25 20,23.5 24.5,23.5 C 28.157,23.5 30.5,23.948 30.5,24.5" style="opacity:1;fill:none;fill-opacity:1;stroke:url(#linearGradient3261);stroke-width:.99999988;stroke-linecap:round;stroke-linejoin:miter;stroke-miterlimit:4;stroke-opacity:1;display:inline"/><path id="path2873" d="M 24.961541,27.5 C 28.337233,27.5 30.500003,28 30.500003,29" style="opacity:1;fill:none;fill-opacity:1;stroke:url(#linearGradient3265);stroke-width:1;stroke-linecap:round;stroke-linejoin:miter;stroke-miterlimit:4;stroke-dasharray:none;stroke-opacity:1;display:inline"/></g><g id="g2908" transform="translate(0,13)" style="fill-opacity:1;stroke:url(#linearGradient2920)"><path id="path2852" d="M 30.499985,24.5 C 30.499985,25.5 26.321416,25.5 24.928559,25.499984 C 20.827989,25.499937 17.5,24.431999 17.5,22.5" style="opacity:1;fill:none;fill-opacity:1;stroke:url(#linearGradient4246);stroke-width:.99999952;stroke-linecap:round;stroke-linejoin:miter;stroke-miterlimit:4;stroke-opacity:1;display:inline"/><path id="path2867" d="M 30.5,29 C 30.5,30.5 26.321416,30.5 24.928559,30.499984 C 20.827989,30.499937 17.499991,28.931985 17.499991,26.999986" style="opacity:1;fill:none;fill-opacity:1;stroke:url(#linearGradient4248);stroke-width:.99999952;stroke-linecap:round;stroke-linejoin:miter;stroke-miterlimit:4;stroke-opacity:1;display:inline"/></g><path style="opacity:.41906613;fill:url(#radialGradient3269);fill-opacity:1;stroke:none;stroke-width:3;stroke-linecap:round;stroke-linejoin:miter;stroke-miterlimit:4;stroke-dasharray:none;stroke-opacity:1;display:inline" id="path2885" d="M 16,35.5 C 15.998087,35.635238 16.02963,35.778745 16.0625,35.90625 C 16.158376,36.562154 16.43412,37.185857 16.84375,37.65625 C 16.319659,38.334874 16,39.134654 16,40 C 16,40.772652 16.299003,41.426674 16.71875,42 L 32,42 C 32,41.836163 31.975945,41.686296 31.9375,41.53125 C 31.927641,41.500474 31.918016,41.467412 31.90625,41.4375 C 31.742351,40.885083 31.375524,40.400575 31,40.125 C 30.665359,39.879426 30.308761,39.71594 29.9375,39.59375 C 30.063036,39.560281 30.189806,39.541726 30.3125,39.5 C 30.620513,39.395251 30.942476,39.27716 31.28125,39 C 31.535331,38.79213 31.814752,38.416695 31.9375,37.96875 C 31.983084,37.822653 32.001359,37.658748 32,37.5 C 32,37.350107 31.972633,37.194889 31.9375,37.0625 C 31.918996,36.995494 31.902334,36.938222 31.875,36.875 C 31.754658,36.575983 31.567857,36.335194 31.40625,36.1875 C 31.143458,35.947333 30.889955,35.819752 30.65625,35.71875 C 30.492301,35.647895 30.326579,35.581817 30.15625,35.53125 C 30.207235,35.515545 30.262016,35.517168 30.3125,35.5 C 30.620513,35.395251 16,34.657449 16,35.5 z M 19.3125,34.9375 C 19.73705,35.121862 20.179594,35.301411 20.65625,35.4375 C 20.192383,35.556166 19.751732,35.707141 19.34375,35.875 C 19.267296,35.82307 19.169197,35.762446 19.125,35.71875 C 18.962512,35.558104 19,35.552359 19,35.5 C 19,35.25 19.043981,35.113426 19.3125,34.9375 z M 19.40625,39.1875 C 19.903173,39.361466 20.440441,39.510718 21,39.625 C 20.403985,39.85067 19.856247,40.147539 19.375,40.5 C 19.106187,40.249692 19,40.060031 19,40 C 19,39.738432 19.072796,39.471169 19.40625,39.1875 z"/></g><g id="layer2" style="display:inline"><path style="opacity:1;fill:#c17d11;fill-opacity:1;stroke:url(#linearGradient3200);stroke-width:.99999994;stroke-linecap:round;stroke-linejoin:round;stroke-miterlimit:4;stroke-opacity:1" id="rect1880" d="M 10.953629,27.323335 L 36.921371,27.323335 L 41.412552,32.232452 L 41.4375,35.312501 L 6.4374999,35.312501 L 6.4624482,32.188258 L 10.953629,27.323335 z"/><rect style="opacity:.62000002;fill:#75507b;fill-opacity:1;stroke:none;stroke-width:1;stroke-linecap:round;stroke-linejoin:round;stroke-miterlimit:4;stroke-dasharray:none;stroke-opacity:1" id="rect2768" width="33.871" height="2" x="7.073" y="33"/><path style="opacity:.4;fill:none;fill-opacity:1;stroke:#fff;stroke-width:1;stroke-linecap:round;stroke-linejoin:miter;stroke-miterlimit:4;stroke-opacity:1;display:inline" id="path2817" d="M 11.382056,28.437501 L 7.662045,32.700714 L 7.6370967,34.500001 L 40.379032,34.500001 L 40.379032,32.833297 L 36.571572,28.437501 L 11.382056,28.437501 z"/></g><g id="layer1"><g id="g2381" transform="matrix(0.7537354,0,7.6158736e-2,1.3446954,-1.6388444,-0.4371327)" style="fill:#fff;fill-opacity:.5803109;fill-rule:nonzero;stroke:#000;stroke-width:1.02748895;stroke-miterlimit:4;display:block"><path id="path2382" d="M 41.785743,9.0363862 C 41.795369,8.5618034 41.800932,8.3118806 41.36235,8.312183 L 28.80653,8.3208402 C 28.50653,8.3208402 28.481916,8.1776341 28.80653,8.3208402 C 29.131144,8.4640463 30.053628,8.9791114 30.989227,9.0218349 C 30.989227,9.0218349 41.785704,9.0382983 41.785743,9.0363862 z" style="stroke:none"/></g><g id="g1853" transform="matrix(0.7537354,0,7.6158736e-2,1.3446954,-1.6388444,-0.4371327)" style="fill:#fff;fill-opacity:.5803109;fill-rule:nonzero;stroke:#000;stroke-width:1.02748895;stroke-miterlimit:4;display:block"><path id="path1855" d="M 41.785743,9.0363862 C 41.795369,8.5618034 41.800932,8.3118806 41.36235,8.312183 L 28.80653,8.3208402 C 28.50653,8.3208402 28.481916,8.1776341 28.80653,8.3208402 C 29.131144,8.4640463 30.053628,8.9791114 30.989227,9.0218349 C 30.989227,9.0218349 41.785704,9.0382983 41.785743,9.0363862 z" style="stroke:none"/></g><path style="color:#000;fill:url(#linearGradient11786);fill-opacity:1;fill-rule:nonzero;stroke:url(#radialGradient11788);stroke-width:.99999988;stroke-linecap:butt;stroke-linejoin:miter;marker:none;marker-start:none;marker-mid:none;marker-end:none;stroke-miterlimit:4;stroke-dasharray:none;stroke-dashoffset:0;stroke-opacity:1;visibility:visible;display:block;overflow:visible" id="path8230" d="M 37.276637,5.5458294 C 38.435473,22.24687 32.675327,20.781394 34.906826,31.546206 C 34.906826,31.546206 12.122825,31.546206 12.122825,31.546206 C 10.1948,20.878067 14.837401,21.569884 13.868683,5.5458294 L 37.276637,5.5458294 z"/><path style="color:#000;fill:none;fill-opacity:1;fill-rule:nonzero;stroke:#a1a1a1;stroke-width:1.99999976;stroke-linecap:square;stroke-linejoin:miter;marker:none;marker-start:none;marker-mid:none;marker-end:none;stroke-miterlimit:4;stroke-dasharray:none;stroke-dashoffset:0;stroke-opacity:1;visibility:visible;display:block;overflow:visible" id="path8277" d="M 17.209817,11 L 33.300207,11"/><path id="path8279" d="M 17.301868,15 L 31.674781,15" style="color:#000;fill:none;fill-opacity:1;fill-rule:nonzero;stroke:#a1a1a1;stroke-width:2;stroke-linecap:square;stroke-linejoin:miter;marker:none;marker-start:none;marker-mid:none;marker-end:none;stroke-miterlimit:4;stroke-dasharray:none;stroke-dashoffset:0;stroke-opacity:1;visibility:visible;display:block;overflow:visible"/><path style="color:#000;fill:none;fill-opacity:1;fill-rule:nonzero;stroke:#a1a1a1;stroke-width:2;stroke-linecap:square;stroke-linejoin:miter;marker:none;marker-start:none;marker-mid:none;marker-end:none;stroke-miterlimit:4;stroke-dasharray:none;stroke-dashoffset:0;stroke-opacity:1;visibility:visible;display:block;overflow:visible" id="path8281" d="M 16.675685,19 L 32.140829,19"/><path style="color:#000;fill:none;fill-opacity:1;fill-rule:nonzero;stroke:#a1a1a1;stroke-width:2;stroke-linecap:square;stroke-linejoin:miter;marker:none;marker-start:none;marker-mid:none;marker-end:none;stroke-miterlimit:4;stroke-dasharray:none;stroke-dashoffset:0;stroke-opacity:1;visibility:visible;display:block;overflow:visible" id="path8285" d="M 15.990321,23.04842 L 31.009677,23.04842"/><path id="path14715" d="M 36.230273,6.4999995 C 37.293882,21.91612 32.147519,20.74017 33.587028,30.441073 C 33.587028,30.441073 13.143437,30.499999 13.143437,30.499999 C 11.373844,20.652627 15.634947,21.291219 14.745832,6.4999995 L 36.230273,6.4999995 z" style="color:#000;fill:none;fill-opacity:1;fill-rule:nonzero;stroke:#fff;stroke-width:.9999997;stroke-linecap:butt;stroke-linejoin:miter;marker:none;marker-start:none;marker-mid:none;marker-end:none;stroke-miterlimit:4;stroke-dasharray:none;stroke-dashoffset:0;stroke-opacity:1;visibility:visible;display:block;overflow:visible"/></g></svg>