<svg xmlns="http://www.w3.org/2000/svg" xmlns:cc="http://web.resource.org/cc/" xmlns:svg="http://www.w3.org/2000/svg" xmlns:xlink="http://www.w3.org/1999/xlink" id="svg1" width="48" height="48" x="0" y="0" version="1.0"><metadata id="metadata46"/><defs id="defs3"><linearGradient id="linearGradient5161"><stop style="stop-color:#fff;stop-opacity:1" id="stop5163" offset="0"/><stop style="stop-color:#fff;stop-opacity:.38431373" id="stop5165" offset="1"/></linearGradient><linearGradient id="linearGradient4184"><stop style="stop-color:#fff;stop-opacity:1" id="stop4186" offset="0"/><stop style="stop-color:#fff;stop-opacity:0" id="stop4188" offset="1"/></linearGradient><linearGradient id="linearGradient3195"><stop style="stop-color:#fcfff9;stop-opacity:1" id="stop3197" offset="0"/><stop style="stop-color:#fff;stop-opacity:.03921569" id="stop3199" offset="1"/></linearGradient><linearGradient id="linearGradient3179"><stop id="stop3181" offset="0" style="stop-color:#0c0000;stop-opacity:.14102565"/><stop id="stop3183" offset="1" style="stop-color:#000;stop-opacity:.35897437"/></linearGradient><linearGradient id="linearGradient2206" x1="24.011" x2="25.807" y1="31.786" y2="36.109" gradientTransform="matrix(0.8,0,0,0.8,6.4582783,-21.685225)" gradientUnits="userSpaceOnUse" xlink:href="#linearGradient570"/><linearGradient id="linearGradient2202" x1="24.011" x2="25.827" y1="31.786" y2="36.987" gradientTransform="matrix(0.8,0,0,0.8,-4.4991326,-20.583662)" gradientUnits="userSpaceOnUse" xlink:href="#linearGradient570"/><linearGradient id="linearGradient745"><stop style="stop-color:#fff;stop-opacity:1" id="stop746" offset="0"/><stop style="stop-color:#d9cce6;stop-opacity:1" id="stop747" offset="1"/></linearGradient><linearGradient id="linearGradient570"><stop style="stop-color:#fff;stop-opacity:1" id="stop571" offset="0"/><stop style="stop-color:#fff;stop-opacity:0" id="stop572" offset="1"/></linearGradient><linearGradient id="linearGradient563"><stop style="stop-color:#d9cce6;stop-opacity:1" id="stop564" offset="0"/><stop style="stop-color:#73667f;stop-opacity:1" id="stop565" offset="1"/></linearGradient><linearGradient id="linearGradient566" x1=".02" x2=".98" y1="0" y2=".969" xlink:href="#linearGradient563"/><linearGradient id="linearGradient569" x1=".007" x2="1.004" y1=".062" y2=".969" xlink:href="#linearGradient570"/><linearGradient id="linearGradient573" x1=".018" x2=".982" y1=".008" y2=".992" xlink:href="#linearGradient570"/><linearGradient id="linearGradient575" x1=".04" x2="1" y1=".016" y2=".984" xlink:href="#linearGradient570"/><linearGradient id="linearGradient578" x1=".008" x2=".992" y1=".016" y2=".992" gradientUnits="objectBoundingBox" spreadMethod="pad" xlink:href="#linearGradient745"/><linearGradient id="linearGradient749" x1=".017" x2=".958" y1=".023" y2=".984" gradientUnits="objectBoundingBox" spreadMethod="pad" xlink:href="#linearGradient570"/><linearGradient id="linearGradient750" x1=".011" x2=".989" y1="-.647" y2=".529" gradientTransform="translate(-7.958619e-8,1.222231e-6)" gradientUnits="objectBoundingBox" spreadMethod="pad" xlink:href="#linearGradient570"/><linearGradient id="linearGradient4993" x1="5.235" x2="51.851" y1="8.558" y2="55.346" gradientTransform="matrix(0.9303259,0,0,0.9428678,-70.321362,4.8198964)" gradientUnits="userSpaceOnUse" xlink:href="#linearGradient745"/><linearGradient id="linearGradient5016" x1="10.1" x2="59.649" y1="2.636" y2="51.756" gradientTransform="matrix(0.942821,0,0,1.060646,13.44985,-50.73252)" gradientUnits="userSpaceOnUse" xlink:href="#linearGradient563"/><linearGradient id="linearGradient5031" x1="27.31" x2="43.831" y1="2.978" y2="49.82" gradientTransform="matrix(0.8031806,0,0,0.8923175,-1.177292,-2.542645)" gradientUnits="userSpaceOnUse" xlink:href="#linearGradient563"/><linearGradient id="linearGradient5036" x1="17.743" x2="28.802" y1="12.316" y2="23.288" gradientTransform="matrix(0.749438,0,0,1.38456,-483.46161,-470.50189)" gradientUnits="userSpaceOnUse" xlink:href="#linearGradient570"/><linearGradient id="linearGradient5042" x1="54.729" x2="57.527" y1="2.042" y2="4.766" gradientTransform="matrix(0.561157,0,0,1.84911,-4.718689e-2,-8.632088e-3)" gradientUnits="userSpaceOnUse" xlink:href="#linearGradient570"/><linearGradient id="linearGradient5046" x1="39.651" x2="41.748" y1="2.554" y2="4.652" gradientTransform="matrix(0.439763,0,0,2.359546,-4.718689e-2,-8.632088e-3)" gradientUnits="userSpaceOnUse" xlink:href="#linearGradient570"/><linearGradient id="linearGradient5051" x1="31.105" x2="36.896" y1="23.912" y2="29.734" gradientTransform="matrix(0.771472,0,0,1.345015,-483.11682,-471.75419)" gradientUnits="userSpaceOnUse" xlink:href="#linearGradient570"/><linearGradient id="linearGradient5056" x1="4.288" x2="36.089" y1="10.142" y2="42.251" gradientTransform="matrix(1.133053,0,0,0.915792,-26.297187,-12.258632)" gradientUnits="userSpaceOnUse" xlink:href="#linearGradient570"/><linearGradient id="linearGradient5066" x1="31.105" x2="36.896" y1="23.912" y2="29.734" gradientTransform="matrix(0.75735,0,0,1.320394,74.75124,-2.762332)" gradientUnits="userSpaceOnUse" xlink:href="#linearGradient570"/><linearGradient id="linearGradient5067" x1="54.729" x2="57.527" y1="2.042" y2="4.766" gradientTransform="matrix(0.550885,0,0,1.815261,74.75124,-2.762332)" gradientUnits="userSpaceOnUse" xlink:href="#linearGradient570"/><linearGradient id="linearGradient5068" x1="39.651" x2="41.748" y1="2.554" y2="4.652" gradientTransform="matrix(0.431713,0,0,2.316353,74.75124,-2.762332)" gradientUnits="userSpaceOnUse" xlink:href="#linearGradient570"/><linearGradient id="linearGradient5069" x1="17.743" x2="28.802" y1="12.316" y2="23.288" gradientTransform="matrix(0.735719,0,0,1.359215,74.75124,-2.762332)" gradientUnits="userSpaceOnUse" xlink:href="#linearGradient570"/><linearGradient id="linearGradient5070" x1="10.1" x2="59.649" y1="2.636" y2="51.756" gradientTransform="matrix(0.983945,0,0,1.106909,71.90738,-4.833742)" gradientUnits="userSpaceOnUse" xlink:href="#linearGradient563"/><linearGradient id="linearGradient5071" x1="4.288" x2="36.089" y1="10.142" y2="42.251" gradientTransform="matrix(1.112312,0,0,0.899028,74.75124,-2.762332)" gradientUnits="userSpaceOnUse" xlink:href="#linearGradient570"/><linearGradient id="linearGradient5072" x1="5.235" x2="51.851" y1="8.558" y2="55.346" gradientTransform="matrix(1.041275,0,0,1.045966,72.14327,-4.658692)" gradientUnits="userSpaceOnUse" xlink:href="#linearGradient745"/><linearGradient id="linearGradient9045" x1="22.37" x2="30.506" y1="29.355" y2="39.667" gradientTransform="matrix(0.8,0,0,0.8,0.5875002,1.65e-5)" gradientUnits="userSpaceOnUse" xlink:href="#linearGradient3179"/><linearGradient id="linearGradient11000" x1="-62.374" x2="-23.944" y1="57.577" y2="96.575" gradientUnits="userSpaceOnUse" xlink:href="#linearGradient745"/><filter id="filter14923"><feGaussianBlur id="feGaussianBlur14925" stdDeviation=".378"/></filter><linearGradient id="linearGradient3177" x1="19.815" x2="28.057" y1="27.354" y2="27.354" gradientUnits="userSpaceOnUse" xlink:href="#linearGradient3179"/><linearGradient id="linearGradient4190" x1="13.843" x2="15.43" y1="12.552" y2="28.766" gradientUnits="userSpaceOnUse" xlink:href="#linearGradient4184"/><linearGradient id="linearGradient5167" x1="28.296" x2="30.379" y1="12.338" y2="17.893" gradientUnits="userSpaceOnUse" xlink:href="#linearGradient5161"/></defs><g id="layer1"><path style="opacity:.2;fill:#000;fill-opacity:1;fill-rule:evenodd;stroke:#261933;stroke-width:0;stroke-linecap:round;stroke-linejoin:miter;stroke-miterlimit:4;stroke-dasharray:none;stroke-opacity:1;filter:url(#filter14923)" id="path6127" d="M 4.0559155,46.056495 L 1.3146141,47.890751 L 46.518711,47.890751 C 46.518711,47.890751 46.155543,46.052604 44.775468,45.745086 C 38.239254,44.288641 12.60403,45.13996 4.0559155,46.056495 z" transform="matrix(1,0,0,0.6983026,0.6853859,14.557764)"/></g><g id="layer2"><path style="opacity:1;fill:url(#linearGradient11000);fill-opacity:1;fill-rule:nonzero;stroke:#47284f;stroke-width:1.28264606;stroke-linecap:round;stroke-linejoin:round;stroke-miterlimit:4;stroke-dasharray:none;stroke-dashoffset:0;stroke-opacity:1" id="path9050" d="M -21.928024 78.27301 A 19.305141 17.103146 0 1 1 -60.538307,78.27301 A 19.305141 17.103146 0 1 1 -21.928024 78.27301 z" transform="matrix(1.100743,0,0,1.2424615,69.38712,-71.251202)"/><path style="fill:url(#linearGradient5031);fill-opacity:1;fill-rule:evenodd;stroke:none;stroke-width:1.875;stroke-linecap:round;stroke-linejoin:miter;stroke-miterlimit:4;stroke-opacity:1" id="path5015" d="M 29.246472,47.344869 C 17.923021,50.119376 9.7826324,43.875052 6.1988662,38.96111 C 8.6550059,36.940116 10.236306,21.733357 12.159315,17.203424 C 13.034107,15.142723 14.484278,14.755987 16.144966,12.964564 C 15.966124,12.68702 15.761732,12.131931 15.455142,11.526379 C 15.148554,10.920827 14.369727,9.3728905 14.228788,8.7257035 C 13.647495,6.0564055 14.264064,2.221046 14.99526,1.9889423 C 15.694812,1.7668819 16.993403,8.0464345 19.190621,10.695723 C 21.488008,10.026495 22.415888,9.6520315 24.332067,10.545143 C 25.175185,5.8773497 25.095955,1.6437859 24.72945,0.24798097 C 24.506885,-0.59963823 28.13223,2.8174068 28.868396,4.4868427 C 29.511878,5.9460907 29.049792,7.9271515 28.868396,9.6340315 C 28.697227,11.244672 28.940933,12.360851 29.251632,13.343034 C 30.364935,13.867274 32.280573,13.160013 33.083991,14.024279 C 35.142068,16.238233 36.226829,20.28876 38.449292,22.804777 C 40.416873,25.032247 44.914683,26.329807 45.654125,27.800577 C 47.125542,30.727263 46.31261,33.866006 44.657713,35.52136 C 42.793479,37.386107 40.007784,37.085703 37.452879,35.824136 C 34.897973,34.562571 33.90156,33.654243 32.700755,32.64499 C 31.499949,31.635738 29.827756,31.076667 27.926535,31.020626 C 26.461506,31.101509 25.889008,31.429152 25.495921,32.417908 C 24.98494,37.388478 25.081976,45.023588 29.246472,47.344869 z"/><path style="fill:none;fill-opacity:1;fill-rule:evenodd;stroke:#47294f;stroke-width:1.5;stroke-linecap:round;stroke-linejoin:round;stroke-miterlimit:4;stroke-opacity:1;stroke-dasharray:none" id="path1249" d="M 25.606181,13.429354 C 28.872796,14.735375 31.194085,13.696103 32.899013,14.659292 C 35.192853,16.63437 36.041851,20.923773 38.264314,23.439791 C 40.231896,25.667261 44.729704,26.964821 45.469147,28.435592 C 46.940565,31.362277 46.127632,34.501021 44.472734,36.156375 C 42.608501,38.021123 39.822806,37.720717 37.267901,36.459151 C 34.712996,35.197585 33.716582,34.289258 32.515776,33.280005 C 31.31497,32.270752 29.664876,31.822166 27.763653,31.766126 C 25.260063,31.69233 22.432279,32.749982 20.558819,31.009185 C 18.285704,28.897034 19.536857,25.53399 18.872581,22.682852 M 29.257942,13.230053 C 28.462447,10.32108 29.3269,6.581102 28.683418,5.121854 C 27.947252,3.4524183 24.321908,0.0353723 24.544473,0.8829923 C 24.910977,2.2787973 24.642293,5.640272 23.799174,10.308066 C 21.291564,9.974537 21.116944,10.00555 19.380117,10.329078 C 17.182898,7.679789 15.509835,2.4018933 14.810281,2.6239532 C 14.079088,2.8560571 13.462517,6.691417 14.043811,9.360716 C 14.184749,10.007903 15.212476,12.018 15.959989,13.599578 C 14.299301,15.391001 12.849129,15.777736 11.974337,17.838438 C 10.051328,22.36837 10.429187,31.463924 6.3320135,37.474987 M 25.598611,32.498506 C 25.087629,37.469075 25.0011,44.180075 29.165595,46.501356"/><path style="opacity:.35;fill:url(#linearGradient4190);fill-opacity:1;fill-rule:evenodd;stroke:none;stroke-width:0;stroke-linecap:butt;stroke-linejoin:miter;stroke-miterlimit:4;stroke-dasharray:none;stroke-opacity:1" id="path5032" d="M 11.717842,21.522866 C 12.043848,19.930491 12.351395,18.556618 13.138935,17.390408 C 14.018673,16.08767 15.164664,15.383007 16.717878,13.864201 C 16.869718,14.430849 17.005979,15.030415 17.30511,15.506742 C 16.173198,16.708234 15.267979,16.97621 13.95069,18.553726 C 13.06536,19.61395 12.01881,21.77753 11.717842,21.522866 z"/><path style="fill:url(#linearGradient9045);fill-opacity:1;fill-rule:evenodd;stroke:url(#linearGradient3177);stroke-width:0;stroke-linecap:butt;stroke-linejoin:miter;stroke-miterlimit:4;stroke-dasharray:none;stroke-opacity:1" id="path5047" d="M 19.940375,25.369651 C 19.957951,27.129859 18.959843,28.039242 20.539201,29.881004 C 22.370099,32.016099 23.727309,31.158144 28.094923,31.032486 C 32.729446,30.898513 34.102289,35.059936 39.63606,36.477973 C 34.587894,33.478795 35.489545,31.781541 30.984548,30.329404 C 26.6202,29.868578 23.241229,30.167216 21.933933,28.811414 C 20.886676,27.725299 20.351743,26.434227 19.940375,25.369651 z"/><path style="opacity:1;fill:none;fill-opacity:1;fill-rule:nonzero;stroke:#060303;stroke-width:1.875;stroke-linecap:round;stroke-linejoin:round;stroke-miterlimit:4;stroke-dasharray:none;stroke-dashoffset:0;stroke-opacity:1" id="path10990" d="M -17.854446,73.721008 A 0,4.5078058 0 1 1 -17.854446,73.721008 L -17.854446,73.721008 z"/><path style="opacity:1;fill:none;fill-opacity:1;fill-rule:nonzero;stroke:#060303;stroke-width:1.875;stroke-linecap:round;stroke-linejoin:round;stroke-miterlimit:4;stroke-dasharray:none;stroke-dashoffset:0;stroke-opacity:1" id="path10992" d="M -15.379572,75.400391 A 0.22097087,0 0 1 1 -15.821514,75.400391 L -15.600543,75.400391 z"/><path id="path2200" d="M 14.97024,4.0006609 C 14.65636,5.7608689 14.417525,6.3180529 14.784293,9.028368 L 16.537941,7.0565889 C 16.039532,5.9996036 15.381608,5.0652369 14.97024,4.0006609 z" style="fill:url(#linearGradient2202);fill-opacity:1;fill-rule:evenodd;stroke:#8ae234;stroke-width:0;stroke-linecap:butt;stroke-linejoin:miter;stroke-miterlimit:4;stroke-dasharray:none;stroke-opacity:1"/><path style="fill:url(#linearGradient2206);fill-opacity:1;fill-rule:evenodd;stroke:#8ae234;stroke-width:0;stroke-linecap:butt;stroke-linejoin:miter;stroke-miterlimit:4;stroke-dasharray:none;stroke-opacity:1" id="path2204" d="M 25.434583,2.4125026 C 25.355078,3.6727106 25.562436,4.9847962 25.085454,7.7263613 L 28.061643,5.5746647 C 27.563234,4.5176794 26.271617,3.1386902 25.434583,2.4125026 z"/><path id="path3185" d="M 25.108677,14.031953 C 25.987109,14.362025 26.910309,14.755818 27.789304,14.827146 C 30.022958,15.008401 32.135227,14.653803 33.334887,16.073909 C 33.486727,16.640557 33.954445,17.4169 34.253576,17.893227 C 32.715414,16.438469 30.564202,16.537144 28.697489,16.527456 C 26.351031,16.515279 25.276015,14.487062 25.108677,14.031953 z" style="opacity:.35;fill:url(#linearGradient5167);fill-opacity:1;fill-rule:evenodd;stroke:none;stroke-width:0;stroke-linecap:butt;stroke-linejoin:miter;stroke-miterlimit:4;stroke-dasharray:none;stroke-opacity:1"/></g></svg>