<svg xmlns="http://www.w3.org/2000/svg" xmlns:cc="http://web.resource.org/cc/" xmlns:svg="http://www.w3.org/2000/svg" xmlns:xlink="http://www.w3.org/1999/xlink" id="svg2239" width="24" height="24" version="1.0"><defs id="defs2241"><linearGradient id="linearGradient3264"><stop style="stop-color:#c9c9c9;stop-opacity:1" id="stop3266" offset="0"/><stop id="stop3276" offset=".25" style="stop-color:#f8f8f8;stop-opacity:1"/><stop id="stop3272" offset=".5" style="stop-color:#e2e2e2;stop-opacity:1"/><stop style="stop-color:#b0b0b0;stop-opacity:1" id="stop3274" offset=".75"/><stop style="stop-color:#c9c9c9;stop-opacity:1" id="stop3268" offset="1"/></linearGradient><linearGradient id="linearGradient3281" x1="14.463" x2="34.534" y1="12.285" y2="39.685" gradientTransform="matrix(0.3096041,0,0,0.3095808,0.6624059,-0.413023)" gradientUnits="userSpaceOnUse" xlink:href="#linearGradient3264"/><linearGradient id="linearGradient5157"><stop style="stop-color:#555753" id="stop5159" offset="0"/><stop style="stop-color:#555753;stop-opacity:0" id="stop5161" offset="1"/></linearGradient><linearGradient id="linearGradient8650"><stop id="stop8652" offset="0" style="stop-color:#fff;stop-opacity:1"/><stop id="stop8654" offset="1" style="stop-color:#fff;stop-opacity:0"/></linearGradient><linearGradient id="linearGradient12512"><stop id="stop12513" offset="0" style="stop-color:#fff;stop-opacity:1"/><stop id="stop12517" offset=".5" style="stop-color:#fff520;stop-opacity:.89108908"/><stop id="stop12514" offset="1" style="stop-color:#fff300;stop-opacity:0"/></linearGradient><linearGradient id="linearGradient15662"><stop id="stop15664" offset="0" style="stop-color:#fff;stop-opacity:1"/><stop id="stop15666" offset="1" style="stop-color:#f8f8f8;stop-opacity:1"/></linearGradient><linearGradient id="linearGradient259"><stop id="stop260" offset="0" style="stop-color:#fafafa;stop-opacity:1"/><stop id="stop261" offset="1" style="stop-color:#bbb;stop-opacity:1"/></linearGradient><linearGradient id="linearGradient2896"><stop style="stop-color:#000;stop-opacity:1" id="stop2898" offset="0"/><stop style="stop-color:#000;stop-opacity:0" id="stop2900" offset="1"/></linearGradient><linearGradient id="linearGradient2512" x1="14.584" x2="14.331" y1="1.639" y2="4.529" gradientTransform="matrix(0.3527177,0,0,0.3968935,-0.5823082,0.599503)" gradientUnits="userSpaceOnUse" xlink:href="#linearGradient2896"/><linearGradient id="linearGradient2906"><stop style="stop-color:#fff;stop-opacity:1" id="stop2908" offset="0"/><stop style="stop-color:#fff;stop-opacity:0" id="stop2910" offset="1"/></linearGradient><linearGradient id="linearGradient2510" x1="13.354" x2="14.076" y1="1.487" y2="2.402" gradientTransform="matrix(0.5,0,0,0.4723736,-2.6820192,-6.5701006e-3)" gradientUnits="userSpaceOnUse" xlink:href="#linearGradient2906"/><linearGradient id="linearGradient2590"><stop style="stop-color:#fff;stop-opacity:1" id="stop2592" offset="0"/><stop style="stop-color:#fff;stop-opacity:0" id="stop2594" offset="1"/></linearGradient><linearGradient id="linearGradient2508" x1="19.97" x2="19.97" y1="6.117" y2="2.531" gradientTransform="matrix(0.5250247,0,0,0.4723945,-2.9619942,0.4411996)" gradientUnits="userSpaceOnUse" xlink:href="#linearGradient2590"/><linearGradient id="linearGradient5897"><stop style="stop-color:#000;stop-opacity:0" id="stop5899" offset="0"/><stop id="stop5905" offset=".5" style="stop-color:#000;stop-opacity:.56701028"/><stop style="stop-color:#000;stop-opacity:0" id="stop5901" offset="1"/></linearGradient><linearGradient id="linearGradient2506" x1="19" x2="19" y1="9.774" y2="15.636" gradientTransform="matrix(0.6652988,0,0,0.8507738,-5.1693306,-6.566651)" gradientUnits="userSpaceOnUse" xlink:href="#linearGradient5897"/><linearGradient id="linearGradient4404"><stop style="stop-color:#fff;stop-opacity:1" id="stop4406" offset="0"/><stop style="stop-color:#fff;stop-opacity:0" id="stop4408" offset="1"/></linearGradient><linearGradient id="linearGradient2504" x1="16.813" x2="16.813" y1="1.875" y2="4.719" gradientTransform="matrix(-0.6597745,0,0,0.543039,17.468052,0.13928)" gradientUnits="userSpaceOnUse" xlink:href="#linearGradient4404"/><linearGradient id="linearGradient2598"><stop style="stop-color:#a9382d;stop-opacity:1" id="stop2600" offset="0"/><stop style="stop-color:#f04646;stop-opacity:1" id="stop2602" offset="1"/></linearGradient><linearGradient id="linearGradient2502" x1="18.431" x2="18.402" y1="19.119" y2="4.27" gradientTransform="matrix(0.6597745,0,0,0.5179028,-4.2351199,-0.249086)" gradientUnits="userSpaceOnUse" xlink:href="#linearGradient2598"/><linearGradient id="linearGradient5866"><stop style="stop-color:#000;stop-opacity:1" id="stop5868" offset="0"/><stop style="stop-color:#000;stop-opacity:0" id="stop5870" offset="1"/></linearGradient><linearGradient id="linearGradient2500" x1="19.452" x2="19.685" y1="13.174" y2="27.095" gradientTransform="matrix(0.6121275,0,0,0.4819191,-2.4962352,1.098222)" gradientUnits="userSpaceOnUse" xlink:href="#linearGradient5866"/><radialGradient id="radialGradient2669" cx="17.421" cy="8.21" r="17.171" fx="17.421" fy="8.21" gradientTransform="matrix(0.2936405,0.1109764,-6.9704362e-2,-0.2160035,4.5725205,14.888519)" gradientUnits="userSpaceOnUse" xlink:href="#linearGradient8650"/><radialGradient id="radialGradient2678" cx="55" cy="125" r="14.375" fx="55" fy="125" gradientTransform="matrix(-1.1340151,-1.193205e-6,-7.9650437e-8,-1.1992054,117.37084,274.90072)" gradientUnits="userSpaceOnUse" xlink:href="#linearGradient12512"/></defs><metadata id="metadata2244"/><g id="layer1"><path style="fill:none;fill-opacity:.75;fill-rule:evenodd;stroke:#5c3566;stroke-width:3.00000024;stroke-linecap:square;stroke-linejoin:miter;stroke-miterlimit:4;stroke-dasharray:none;stroke-opacity:1" id="path4286" d="M 1.4739704,14.518306 L 1.5316609,14.518306"/><path style="fill:#5c3566;fill-opacity:1;fill-rule:evenodd;stroke:#050401;stroke-width:0;stroke-linecap:butt;stroke-linejoin:miter;stroke-miterlimit:4;stroke-dasharray:none;stroke-opacity:1" id="path2190" d="M 15.009023,20.021828 L 24.038071,14.570721 L 14.973192,9.0147842 L 15.009023,20.021828 z"/><path id="path4292" d="M 11.517018,14.518306 L 11.817933,14.518306" style="fill:none;fill-opacity:.75;fill-rule:evenodd;stroke:#5c3566;stroke-width:3.00000024;stroke-linecap:square;stroke-linejoin:miter;stroke-miterlimit:4;stroke-dasharray:none;stroke-opacity:1"/><path id="path4294" d="M 6.4679121,14.518306 L 6.5256026,14.518306" style="fill:none;fill-opacity:.75;fill-rule:evenodd;stroke:#5c3566;stroke-width:3.00000024;stroke-linecap:square;stroke-linejoin:miter;stroke-miterlimit:4;stroke-dasharray:none;stroke-opacity:1"/></g><g id="layer2"><path style="opacity:1;color:#000;fill:url(#linearGradient3281);fill-opacity:1;fill-rule:nonzero;stroke:#5c3566;stroke-width:1;stroke-linecap:butt;stroke-linejoin:miter;marker:none;marker-start:none;marker-mid:none;marker-end:none;stroke-miterlimit:4;stroke-dasharray:none;stroke-dashoffset:0;stroke-opacity:1;visibility:visible;display:inline;overflow:visible" id="path3243" d="M 7.7117561,1.5008291 C 7.5957259,1.5087679 7.4829476,1.5267375 7.3689799,1.5397785 L 7.3611895,1.5397785 L 7.0885266,3.0276264 C 6.644108,3.1288287 6.2259998,3.3005783 5.8498581,3.5339621 L 4.6267704,2.6537169 C 4.2961376,2.9103913 3.9952648,3.2097442 3.730878,3.5339621 L 4.5800282,4.7725374 C 4.3222023,5.1665171 4.1283193,5.6163822 4.0191217,6.0890103 C 4.019103,6.0912446 4.0191065,6.0964107 4.0191217,6.0968001 L 2.5389517,6.3304935 C 2.5118903,6.5515072 2.4999999,6.7799175 2.4999999,7.0082044 C 2.4999999,7.1949847 2.5051576,7.3792694 2.523371,7.5612788 L 4.0035409,7.8261313 C 4.1088116,8.3401053 4.3087883,8.8201103 4.5878185,9.2438715 L 3.7075069,10.451287 C 3.9596222,10.764255 4.2506867,11.049197 4.5644474,11.300374 L 5.8109063,10.443498 C 6.246527,10.721367 6.7328079,10.916212 7.2599147,11.012152 L 7.4936258,12.484421 C 7.6596998,12.499535 7.8300074,12.5 7.9999997,12.5 C 8.2399894,12.499999 8.4692256,12.490906 8.7011328,12.461051 L 8.9815861,10.957624 C 9.4820552,10.833086 9.9521956,10.617044 10.360482,10.326651 L 11.560197,11.199106 C 11.87132,10.934429 12.155825,10.630202 12.401557,10.303282 L 11.529036,9.0413372 C 11.765328,8.6332797 11.929057,8.1830551 12.01204,7.7014948 L 13.484419,7.4678014 C 13.497331,7.314163 13.499999,7.1651624 13.499999,7.0082044 C 13.499999,6.7354464 13.468295,6.4680089 13.429886,6.205857 L 11.934135,5.9332147 C 11.81692,5.500421 11.624596,5.0966291 11.381019,4.7335885 L 12.261331,3.5261723 C 11.988464,3.192494 11.677196,2.8842495 11.334277,2.6225578 L 10.064447,3.4950132 C 9.6994845,3.2791837 9.3067343,3.1135802 8.8803108,3.0198366 L 8.6466007,1.5397785 C 8.4338801,1.5147575 8.2194089,1.5008291 7.9999997,1.5008291 C 7.9407002,1.5008291 7.8796705,1.4989635 7.8208212,1.5008291 C 7.792132,1.5017394 7.7637419,1.499161 7.7351272,1.5008291 C 7.7273772,1.5012818 7.7194914,1.5003006 7.7117561,1.5008291 z M 7.9143056,5.2866629 C 7.9427663,5.2852188 7.9711821,5.2866629 7.9999997,5.2866629 C 8.9221619,5.2866629 9.6749293,6.0393736 9.6749293,6.9614657 C 9.6749293,7.8835578 8.9221609,8.6284787 7.9999997,8.6284787 C 7.0778382,8.628479 6.3328609,7.8835578 6.3328609,6.9614657 C 6.3328611,6.0681893 7.0320247,5.3314303 7.9143056,5.2866629 z"/></g></svg>