<svg xmlns="http://www.w3.org/2000/svg" xmlns:svg="http://www.w3.org/2000/svg" xmlns:xlink="http://www.w3.org/1999/xlink" id="svg2985" width="16" height="16" version="1.1"><defs id="defs2987"><linearGradient id="linearGradient3984"><stop style="stop-color:#729fcf;stop-opacity:1" id="stop3986" offset="0"/><stop style="stop-color:#eeeeec;stop-opacity:1" id="stop3988" offset="1"/></linearGradient><filter id="filter4291" width="1.146" height="1.619" x="-.073" y="-.309"><feGaussianBlur id="feGaussianBlur4293" stdDeviation="61.661"/></filter><linearGradient id="linearGradient3482" x1="43.929" x2="48.18" y1="34.653" y2="34.653" gradientTransform="matrix(3.1305273,0,0,3.1305273,-176.43671,-65.500527)" gradientUnits="userSpaceOnUse" xlink:href="#linearGradient3476"/><linearGradient id="linearGradient3448" x1="20.328" x2="20.328" y1="16.803" y2="32.43" gradientTransform="matrix(3.1305273,0,0,3.1305273,-60.056666,-51.135235)" gradientUnits="userSpaceOnUse" xlink:href="#linearGradient3442"/><linearGradient id="linearGradient3434" x1="41.813" x2="44.133" y1="30.188" y2="30.188" gradientTransform="matrix(3.1305273,0,0,3.1305273,-58.233821,-52.735878)" gradientUnits="userSpaceOnUse" xlink:href="#linearGradient3428"/><linearGradient id="linearGradient2457" x1="44.188" x2="41.188" y1="21.563" y2="21.563" gradientTransform="matrix(3.1305273,0,0,3.1305273,-58.233821,-52.735878)" gradientUnits="userSpaceOnUse" xlink:href="#linearGradient2451"/><linearGradient id="linearGradient2446" x1="27.088" x2="24.757" y1="8.842" y2="8.842" gradientTransform="matrix(4.6983885,0,0,4.7223828,-49.698925,-55.230028)" gradientUnits="userSpaceOnUse" xlink:href="#linearGradient4413"/><linearGradient id="linearGradient2431" x1="10.875" x2=".719" y1="7.781" y2="8" gradientTransform="matrix(6.2610548,0,0,6.5456481,-59.799089,-58.427754)" gradientUnits="userSpaceOnUse" xlink:href="#linearGradient6212"/><linearGradient id="linearGradient2429" x1="8.645" x2="14.509" y1="10.234" y2="19.085" gradientTransform="matrix(5.2460236,0,0,6.0202453,-54.472722,-53.699122)" gradientUnits="userSpaceOnUse" xlink:href="#linearGradient6232"/><linearGradient id="linearGradient6212"><stop id="stop6214" offset="0" style="stop-color:#fff;stop-opacity:1"/><stop id="stop6216" offset="1" style="stop-color:#fff;stop-opacity:0"/></linearGradient><linearGradient id="linearGradient6232"><stop id="stop6234" offset="0" style="stop-color:#e40000;stop-opacity:1"/><stop id="stop6236" offset="1" style="stop-color:#c00;stop-opacity:1"/></linearGradient><linearGradient id="linearGradient5048"><stop id="stop5050" offset="0" style="stop-color:black;stop-opacity:0"/><stop style="stop-color:black;stop-opacity:1" id="stop5056" offset=".5"/><stop id="stop5052" offset="1" style="stop-color:black;stop-opacity:0"/></linearGradient><linearGradient id="linearGradient5345"><stop id="stop5347" offset="0" style="stop-color:#c78c2b;stop-opacity:1"/><stop style="stop-color:#d9a752;stop-opacity:1" id="stop7129" offset="0"/><stop id="stop5349" offset="1" style="stop-color:#e5c184;stop-opacity:1"/></linearGradient><linearGradient id="linearGradient4413"><stop id="stop4415" offset="0" style="stop-color:#edd400;stop-opacity:1"/><stop id="stop4417" offset="1" style="stop-color:#aa9800;stop-opacity:1"/></linearGradient><linearGradient id="linearGradient2451"><stop id="stop2453" offset="0" style="stop-color:#73d216;stop-opacity:1"/><stop id="stop2455" offset="1" style="stop-color:#64b712;stop-opacity:1"/></linearGradient><linearGradient id="linearGradient3428"><stop id="stop3430" offset="0" style="stop-color:#bc0e0e;stop-opacity:1"/><stop id="stop3432" offset="1" style="stop-color:#ef2929;stop-opacity:1"/></linearGradient><linearGradient id="linearGradient3442"><stop id="stop3444" offset="0" style="stop-color:#eef0ed;stop-opacity:1"/><stop id="stop3446" offset="1" style="stop-color:#d3d7cf;stop-opacity:1"/></linearGradient><linearGradient id="linearGradient3476"><stop id="stop3478" offset="0" style="stop-color:#555753;stop-opacity:1"/><stop id="stop3480" offset="1" style="stop-color:#424441;stop-opacity:1"/></linearGradient><linearGradient id="linearGradient3990" x1="5.288" x2="2.294" y1="6.316" y2="9.948" gradientUnits="userSpaceOnUse" xlink:href="#linearGradient3984"/><linearGradient id="linearGradient3994" x1="12.423" x2="8.473" y1="6.762" y2="10.967" gradientTransform="translate(-7.1354777,-0.06370962)" gradientUnits="userSpaceOnUse" xlink:href="#linearGradient3984"/></defs><metadata id="metadata2990"/><g id="layer1"><g id="layer1-7" transform="matrix(0.31943501,0,0,0.31943501,-0.42671561,0.13592105)"><g id="g2393" transform="matrix(0.02058195,0,0,0.01610134,42.527289,42.254559)" style="opacity:.51485152999999995;fill:#000;fill-opacity:1;display:inline;filter:url(#filter4291);stroke-width:68.78649942;stroke-miterlimit:3;stroke-dasharray:none"><rect style="opacity:.39195981000000002;color:#000;fill:#000;fill-opacity:1;fill-rule:nonzero;stroke:none;stroke-width:68.78649942;marker:none;visibility:visible;display:inline;overflow:visible;stroke-miterlimit:3;stroke-dasharray:none" id="rect2395" width="1339.633" height="478.357" x="-1559.252" y="-150.697"/><path style="opacity:.40206185;color:#000;fill:#000;fill-opacity:1;fill-rule:nonzero;stroke:none;stroke-width:68.78649942;marker:none;visibility:visible;display:inline;overflow:visible;stroke-miterlimit:3;stroke-dasharray:none" id="path2397" d="m -219.61876,-150.68038 c 0,0 0,478.33079 0,478.33079 142.874166,0.90045 345.40022,-107.16966 345.40014,-239.196175 0,-132.026537 -159.436816,-239.134595 -345.40014,-239.134615 z"/><path id="path2399" d="m -1559.2523,-150.68038 c 0,0 0,478.33079 0,478.33079 -142.8742,0.90045 -345.4002,-107.16966 -345.4002,-239.196175 0,-132.026537 159.4368,-239.134595 345.4002,-239.134615 z" style="opacity:.40206185;color:#000;fill:#000;fill-opacity:1;fill-rule:nonzero;stroke:none;stroke-width:68.78649942;marker:none;visibility:visible;display:inline;overflow:visible;stroke-miterlimit:3;stroke-dasharray:none"/></g><rect id="rect2401" width="33.156" height="41" x="10.344" y="2.5" rx=".486" ry=".486" style="fill:#eeeeec;fill-opacity:1;stroke:#a40000;stroke-width:1.2522109;stroke-linecap:round;stroke-linejoin:miter;stroke-miterlimit:3;stroke-opacity:1;stroke-dasharray:none;stroke-dashoffset:0"/><rect id="rect2411" width="19.776" height="1.588" x="9.24" y="3.294" style="fill:#eeeeec;fill-opacity:1;stroke:none;stroke-width:1.2522109;stroke-miterlimit:3;stroke-dasharray:none"/><path id="rect4945" d="m 11.999999,4.9687492 0,-0.96875 30,0 0,39.0000008 -1,0 0,-37.9375008 -29,-0.09375 z" style="fill:#fff;fill-opacity:1;stroke:none;stroke-width:1.2522109;stroke-miterlimit:3;stroke-dasharray:none"/><path id="path2405" d="M 37.025151,5.4999992 7.9129879,5.4514144 c 0,0 -1.573594,-0.1316204 -1.537765,-1.4034463 0.035829,-1.271826 1.662904,-1.5461238 1.609026,-1.5461238 L 36.96933,2.4999995" style="fill:none;stroke:#a40000;stroke-width:1.2522109;stroke-linecap:butt;stroke-linejoin:miter;stroke-opacity:1;stroke-miterlimit:3;stroke-dasharray:none"/><rect id="rect4409" width="6.036" height="9" x="39.464" y="25.5" rx=".73" ry=".728" style="fill:url(#linearGradient3434);fill-opacity:1;stroke:#c00;stroke-width:1.2522109;stroke-linecap:round;stroke-linejoin:miter;stroke-miterlimit:3;stroke-opacity:1;stroke-dasharray:none;stroke-dashoffset:0"/><rect id="rect5076" width="6.036" height="9" x="39.464" y="16.5" rx=".73" ry=".728" style="fill:url(#linearGradient2457);fill-opacity:1;stroke:#4e9a06;stroke-width:1.2522109;stroke-linecap:round;stroke-linejoin:miter;stroke-miterlimit:3;stroke-opacity:1;stroke-dasharray:none;stroke-dashoffset:0"/><rect id="rect5074" width="6.003" height="9" x="39.464" y="7.5" rx=".703" ry=".733" style="fill:url(#linearGradient2446);fill-opacity:1;stroke:#c4a000;stroke-width:1.2522109;stroke-linecap:round;stroke-linejoin:miter;stroke-miterlimit:3;stroke-opacity:1;stroke-dasharray:none;stroke-dashoffset:0"/><path id="rect2403" d="m 6.0540419,5.499999 34.0040181,0 c 0.244835,0 0.441941,0.1971061 0.441941,0.4419418 l 0,39.1161122 c 0,0.244836 -0.197106,0.441942 -0.441941,0.441942 l -32.5898045,0 c -0.2448358,0 -1.8561554,-1.080989 -1.8561554,-1.325825 l 0,-38.2322292 c 0,-0.2448357 0.197106,-0.4419418 0.4419418,-0.4419418 z" style="fill:url(#linearGradient2429);fill-opacity:1;stroke:#a40000;stroke-width:1.2522109;stroke-linecap:round;stroke-linejoin:miter;stroke-miterlimit:3;stroke-opacity:1;stroke-dashoffset:0;stroke-dasharray:none"/><path id="path3474" d="m 5,4 c 2.889092,1.4674944 5.475361,0.8588996 7,1.0103236 l 0,40.9896774 -4.7521555,0 C 6.0566213,46.058926 5.2189514,45.322357 5,44.850952 L 5,4 z" style="fill:url(#linearGradient3482);fill-opacity:1;stroke:none;stroke-width:1.2522109;stroke-miterlimit:3;stroke-dasharray:none"/><rect id="rect2409" width="32.642" height="38" x="6.858" y="6.5" style="opacity:.28712870000000001;fill:none;stroke:url(#linearGradient2431);stroke-width:1.2522109;stroke-linecap:round;stroke-linejoin:miter;stroke-miterlimit:3;stroke-opacity:1;stroke-dasharray:none;stroke-dashoffset:0"/><rect id="rect2413" width="5.965" height="2" x="6.035" y="3" rx="0" ry="0" style="fill:#babdb6;fill-opacity:1;stroke:none;stroke-width:1.2522109;stroke-miterlimit:3;stroke-dasharray:none"/><path id="path4411" d="m 41.061255,26.500001 3.438745,0 0,7 -3.438745,0" style="opacity:.18316830000000001;fill:none;stroke:#eeeeec;stroke-width:1.2522109;stroke-linecap:butt;stroke-linejoin:miter;stroke-opacity:1;stroke-miterlimit:3;stroke-dasharray:none"/><path id="path3436" d="m 41.248755,8.5000003 3.251245,0 0,7.0000007 -3.251245,0" style="opacity:.38118813000000001;fill:none;stroke:#eeeeec;stroke-width:1.2522109;stroke-linecap:butt;stroke-linejoin:miter;stroke-opacity:1;stroke-miterlimit:3;stroke-dasharray:none"/><path id="path4407" d="m 41.061255,17.499999 3.438745,0 0,7 -3.438745,0" style="opacity:.22772276999999999;fill:none;stroke:#eeeeec;stroke-width:1.2522109;stroke-linecap:butt;stroke-linejoin:miter;stroke-opacity:1;stroke-miterlimit:3;stroke-dasharray:none"/><path id="path2416" d="m 9.6290659,5.4999992 -1.876361,-0.059102 c 0,0 -2.288392,-0.2250535 -2.252283,-1.4474863 0.036124,-1.2229161 2.378403,-1.4911667 2.324103,-1.4911667 l 6.4505251,-0.00224" style="fill:none;stroke:#555753;stroke-width:1.2522109;stroke-linecap:butt;stroke-linejoin:miter;stroke-opacity:1;stroke-miterlimit:3;stroke-dasharray:none"/><rect id="rect2418" width="1.828" height="33.566" x="9" y="9" rx=".914" ry=".914" style="opacity:.09239131;fill:#000;fill-opacity:1;stroke:none;stroke-width:1.2522109;stroke-miterlimit:3;stroke-dasharray:none"/><text id="text3436" x="14.606" y="33.713" transform="scale(0.96964789,1.0313022)" xml:space="preserve" style="font-size:28.56229973px;font-style:normal;font-weight:400;fill:url(#linearGradient3448);fill-opacity:1;stroke:none;font-family:Bitstream Vera Sans"><tspan style="font-weight:700;fill:url(#linearGradient3448);fill-opacity:1" id="tspan3438" x="14.606" y="33.713">D</tspan></text><path id="path3440" d="m 16.55163,28.042051 0,-13.542052 9.553444,0 c 3.912466,0.567337 6.015571,2.910677 7.394927,5.032019" style="opacity:.09900991000000001;fill:none;stroke:#000;stroke-width:1.2522109;stroke-linecap:butt;stroke-linejoin:miter;stroke-opacity:1;stroke-miterlimit:3;stroke-dasharray:none"/><path style="fill:#2e3436;fill-opacity:1;stroke:#8f5902;stroke-width:0;stroke-linecap:round;stroke-linejoin:bevel;stroke-miterlimit:4;stroke-opacity:1;stroke-dasharray:none" id="path3933" d="m 13.824988,3.3536401 a 0.15927406,0.2866933 0 1 1 -2e-6,-0.00159" transform="matrix(3.1305272,0,0,3.1305272,1.3358448,-0.42550455)"/><path style="fill:url(#linearGradient3990);fill-opacity:1;stroke:#2e3436;stroke-width:.40000001000000002;stroke-linecap:round;stroke-linejoin:bevel;stroke-miterlimit:4;stroke-opacity:1;stroke-dasharray:none" id="path3982" d="m 6.6258008,8.3229904 a 2.5483849,2.3254011 0 1 1 -3.89e-5,-0.01286" transform="matrix(3.1305272,0,0,3.1305272,1.3358448,-0.42550455)"/><path id="path3992" d="m 6.6258008,8.3229904 a 2.5483849,2.3254011 0 1 1 -3.89e-5,-0.01286" transform="matrix(3.1305272,0,0,3.1305272,23.673652,-0.22605984)" style="fill:url(#linearGradient3994);fill-opacity:1;stroke:#2e3436;stroke-width:.40000001000000002;stroke-linecap:round;stroke-linejoin:bevel;stroke-miterlimit:4;stroke-opacity:1;stroke-dasharray:none"/><path style="fill:none;stroke:#000;stroke-width:1.87831628;stroke-linecap:butt;stroke-linejoin:miter;stroke-miterlimit:4;stroke-opacity:1;stroke-dasharray:none" id="path3998" d="m 28.875093,23.630396 c 0,0 -3.02354,-3.293541 -6.978292,0.339519"/><path style="fill:none;stroke:#000;stroke-width:1.87831628;stroke-linecap:butt;stroke-linejoin:miter;stroke-miterlimit:4;stroke-opacity:1;stroke-dasharray:none" id="path4000" d="m 43.515833,23.292851 c 0,0 5.305326,-13.4624199 6.585958,-9.809688 1.280635,3.652733 0.665317,2.384716 0.665317,2.384716"/><path id="path4002" d="m 5.5791127,24.562108 c 0,0 8.9457053,-17.4639845 11.1050753,-12.725516 2.159373,4.738471 1.12184,3.093549 1.12184,3.093549" style="fill:none;stroke:#000;stroke-width:1.87831628;stroke-linecap:butt;stroke-linejoin:miter;stroke-miterlimit:4;stroke-opacity:1;stroke-dasharray:none"/></g></g></svg>