<svg xmlns="http://www.w3.org/2000/svg" xmlns:svg="http://www.w3.org/2000/svg" xmlns:xlink="http://www.w3.org/1999/xlink" id="svg2985" width="16" height="16" version="1.1"><defs id="defs2987"><linearGradient id="linearGradient4126"><stop style="stop-color:#babdb6;stop-opacity:1" id="stop4128" offset="0"/><stop style="stop-color:#eeeeec;stop-opacity:1" id="stop4130" offset="1"/></linearGradient><linearGradient id="linearGradient4090"><stop style="stop-color:#000;stop-opacity:1" id="stop4092" offset="0"/><stop style="stop-color:#000;stop-opacity:0" id="stop4094" offset="1"/></linearGradient><filter id="filter4291" width="1.146" height="1.619" x="-.073" y="-.309"><feGaussianBlur id="feGaussianBlur4293" stdDeviation="61.661"/></filter><linearGradient id="linearGradient3448" x1="20.328" x2="20.328" y1="16.803" y2="32.43" gradientTransform="matrix(3.1305273,0,0,3.1305273,-60.056666,-51.135235)" gradientUnits="userSpaceOnUse" xlink:href="#linearGradient3442"/><linearGradient id="linearGradient5048"><stop id="stop5050" offset="0" style="stop-color:black;stop-opacity:0"/><stop style="stop-color:black;stop-opacity:1" id="stop5056" offset=".5"/><stop id="stop5052" offset="1" style="stop-color:black;stop-opacity:0"/></linearGradient><linearGradient id="linearGradient5345"><stop id="stop5347" offset="0" style="stop-color:#c78c2b;stop-opacity:1"/><stop style="stop-color:#d9a752;stop-opacity:1" id="stop7129" offset="0"/><stop id="stop5349" offset="1" style="stop-color:#e5c184;stop-opacity:1"/></linearGradient><linearGradient id="linearGradient3442"><stop id="stop3444" offset="0" style="stop-color:#eef0ed;stop-opacity:1"/><stop id="stop3446" offset="1" style="stop-color:#d3d7cf;stop-opacity:1"/></linearGradient><linearGradient id="linearGradient4096" x1="66.642" x2="79.884" y1="32.383" y2="32.383" gradientUnits="userSpaceOnUse" xlink:href="#linearGradient4090"/><linearGradient id="linearGradient4132" x1="15.991" x2=".191" y1=".073" y2="14.917" gradientTransform="matrix(3.1305272,0,0,3.1305271,65.644934,20.446743)" gradientUnits="userSpaceOnUse" xlink:href="#linearGradient4126"/></defs><metadata id="metadata2990"/><g id="layer1"><g id="layer1-7" transform="matrix(0.31943501,0,0,0.31943501,-20.96929,-6.5314057)"><rect style="fill:url(#linearGradient4132);fill-opacity:1;stroke:#a40000;stroke-width:.31305271;stroke-linecap:round;stroke-linejoin:round;stroke-miterlimit:4;stroke-opacity:1;stroke-dasharray:none" id="rect4124" width="49.662" height="49.66" x="66.157" y="20.674"/><rect style="fill:#c00000" id="minus" width="13.242" height="5.516" x="66.642" y="29.625"/><use id="use4016" width="1" height="1" x="0" y="0" transform="translate(17.65598,4.3173446e-7)" xlink:href="#minus" style="fill:url(#linearGradient4096);fill-opacity:1"/><use id="use4018" width="1" height="1" x="0" y="0" transform="translate(35.311956,4.3173446e-7)" xlink:href="#minus"/><path style="fill:green" id="plus" d="m 71.05652,43.414589 0,5.515883 -4.413997,0 0,5.515881 4.413997,0 0,5.51588 4.413992,0 0,-5.51588 4.413997,0 0,-5.515881 -4.413997,0 0,-5.515883 -4.413992,0 z"/><use id="use4021" width="1" height="1" x="0" y="0" transform="translate(17.65598,4.3173446e-7)" xlink:href="#plus"/><use id="use4023" width="1" height="1" x="0" y="0" transform="translate(35.311956,4.3173446e-7)" xlink:href="#plus"/></g></g></svg>