<svg xmlns="http://www.w3.org/2000/svg" xmlns:cc="http://web.resource.org/cc/" xmlns:svg="http://www.w3.org/2000/svg" id="svg2" width="48" height="48" version="1.0"><metadata id="metadata7"/><rect style="opacity:1;fill:#fff;fill-opacity:1;fill-rule:nonzero;stroke:none;stroke-width:0;stroke-linecap:square;stroke-linejoin:round;stroke-miterlimit:4;stroke-dasharray:none;stroke-dashoffset:0;stroke-opacity:1" id="rect2171" width="48" height="36" x="0" y="6" rx="0" ry=".058"/><path style="fill:#729fcf" id="path2169" d="M 0,42 C 0.26116381,41.73772 17.765827,38.771219 24.914831,36.890435 C 39.124375,33.152136 46.205996,30.311992 48,28.816736 L 48,42 L 0,42 z M 0.0625,27.437881 C 2.8922952,27.709491 20.190481,26.229339 26.837741,25.784317 C 37.375759,25.078814 41.404369,26.189621 36.369411,28.703683 C 32.893834,30.439112 17.708175,35.004829 0,38.678132 L 0.0625,27.437881 z M 15.540724,16.778724 C 23.239368,14.150952 40.75547,9.7388283 48,8.5704352 L 48,20.075763 C 44.099976,19.780137 41.665228,19.83774 34.872977,20.116333 C 27.837209,20.404912 18.976223,21.041051 13.449245,21.419042 C 5.7942948,22.047202 8.3085162,18.924576 15.540724,16.778724 z M 0,6 L 43.67093,6 C 26.112975,8.6657276 6.5517078,14.998167 0,18.888619 L 0,6 z"/><path style="opacity:.45;fill:none;fill-opacity:.75;fill-rule:evenodd;stroke:#fff;stroke-width:.99999994;stroke-linecap:square;stroke-linejoin:miter;stroke-miterlimit:4;stroke-dasharray:none;stroke-opacity:1" id="path4101" d="M 1.4999999,15.5 L 1.4999999,7.5000008 L 28.499999,7.5000008 L 28.499999,7.5000008"/><path id="path5072" d="M 46.499999,31.499999 L 46.499999,40.499998 L 16.499999,40.499998 L 16.499999,40.499998" style="opacity:.45;fill:none;fill-opacity:.75;fill-rule:evenodd;stroke:#fff;stroke-width:1;stroke-linecap:square;stroke-linejoin:miter;stroke-miterlimit:4;stroke-dasharray:none;stroke-opacity:1"/></svg>