<svg xmlns="http://www.w3.org/2000/svg" xmlns:cc="http://web.resource.org/cc/" xmlns:svg="http://www.w3.org/2000/svg" xmlns:xlink="http://www.w3.org/1999/xlink" id="svg11300" width="48" height="48"><defs id="defs3"><linearGradient id="linearGradient2250"><stop style="stop-color:#fff;stop-opacity:1" id="stop2252" offset="0"/><stop style="stop-color:#fff;stop-opacity:0" id="stop2254" offset="1"/></linearGradient><linearGradient id="linearGradient2265"><stop style="stop-color:#000;stop-opacity:1" id="stop2267" offset="0"/><stop style="stop-color:#000;stop-opacity:0" id="stop2269" offset="1"/></linearGradient><linearGradient id="linearGradient2257"><stop style="stop-color:#fff;stop-opacity:1" id="stop2259" offset="0"/><stop style="stop-color:#fff;stop-opacity:0" id="stop2261" offset="1"/></linearGradient><linearGradient id="linearGradient3087"><stop style="stop-color:#3465a4;stop-opacity:1" id="stop3089" offset="0"/><stop id="stop3095" offset="0" style="stop-color:#9fbce1;stop-opacity:1"/><stop style="stop-color:#6b95ca;stop-opacity:1" id="stop2242" offset="0"/><stop id="stop2244" offset=".75" style="stop-color:#3d6aa5;stop-opacity:1"/><stop style="stop-color:#386eb4;stop-opacity:1" id="stop3091" offset="1"/></linearGradient><linearGradient id="linearGradient3077"><stop style="stop-color:#98a0a9;stop-opacity:1" id="stop3079" offset="0"/><stop style="stop-color:#c3d0dd;stop-opacity:1" id="stop3081" offset="1"/></linearGradient><linearGradient id="linearGradient3061"><stop style="stop-color:#fff;stop-opacity:1" id="stop3063" offset="0"/><stop style="stop-color:#000;stop-opacity:1" id="stop3065" offset="1"/></linearGradient><linearGradient id="linearGradient3049"><stop style="stop-color:#b6b6b6;stop-opacity:1" id="stop3051" offset="0"/><stop id="stop2262" offset=".5" style="stop-color:#f2f2f2;stop-opacity:1"/><stop style="stop-color:#fafafa;stop-opacity:1" id="stop2264" offset=".676"/><stop id="stop2268" offset=".841" style="stop-color:#d8d8d8;stop-opacity:1"/><stop id="stop2266" offset=".875" style="stop-color:#f2f2f2;stop-opacity:1"/><stop style="stop-color:#dbdbdb;stop-opacity:1" id="stop3053" offset="1"/></linearGradient><linearGradient id="linearGradient3041"><stop style="stop-color:#000;stop-opacity:1" id="stop3043" offset="0"/><stop style="stop-color:#000;stop-opacity:0" id="stop3045" offset="1"/></linearGradient><radialGradient id="radialGradient3047" cx="24.813" cy="39.125" r="17.688" fx="24.813" fy="39.125" gradientTransform="matrix(1,0,0,0.374558,0,24.47041)" gradientUnits="userSpaceOnUse" xlink:href="#linearGradient3041"/><linearGradient id="linearGradient3083" x1="38.228" x2="37.535" y1="13.603" y2="6.629" gradientTransform="matrix(0.878270,0.000000,0.000000,0.878270,2.847503,5.588712)" gradientUnits="userSpaceOnUse" xlink:href="#linearGradient3077"/><linearGradient id="linearGradient2263" x1="12.005" x2="10.651" y1="35.688" y2="33.195" gradientTransform="matrix(1.007254,-2.636526e-2,2.636526e-2,1.007254,1.593411,7.919100e-2)" gradientUnits="userSpaceOnUse" xlink:href="#linearGradient2257"/><linearGradient id="linearGradient2271" x1="14.018" x2="15.416" y1="36.943" y2="38.268" gradientTransform="matrix(0.878099,-1.732370e-2,1.732370e-2,0.878099,2.163687,4.067899)" gradientUnits="userSpaceOnUse" xlink:href="#linearGradient2265"/><linearGradient id="linearGradient2256" x1="31.177" x2="40.859" y1="19.822" y2="9.657" gradientUnits="userSpaceOnUse" xlink:href="#linearGradient2250"/><radialGradient id="radialGradient2260" cx="24.813" cy="39.125" r="17.688" fx="24.813" fy="39.125" gradientTransform="matrix(1.000000,0.000000,0.000000,0.374558,7.272829e-15,24.47041)" gradientUnits="userSpaceOnUse" xlink:href="#linearGradient3041"/><linearGradient id="linearGradient12866" x1="19.648" x2="20.631" y1="42.254" y2="6.776" gradientTransform="matrix(0.4859461,0.6194149,-0.4834273,0.6226422,26.567761,-7.6021936)" gradientUnits="userSpaceOnUse" xlink:href="#linearGradient3049"/><linearGradient id="linearGradient12868" x1="50.153" x2="25.291" y1="-3.632" y2="-4.3" gradientTransform="matrix(0.8782517,0,0,0.685476,-7.9517595,-26.506236)" gradientUnits="userSpaceOnUse" xlink:href="#linearGradient3061"/><linearGradient id="linearGradient13847" x1="38.228" x2="37.535" y1="13.603" y2="6.629" gradientTransform="matrix(0.87827,0,0,0.87827,2.847503,5.588712)" gradientUnits="userSpaceOnUse" xlink:href="#linearGradient3077"/><linearGradient id="linearGradient13849" x1="31.177" x2="40.859" y1="19.822" y2="9.657" gradientUnits="userSpaceOnUse" xlink:href="#linearGradient2250"/><linearGradient id="linearGradient13851" x1="12.005" x2="10.651" y1="35.688" y2="33.195" gradientTransform="matrix(1.007254,-2.636526e-2,2.636526e-2,1.007254,1.593411,7.9191e-2)" gradientUnits="userSpaceOnUse" xlink:href="#linearGradient2257"/><linearGradient id="linearGradient13853" x1="14.018" x2="15.416" y1="36.943" y2="38.268" gradientTransform="matrix(0.878099,-1.73237e-2,1.73237e-2,0.878099,2.163687,4.067899)" gradientUnits="userSpaceOnUse" xlink:href="#linearGradient2265"/><linearGradient id="linearGradient13856" x1="14.018" x2="15.416" y1="36.943" y2="38.268" gradientTransform="matrix(0.878099,-1.73237e-2,1.73237e-2,0.878099,2.163687,2.6975065)" gradientUnits="userSpaceOnUse" xlink:href="#linearGradient2265"/><linearGradient id="linearGradient13859" x1="12.005" x2="10.651" y1="35.688" y2="33.195" gradientTransform="matrix(1.007254,-2.636526e-2,2.636526e-2,1.007254,1.593411,-1.2912015)" gradientUnits="userSpaceOnUse" xlink:href="#linearGradient2257"/><linearGradient id="linearGradient13864" x1="31.177" x2="40.859" y1="19.822" y2="9.657" gradientTransform="translate(0,-1.3703925)" gradientUnits="userSpaceOnUse" xlink:href="#linearGradient2250"/><linearGradient id="linearGradient13867" x1="38.228" x2="37.535" y1="13.603" y2="6.629" gradientTransform="matrix(0.87827,0,0,0.87827,2.847503,4.2183195)" gradientUnits="userSpaceOnUse" xlink:href="#linearGradient3077"/></defs><metadata id="metadata4"/><g id="layer1"><g id="g12856" transform="matrix(0.7037314,-0.7104753,0.8640893,0.8581931,-16.571877,24.328548)"><path id="path2140" d="M 26.128413,14.756449 L 25.941168,41.927257 C 25.882943,43.091887 26.856612,45.290452 28.613872,45.334039 C 30.31081,45.376128 31.276185,43.617335 31.271778,41.443735 L 31.569653,14.924585 C 36.254772,12.080551 37.044912,7.3929205 33.175044,4.0470357 L 31.841998,3.9738441 L 31.862234,7.3842694 L 30.237545,9.46399 L 27.120709,9.4391467 L 25.314028,7.3320757 L 25.298726,3.995632 C 25.298726,3.995632 23.905231,3.989511 23.905231,3.989511 C 20.473204,7.5722298 20.916331,12.873445 26.128413,14.756449 z" style="color:#000;fill:url(#linearGradient12866);fill-opacity:1;fill-rule:nonzero;stroke:#555753;stroke-width:.90615541;stroke-linecap:butt;stroke-linejoin:miter;marker:none;marker-start:none;marker-mid:none;marker-end:none;stroke-miterlimit:4;stroke-dasharray:none;stroke-dashoffset:0;stroke-opacity:1;visibility:visible;display:inline;overflow:visible"/><path style="opacity:.42613639;color:#000;fill:none;fill-opacity:1;fill-rule:nonzero;stroke:#fff;stroke-width:.90615493;stroke-linecap:butt;stroke-linejoin:miter;marker:none;marker-start:none;marker-mid:none;marker-end:none;stroke-miterlimit:4;stroke-dasharray:none;stroke-dashoffset:0;stroke-opacity:1;visibility:visible;display:inline;overflow:visible" id="path3057" d="M 27.093011,14.00072 L 26.963872,41.74229 C 26.92103,42.643863 27.387464,44.345835 28.680469,44.379576 C 29.929091,44.412159 30.13942,42.738127 30.136177,41.055483 L 30.551772,14.416259 C 34.741338,10.866038 35.677829,8.9433411 32.982879,5.5056233 L 32.966027,7.6304868 L 30.535702,10.469985 L 26.596894,10.258644 L 24.287303,7.5058396 L 24.194468,5.6277546 C 20.907363,9.6388544 23.272416,13.373284 27.093011,14.00072 z"/><rect id="rect3059" width="23.268" height="1.604" x="14.905" y="-29.838" rx=".807" ry=".771" transform="matrix(-8.0274087e-3,0.9999678,-0.9999132,-1.3178129e-2,0,0)" style="opacity:.17045456;color:#000;fill:none;fill-opacity:1;fill-rule:nonzero;stroke:url(#linearGradient12868);stroke-width:.90615904;stroke-linecap:butt;stroke-linejoin:miter;marker:none;marker-start:none;marker-mid:none;marker-end:none;stroke-miterlimit:4;stroke-dasharray:none;stroke-dashoffset:0;stroke-opacity:1;visibility:visible;display:inline;overflow:visible"/><path id="path2146" d="M 43.25 37.5 A 1.375 1.375 0 1 1 40.5,37.5 A 1.375 1.375 0 1 1 43.25 37.5 z" transform="matrix(0.6148641,0.6194149,-0.611677,0.6226422,25.857516,-7.2267909)" style="color:#000;fill:#fff;fill-opacity:1;fill-rule:nonzero;stroke:#a1a1a1;stroke-width:1.03825581;stroke-linecap:butt;stroke-linejoin:miter;marker:none;marker-start:none;marker-mid:none;marker-end:none;stroke-miterlimit:4;stroke-dasharray:none;stroke-dashoffset:0;stroke-opacity:1;visibility:visible;display:inline;overflow:visible"/></g><path id="path2258" d="M 42.5 39.125 A 17.6875 6.625 0 1 1 7.125,39.125 A 17.6875 6.625 0 1 1 42.5 39.125 z" transform="matrix(0.751118,0.000000,0.000000,0.578703,17.04087,19.36341)" style="opacity:.19886367;color:#000;fill:url(#radialGradient2260);fill-opacity:1;fill-rule:nonzero;stroke:none;stroke-width:1;stroke-linecap:butt;stroke-linejoin:miter;marker:none;marker-start:none;marker-mid:none;marker-end:none;stroke-miterlimit:4;stroke-dasharray:none;stroke-dashoffset:0;stroke-opacity:1;visibility:visible;display:inline;overflow:visible"/><path style="opacity:.3125;color:#000;fill:url(#radialGradient3047);fill-opacity:1;fill-rule:nonzero;stroke:none;stroke-width:1;stroke-linecap:butt;stroke-linejoin:miter;marker:none;marker-start:none;marker-mid:none;marker-end:none;stroke-miterlimit:4;stroke-dasharray:none;stroke-dashoffset:0;stroke-opacity:1;visibility:visible;display:inline;overflow:visible" id="path3039" d="M 42.5 39.125 A 17.6875 6.625 0 1 1 7.125,39.125 A 17.6875 6.625 0 1 1 42.5 39.125 z" transform="matrix(0.836071,0,0,0.685436,-1.834607,15.09281)"/><path id="path2270" d="M 8.8060013,42.48669 C 10.247267,44.232307 13.405535,44.647919 14.397161,42.116101 C 15.078468,40.376589 17.730783,36.450314 22.594745,32.072748 C 23.411654,31.338363 24.277003,29.658419 23.543411,28.752218 L 21.644704,26.853511 C 20.867961,25.990463 18.708951,26.393033 17.823164,27.601028 C 15.182728,31.214257 9.3398194,35.940582 7.9274145,36.406654 C 5.7406198,37.128264 6.1504221,39.627953 7.3819713,40.933203 L 8.8060013,42.48669 z" style="color:#000;fill:none;fill-opacity:1;fill-rule:nonzero;stroke:#fff;stroke-width:.99999946;stroke-linecap:butt;stroke-linejoin:miter;marker:none;marker-start:none;marker-mid:none;marker-end:none;stroke-miterlimit:4;stroke-dasharray:none;stroke-dashoffset:0;stroke-opacity:1;visibility:visible;display:inline;overflow:visible;opacity:.19886364"/><g id="g13869"><path id="path2144" d="M 22.498794,28.754987 C 23.332335,28.040525 35.782628,15.306478 35.782628,15.306478 L 38.856573,15.086911 L 43.687058,8.3900981 L 39.662731,4.8049062 L 33.405057,10.184313 L 33.405057,13.258259 L 20.482642,26.424701 C 19.878832,27.02851 21.730308,29.41369 22.498794,28.754987 z" style="color:#000;fill:url(#linearGradient13867);fill-opacity:1;fill-rule:nonzero;stroke:#878f9d;stroke-width:.9999997;stroke-linecap:butt;stroke-linejoin:miter;marker:none;marker-start:none;marker-mid:none;marker-end:none;stroke-miterlimit:4;stroke-dasharray:none;stroke-dashoffset:0;stroke-opacity:1;visibility:visible;display:inline;overflow:visible"/><path style="opacity:.53977272;color:#000;fill:none;fill-opacity:1;fill-rule:nonzero;stroke:url(#linearGradient13864);stroke-width:1.00000024;stroke-linecap:butt;stroke-linejoin:miter;marker:none;marker-start:none;marker-mid:none;marker-end:none;stroke-miterlimit:4;stroke-dasharray:none;stroke-dashoffset:0;stroke-opacity:1;visibility:visible;display:inline;overflow:visible" id="path3085" d="M 22.401987,27.715062 C 23.04876,27.160685 35.426388,14.485256 35.426388,14.485256 L 38.354971,14.237257 L 42.568887,8.5751915 L 39.679156,6.0262021 L 34.202578,10.743675 L 34.357836,13.594629 L 21.681731,26.636952 C 21.213213,27.10547 21.805692,28.226173 22.401987,27.715062 z"/><path id="path2142" d="M 8.4653111,42.241169 C 9.7818986,43.706398 13.438996,44.369333 15.060755,41.531254 C 15.767862,40.293819 17.154698,36.828452 23.341883,31.259986 C 24.381029,30.325815 25.481792,28.188848 24.54863,27.036119 L 22.133387,24.620876 C 21.145334,23.523039 18.398973,24.035127 17.272212,25.571752 C 13.913455,30.167946 8.4261393,33.826633 7.1887023,34.268574 C 4.8207828,35.114259 5.0872917,38.604723 6.6538792,40.265062 L 8.4653111,42.241169 z" style="color:#000;fill:#c00;fill-opacity:1;fill-rule:nonzero;stroke:#a40000;stroke-width:.9999997;stroke-linecap:butt;stroke-linejoin:miter;marker:none;marker-start:none;marker-mid:none;marker-end:none;stroke-miterlimit:4;stroke-dashoffset:0;stroke-opacity:1;visibility:visible;display:inline;overflow:visible"/><path id="path3101" d="M 20.771261 28.20101 A 1.767767 1.767767 0 1 1 17.235727,28.20101 A 1.767767 1.767767 0 1 1 20.771261 28.20101 z" transform="matrix(0.570876,0,0,0.570876,9.154848,9.8807175)" style="opacity:.75;color:#000;fill:#fff;fill-opacity:1;fill-rule:nonzero;stroke:none;stroke-width:1;stroke-linecap:butt;stroke-linejoin:miter;marker:none;marker-start:none;marker-mid:none;marker-end:none;stroke-miterlimit:4;stroke-dasharray:none;stroke-dashoffset:0;stroke-opacity:1;visibility:visible;display:inline;overflow:visible"/><path id="path3103" d="M 18.678905,28.254414 C 18.678905,28.254414 11.509014,35.554027 8.1502573,36.791464" style="color:#000;fill:none;fill-opacity:1;fill-rule:nonzero;stroke:url(#linearGradient13859);stroke-width:2.29450917;stroke-linecap:round;stroke-linejoin:round;marker:none;marker-start:none;marker-mid:none;marker-end:none;stroke-miterlimit:4;stroke-dasharray:none;stroke-dashoffset:0;stroke-opacity:1;visibility:visible;display:inline;overflow:visible"/><path id="path2247" d="M 20.824602,29.890631 C 20.824602,29.890631 13.501839,36.508036 11.910849,40.750676" style="opacity:.27840911;color:#000;fill:none;fill-opacity:1;fill-rule:nonzero;stroke:url(#linearGradient13856);stroke-width:2.29450917;stroke-linecap:round;stroke-linejoin:round;marker:none;marker-start:none;marker-mid:none;marker-end:none;stroke-miterlimit:4;stroke-dashoffset:0;stroke-opacity:1;visibility:visible;display:inline;overflow:visible"/></g></g></svg>