<svg xmlns="http://www.w3.org/2000/svg" xmlns:cc="http://web.resource.org/cc/" xmlns:svg="http://www.w3.org/2000/svg" xmlns:xlink="http://www.w3.org/1999/xlink" id="svg3164" width="48" height="48" version="1.0"><defs id="defs3166"><linearGradient id="linearGradient259"><stop id="stop260" offset="0" style="stop-color:#fafafa;stop-opacity:1"/><stop id="stop261" offset="1" style="stop-color:#e0e0e0;stop-opacity:1"/></linearGradient><radialGradient id="radialGradient15658" cx="14.543" cy="7.747" r="86.708" fx="14.543" fy="7.747" gradientTransform="matrix(0.9189227,1.5840889e-5,0,0.9585863,61.693819,-37.025888)" gradientUnits="userSpaceOnUse" xlink:href="#linearGradient259"/><linearGradient id="linearGradient6091" x1="-16.587" x2="-18.857" y1="21.704" y2="-1.011" gradientUnits="userSpaceOnUse" xlink:href="#linearGradient259"/><linearGradient id="linearGradient7106" x1="-16.587" x2="-18.857" y1="21.704" y2="-1.011" gradientUnits="userSpaceOnUse" xlink:href="#linearGradient259"/><linearGradient id="linearGradient7124" x1="-16.587" x2="-18.857" y1="21.704" y2="-1.011" gradientUnits="userSpaceOnUse" xlink:href="#linearGradient259"/><linearGradient id="linearGradient7126" x1="-16.587" x2="-18.857" y1="21.704" y2="-1.011" gradientUnits="userSpaceOnUse" xlink:href="#linearGradient259"/><linearGradient id="linearGradient7144" x1="-16.587" x2="-18.857" y1="21.704" y2="-1.011" gradientUnits="userSpaceOnUse" xlink:href="#linearGradient259"/><linearGradient id="linearGradient7162" x1="-16.587" x2="-18.857" y1="21.704" y2="-1.011" gradientUnits="userSpaceOnUse" xlink:href="#linearGradient259"/></defs><metadata id="metadata3169"/><g id="layer1"><g id="g7153" transform="matrix(0.9999999,-9.4348742e-5,9.4348742e-5,0.9999999,-11.308461,15.122633)"><path style="fill:#fff;fill-opacity:1;fill-rule:evenodd;stroke:#555753;stroke-width:.99999994;stroke-linecap:butt;stroke-linejoin:miter;stroke-miterlimit:4;stroke-dasharray:none;stroke-opacity:1" id="path7130" d="M 25.268703,2.455194 C 25.012737,6.643945 13.903806,8.37868 13.903806,8.37868 C 16.210619,6.614409 18.641595,5.132905 18.312067,2.461445 L 25.268703,2.455194 z"/><path id="path7132" d="M -10.253049 20.201864 A 13.832776 9.7669125 0 1 1 -37.918601,20.201864 A 13.832776 9.7669125 0 1 1 -10.253049 20.201864 z" transform="matrix(0.9759429,0,0,0.9214785,50.910196,-23.236903)" style="fill:url(#linearGradient7162);fill-opacity:1;fill-rule:nonzero;stroke:#555753;stroke-width:1.05449677;stroke-linecap:round;stroke-linejoin:miter;stroke-miterlimit:4;stroke-dasharray:none;stroke-dashoffset:0;stroke-opacity:1"/><path style="fill:none;fill-opacity:1;fill-rule:nonzero;stroke:#fff;stroke-width:1.1623404;stroke-linecap:round;stroke-linejoin:miter;stroke-miterlimit:4;stroke-dasharray:none;stroke-dashoffset:0;stroke-opacity:1" id="path7134" d="M -10.253049 20.201864 A 13.832776 9.7669125 0 1 1 -37.918601,20.201864 A 13.832776 9.7669125 0 1 1 -10.253049 20.201864 z" transform="matrix(0.9036509,0,0,0.819092,49.168982,-21.168504)"/><rect style="color:#000;fill:#8ae234;fill-opacity:1;fill-rule:evenodd;stroke:none;stroke-width:1;stroke-linecap:butt;stroke-linejoin:miter;marker:none;marker-start:none;marker-mid:none;marker-end:none;stroke-miterlimit:4;stroke-dasharray:none;stroke-dashoffset:0;stroke-opacity:1;visibility:visible;display:inline;overflow:visible" id="rect7136" width="22" height="2" x="16.404" y="-5.121"/><rect id="rect7138" width="18" height="2" x="18.404" y="-9.121" style="color:#000;fill:#73d216;fill-opacity:1;fill-rule:evenodd;stroke:none;stroke-width:1;stroke-linecap:butt;stroke-linejoin:miter;marker:none;marker-start:none;marker-mid:none;marker-end:none;stroke-miterlimit:4;stroke-dasharray:none;stroke-dashoffset:0;stroke-opacity:1;visibility:visible;display:inline;overflow:visible"/><rect style="color:#000;fill:#8ae234;fill-opacity:1;fill-rule:evenodd;stroke:none;stroke-width:1;stroke-linecap:butt;stroke-linejoin:miter;marker:none;marker-start:none;marker-mid:none;marker-end:none;stroke-miterlimit:4;stroke-dasharray:none;stroke-dashoffset:0;stroke-opacity:1;visibility:visible;display:inline;overflow:visible" id="rect7140" width="18" height="2" x="18.404" y="-1.121"/><path style="fill:none;fill-opacity:.75;fill-rule:evenodd;stroke:#fff;stroke-width:1;stroke-linecap:square;stroke-linejoin:miter;stroke-miterlimit:4;stroke-dasharray:none;stroke-opacity:1" id="path7142" d="M 23.032429,3.892201 C 21.565124,3.562551 20.453862,3.133463 19.443013,2.65325"/></g><g id="g7081" transform="translate(-8.991,13)"><path id="path14374" d="M 31.864897,16.576514 C 31.608931,20.765265 20.5,22.5 20.5,22.5 C 22.806813,20.735729 25.237789,19.254225 24.908261,16.582765 L 31.864897,16.576514 z" style="fill:#fff;fill-opacity:1;fill-rule:evenodd;stroke:#555753;stroke-width:.99999994;stroke-linecap:butt;stroke-linejoin:miter;stroke-miterlimit:4;stroke-dasharray:none;stroke-opacity:1"/><path style="fill:url(#linearGradient7126);fill-opacity:1;fill-rule:nonzero;stroke:#555753;stroke-width:1.05449677;stroke-linecap:round;stroke-linejoin:miter;stroke-miterlimit:4;stroke-dasharray:none;stroke-dashoffset:0;stroke-opacity:1" id="path2192" d="M -10.253049 20.201864 A 13.832776 9.7669125 0 1 1 -37.918601,20.201864 A 13.832776 9.7669125 0 1 1 -10.253049 20.201864 z" transform="matrix(0.9759429,0,0,0.9214785,57.50639,-9.115583)"/><path id="path2190" d="M -10.253049 20.201864 A 13.832776 9.7669125 0 1 1 -37.918601,20.201864 A 13.832776 9.7669125 0 1 1 -10.253049 20.201864 z" transform="matrix(0.9036509,0,0,0.819092,55.765176,-7.047184)" style="fill:none;fill-opacity:1;fill-rule:nonzero;stroke:#fff;stroke-width:1.1623404;stroke-linecap:round;stroke-linejoin:miter;stroke-miterlimit:4;stroke-dasharray:none;stroke-dashoffset:0;stroke-opacity:1"/><rect id="rect3827" width="22" height="2" x="23" y="9" style="color:#000;fill:#ef2929;fill-opacity:1;fill-rule:evenodd;stroke:none;stroke-width:1;stroke-linecap:butt;stroke-linejoin:miter;marker:none;marker-start:none;marker-mid:none;marker-end:none;stroke-miterlimit:4;stroke-dasharray:none;stroke-dashoffset:0;stroke-opacity:1;visibility:visible;display:inline;overflow:visible"/><rect style="color:#000;fill:#ef2929;fill-opacity:1;fill-rule:evenodd;stroke:none;stroke-width:1;stroke-linecap:butt;stroke-linejoin:miter;marker:none;marker-start:none;marker-mid:none;marker-end:none;stroke-miterlimit:4;stroke-dasharray:none;stroke-dashoffset:0;stroke-opacity:1;visibility:visible;display:inline;overflow:visible" id="rect6080" width="18" height="2" x="25" y="5"/><rect id="rect6082" width="18" height="2" x="25" y="13" style="color:#000;fill:#ef2929;fill-opacity:1;fill-rule:evenodd;stroke:none;stroke-width:1;stroke-linecap:butt;stroke-linejoin:miter;marker:none;marker-start:none;marker-mid:none;marker-end:none;stroke-miterlimit:4;stroke-dasharray:none;stroke-dashoffset:0;stroke-opacity:1;visibility:visible;display:inline;overflow:visible"/><path id="path3206" d="M 29.628623,18.013521 C 28.161318,17.683871 27.050056,17.254783 26.039207,16.77457" style="fill:none;fill-opacity:.75;fill-rule:evenodd;stroke:#fff;stroke-width:1;stroke-linecap:square;stroke-linejoin:miter;stroke-miterlimit:4;stroke-dasharray:none;stroke-opacity:1"/></g><g id="g7115" transform="matrix(0.9999958,2.8820511e-3,-2.8820511e-3,0.9999958,-0.8297415,4.952642)"><path style="fill:#fff;fill-opacity:1;fill-rule:evenodd;stroke:#555753;stroke-width:.99999994;stroke-linecap:butt;stroke-linejoin:miter;stroke-miterlimit:4;stroke-dasharray:none;stroke-opacity:1" id="path7092" d="M 31.864897,36.576514 C 31.608931,40.765265 20.5,42.5 20.5,42.5 C 22.806813,40.735729 25.237789,39.254225 24.908261,36.582765 L 31.864897,36.576514 z"/><path id="path7094" d="M -10.253049 20.201864 A 13.832776 9.7669125 0 1 1 -37.918601,20.201864 A 13.832776 9.7669125 0 1 1 -10.253049 20.201864 z" transform="matrix(0.9759429,0,0,0.9214785,57.50639,10.884417)" style="fill:url(#linearGradient7124);fill-opacity:1;fill-rule:nonzero;stroke:#555753;stroke-width:1.05449677;stroke-linecap:round;stroke-linejoin:miter;stroke-miterlimit:4;stroke-dasharray:none;stroke-dashoffset:0;stroke-opacity:1"/><path style="fill:none;fill-opacity:1;fill-rule:nonzero;stroke:#fff;stroke-width:1.1623404;stroke-linecap:round;stroke-linejoin:miter;stroke-miterlimit:4;stroke-dasharray:none;stroke-dashoffset:0;stroke-opacity:1" id="path7096" d="M -10.253049 20.201864 A 13.832776 9.7669125 0 1 1 -37.918601,20.201864 A 13.832776 9.7669125 0 1 1 -10.253049 20.201864 z" transform="matrix(0.9036509,0,0,0.819092,55.765176,12.952816)"/><rect style="color:#000;fill:#3465a4;fill-opacity:1;fill-rule:evenodd;stroke:none;stroke-width:1;stroke-linecap:butt;stroke-linejoin:miter;marker:none;marker-start:none;marker-mid:none;marker-end:none;stroke-miterlimit:4;stroke-dasharray:none;stroke-dashoffset:0;stroke-opacity:1;visibility:visible;display:inline;overflow:visible" id="rect7098" width="22" height="2" x="23" y="29"/><rect id="rect7100" width="18" height="2" x="25" y="25" style="color:#000;fill:#3465a4;fill-opacity:1;fill-rule:evenodd;stroke:none;stroke-width:1;stroke-linecap:butt;stroke-linejoin:miter;marker:none;marker-start:none;marker-mid:none;marker-end:none;stroke-miterlimit:4;stroke-dasharray:none;stroke-dashoffset:0;stroke-opacity:1;visibility:visible;display:inline;overflow:visible"/><rect style="color:#000;fill:#3465a4;fill-opacity:1;fill-rule:evenodd;stroke:none;stroke-width:1;stroke-linecap:butt;stroke-linejoin:miter;marker:none;marker-start:none;marker-mid:none;marker-end:none;stroke-miterlimit:4;stroke-dasharray:none;stroke-dashoffset:0;stroke-opacity:1;visibility:visible;display:inline;overflow:visible" id="rect7102" width="18" height="2" x="25" y="33"/><path style="fill:none;fill-opacity:.75;fill-rule:evenodd;stroke:#fff;stroke-width:1;stroke-linecap:square;stroke-linejoin:miter;stroke-miterlimit:4;stroke-dasharray:none;stroke-opacity:1" id="path7104" d="M 29.628623,38.013521 C 28.161318,37.683871 27.050056,37.254783 26.039207,36.77457"/></g></g></svg>